<svg width="90" height="87" viewBox="0 0 90 87" fill="none" xmlns="http://www.w3.org/2000/svg">
<path d="M69.6798 6.28447C69.7248 5.90518 70.2752 5.90518 70.3202 6.28447L70.6978 9.46644C71.1853 13.5752 74.4248 16.8147 78.5335 17.3022L81.7155 17.6798C82.0948 17.7248 82.0948 18.2752 81.7155 18.3202L78.5335 18.6978C74.4248 19.1853 71.1853 22.4248 70.6978 26.5335L70.3202 29.7155C70.2752 30.0948 69.7248 30.0948 69.6798 29.7155L69.3022 26.5335C68.8147 22.4248 65.5752 19.1853 61.4664 18.6978L58.2845 18.3202C57.9052 18.2752 57.9052 17.7248 58.2845 17.6798L61.4664 17.3022C65.5752 16.8147 68.8147 13.5752 69.3022 9.46644L69.6798 6.28447Z" fill="#EA1D76"/>
<path d="M81.7865 71.1896C81.8165 70.9368 82.1835 70.9368 82.2135 71.1896L82.4652 73.311C82.7902 76.0502 84.9499 78.2098 87.689 78.5348L89.8103 78.7865C90.0632 78.8165 90.0632 79.1835 89.8103 79.2135L87.689 79.4652C84.9499 79.7902 82.7902 81.9499 82.4652 84.689L82.2135 86.8103C82.1835 87.0632 81.8165 87.0632 81.7865 86.8103L81.5348 84.689C81.2098 81.9499 79.0502 79.7902 76.311 79.4652L74.1896 79.2135C73.9368 79.1835 73.9368 78.8165 74.1896 78.7865L76.311 78.5348C79.0502 78.2098 81.2098 76.0502 81.5348 73.311L81.7865 71.1896Z" fill="#EA1D76"/>
<path d="M7.78651 0.189649C7.81654 -0.0632164 8.18346 -0.0632164 8.21349 0.189649L8.4652 2.31096C8.79021 5.05015 10.9499 7.20979 13.689 7.53481L15.8103 7.78651C16.0632 7.81654 16.0632 8.18346 15.8103 8.21349L13.689 8.4652C10.9499 8.79021 8.79021 10.9499 8.4652 13.689L8.21349 15.8103C8.18346 16.0632 7.81654 16.0632 7.78651 15.8103L7.53481 13.689C7.20979 10.9499 5.05015 8.79021 2.31096 8.4652L0.189649 8.21349C-0.0632164 8.18346 -0.0632164 7.81654 0.189649 7.78651L2.31096 7.53481C5.05015 7.20979 7.20979 5.05015 7.53481 2.31096L7.78651 0.189649Z" fill="#EA1D76"/>
</svg>
