<svg width="183" height="315" viewBox="0 0 183 315" fill="none" xmlns="http://www.w3.org/2000/svg">
<path d="M39.6798 291.284C39.7248 290.905 40.2752 290.905 40.3202 291.284L40.6978 294.466C41.1853 298.575 44.4248 301.815 48.5335 302.302L51.7155 302.68C52.0948 302.725 52.0948 303.275 51.7155 303.32L48.5335 303.698C44.4248 304.185 41.1853 307.425 40.6978 311.534L40.3202 314.715C40.2752 315.095 39.7248 315.095 39.6798 314.715L39.3022 311.534C38.8147 307.425 35.5752 304.185 31.4664 303.698L28.2845 303.32C27.9052 303.275 27.9052 302.725 28.2845 302.68L31.4664 302.302C35.5752 301.815 38.8147 298.575 39.3022 294.466L39.6798 291.284Z" fill="#48919F"/>
<path d="M170.68 20.2845C170.725 19.9052 171.275 19.9052 171.32 20.2845L171.698 23.4664C172.185 27.5752 175.425 30.8147 179.534 31.3022L182.715 31.6798C183.095 31.7248 183.095 32.2752 182.715 32.3202L179.534 32.6978C175.425 33.1853 172.185 36.4248 171.698 40.5335L171.32 43.7155C171.275 44.0948 170.725 44.0948 170.68 43.7155L170.302 40.5335C169.815 36.4248 166.575 33.1853 162.466 32.6978L159.284 32.3202C158.905 32.2752 158.905 31.7248 159.284 31.6798L162.466 31.3022C166.575 30.8147 169.815 27.5752 170.302 23.4664L170.68 20.2845Z" fill="#48919F"/>
<path d="M15.573 0.379298C15.6331 -0.126433 16.3669 -0.126433 16.427 0.379298L16.9304 4.62193C17.5804 10.1003 21.8997 14.4196 27.378 15.0696L31.6207 15.573C32.1264 15.6331 32.1264 16.3669 31.6207 16.427L27.378 16.9304C21.8997 17.5804 17.5804 21.8997 16.9304 27.378L16.427 31.6207C16.3669 32.1264 15.6331 32.1264 15.573 31.6207L15.0696 27.378C14.4196 21.8997 10.1003 17.5804 4.62193 16.9304L0.379298 16.427C-0.126433 16.3669 -0.126433 15.6331 0.379298 15.573L4.62193 15.0696C10.1003 14.4196 14.4196 10.1003 15.0696 4.62193L15.573 0.379298Z" fill="#48919F"/>
</svg>
