<svg width="34" height="32" viewBox="0 0 34 32" fill="none" xmlns="http://www.w3.org/2000/svg">
<path d="M3.89325 24.0948C3.90827 23.9684 4.09173 23.9684 4.10675 24.0948L4.2326 25.1555C4.39511 26.5251 5.47493 27.6049 6.84451 27.7674L7.90516 27.8933C8.03161 27.9083 8.03161 28.0917 7.90516 28.1067L6.84451 28.2326C5.47493 28.3951 4.39511 29.4749 4.2326 30.8445L4.10675 31.9052C4.09173 32.0316 3.90827 32.0316 3.89325 31.9052L3.7674 30.8445C3.6049 29.4749 2.52508 28.3951 1.15548 28.2326L0.0948246 28.1067C-0.0316082 28.0917 -0.0316082 27.9083 0.0948246 27.8933L1.15548 27.7674C2.52508 27.6049 3.6049 26.5251 3.7674 25.1555L3.89325 24.0948Z" fill="#EA1D76"/>
<path d="M29.8933 4.09482C29.9083 3.96839 30.0917 3.96839 30.1067 4.09482L30.2326 5.15548C30.3951 6.52508 31.4749 7.6049 32.8445 7.7674L33.9052 7.89325C34.0316 7.90827 34.0316 8.09173 33.9052 8.10675L32.8445 8.2326C31.4749 8.39511 30.3951 9.47493 30.2326 10.8445L30.1067 11.9052C30.0917 12.0316 29.9083 12.0316 29.8933 11.9052L29.7674 10.8445C29.6049 9.47493 28.5251 8.39511 27.1555 8.2326L26.0948 8.10675C25.9684 8.09173 25.9684 7.90827 26.0948 7.89325L27.1555 7.7674C28.5251 7.6049 29.6049 6.52508 29.7674 5.15548L29.8933 4.09482Z" fill="#EA1D76"/>
<path d="M10.7865 0.189649C10.8165 -0.0632164 11.1835 -0.0632164 11.2135 0.189649L11.4652 2.31096C11.7902 5.05015 13.9499 7.20979 16.689 7.53481L18.8103 7.78651C19.0632 7.81654 19.0632 8.18346 18.8103 8.21349L16.689 8.4652C13.9499 8.79021 11.7902 10.9499 11.4652 13.689L11.2135 15.8103C11.1835 16.0632 10.8165 16.0632 10.7865 15.8103L10.5348 13.689C10.2098 10.9499 8.05015 8.79021 5.31096 8.4652L3.18965 8.21349C2.93678 8.18346 2.93678 7.81654 3.18965 7.78651L5.31096 7.53481C8.05015 7.20979 10.2098 5.05015 10.5348 2.31096L10.7865 0.189649Z" fill="#EA1D76"/>
</svg>
