<svg width="154" height="154" viewBox="0 0 154 154" fill="none" xmlns="http://www.w3.org/2000/svg">
<path d="M77 0L77.0149 76.9242L106.467 5.86125L77.0428 76.936L131.447 22.5528L77.0639 76.9572L148.139 47.5332L77.0758 76.9851L154 77L77.0758 77.0149L148.139 106.467L77.0639 77.0428L131.447 131.447L77.0428 77.0639L106.467 148.139L77.0149 77.0758L77 154L76.9851 77.0758L47.5332 148.139L76.9572 77.0639L22.5528 131.447L76.936 77.0428L5.86125 106.467L76.9242 77.0149L0 77L76.9242 76.9851L5.86125 47.5332L76.936 76.9572L22.5528 22.5528L76.9572 76.936L47.5332 5.86125L76.9851 76.9242L77 0Z" stroke="#EA1D76"/>
</svg>
