<svg width="84" height="84" viewBox="0 0 84 84" fill="none" xmlns="http://www.w3.org/2000/svg">
<path d="M42 0L42.0081 41.9587L58.0728 3.19705L42.0234 41.9651L71.6984 12.3015L42.0349 41.9766L80.8029 25.9272L42.0413 41.9919L84 42L42.0413 42.0081L80.8029 58.0728L42.0349 42.0234L71.6984 71.6984L42.0234 42.0349L58.0728 80.8029L42.0081 42.0413L42 84L41.9919 42.0413L25.9272 80.8029L41.9766 42.0349L12.3015 71.6984L41.9651 42.0234L3.19705 58.0728L41.9587 42.0081L0 42L41.9587 41.9919L3.19705 25.9272L41.9651 41.9766L12.3015 12.3015L41.9766 41.9651L25.9272 3.19705L41.9919 41.9587L42 0Z" stroke="#EA1D76" stroke-width="0.5"/>
</svg>
