<svg width="14" height="13" viewBox="0 0 14 13" fill="none" xmlns="http://www.w3.org/2000/svg">
<path d="M13.3701 2.36811C12.5511 1.34111 11.4001 0.745117 10.3131 0.745117C8.87808 0.745117 8.27108 1.43211 7.27409 1.43211C6.24609 1.43211 5.4651 0.747117 4.2241 0.747117C3.00511 0.747117 1.70712 1.49211 0.884125 2.76611C-0.272868 4.5601 -0.0748696 7.93308 1.80012 10.8061C2.47112 11.8341 3.36711 12.9901 4.5391 13.0001C5.5821 13.0101 5.8761 12.3311 7.28909 12.3241C8.70208 12.3161 8.97008 13.0091 10.0111 12.9981C11.1841 12.9891 12.1291 11.7081 12.8001 10.6801C13.2811 9.94307 13.4601 9.57207 13.833 8.74007C11.1201 7.70708 10.6851 3.8491 13.3701 2.36811Z" fill="black"/>
</svg>
