<svg width="20" height="12" viewBox="0 0 20 12" fill="none" xmlns="http://www.w3.org/2000/svg">
<path d="M1 2.00049H19C19.2652 2.00049 19.5196 1.89513 19.7071 1.70759C19.8946 1.52006 20 1.2657 20 1.00049C20 0.735272 19.8946 0.480918 19.7071 0.293382C19.5196 0.105845 19.2652 0.000488281 19 0.000488281H1C0.734784 0.000488281 0.48043 0.105845 0.292893 0.293382C0.105357 0.480918 0 0.735272 0 1.00049C0 1.2657 0.105357 1.52006 0.292893 1.70759C0.48043 1.89513 0.734784 2.00049 1 2.00049ZM19 10.0005H1C0.734784 10.0005 0.48043 10.1058 0.292893 10.2934C0.105357 10.4809 0 10.7353 0 11.0005C0 11.2657 0.105357 11.5201 0.292893 11.7076C0.48043 11.8951 0.734784 12.0005 1 12.0005H19C19.2652 12.0005 19.5196 11.8951 19.7071 11.7076C19.8946 11.5201 20 11.2657 20 11.0005C20 10.7353 19.8946 10.4809 19.7071 10.2934C19.5196 10.1058 19.2652 10.0005 19 10.0005ZM19 5.00049H1C0.734784 5.00049 0.48043 5.10585 0.292893 5.29338C0.105357 5.48092 0 5.73527 0 6.00049C0 6.2657 0.105357 6.52006 0.292893 6.70759C0.48043 6.89513 0.734784 7.00049 1 7.00049H19C19.2652 7.00049 19.5196 6.89513 19.7071 6.70759C19.8946 6.52006 20 6.2657 20 6.00049C20 5.73527 19.8946 5.48092 19.7071 5.29338C19.5196 5.10585 19.2652 5.00049 19 5.00049Z" fill="black"/>
</svg>
