<svg width="32" height="32" viewBox="0 0 32 32" fill="none" xmlns="http://www.w3.org/2000/svg">
<g clip-path="url(#clip0)">
<path d="M25.1979 6.62139L27.2063 4.61308C27.5724 4.24695 27.5724 3.65339 27.2063 3.28727C26.8403 2.92114 26.2466 2.9212 25.8805 3.28727L23.8721 5.29558C23.506 5.66164 23.506 6.25527 23.8721 6.62139C24.2381 6.98745 24.8318 6.98758 25.1979 6.62139Z" fill="white"/>
<path d="M29.5559 11.0459H27.5475C27.0297 11.0459 26.61 11.4656 26.61 11.9834C26.61 12.5011 27.0297 12.9209 27.5475 12.9209H29.5559C30.0736 12.9209 30.4934 12.5011 30.4934 11.9834C30.4934 11.4656 30.0736 11.0459 29.5559 11.0459Z" fill="white"/>
<path d="M18.51 3.88331C19.0278 3.88331 19.4475 3.46356 19.4475 2.94581V0.9375C19.4475 0.41975 19.0278 0 18.51 0C17.9923 0 17.5725 0.41975 17.5725 0.9375V2.94581C17.5725 3.46356 17.9923 3.88331 18.51 3.88331Z" fill="white"/>
<path d="M1.78034 23.3707C1.41452 23.7364 1.41421 24.3304 1.78034 24.6965L5.79702 28.7132C6.16302 29.0792 6.75665 29.0794 7.12284 28.7132L8.69384 27.1422L3.3514 21.7998L1.78034 23.3707Z" fill="white"/>
<path d="M18.0121 24.1279L11.4292 27.2258L15.9294 31.726C16.2954 32.0921 16.8891 32.0922 17.2552 31.726L20.7698 28.2114C21.1359 27.8453 21.1359 27.2517 20.7698 26.8856L18.0121 24.1279Z" fill="white"/>
<path d="M14.1524 3.28727C13.9365 3.0714 13.629 2.97421 13.3282 3.02665C13.0275 3.07915 12.7712 3.27477 12.6412 3.55102L4.67749 20.4738L10.0199 25.8163L26.9427 17.8526C27.219 17.7226 27.4146 17.4662 27.4671 17.1655C27.5196 16.8647 27.4224 16.5573 27.2065 16.3414L14.1524 3.28727Z" fill="white"/>
</g>
<defs>
<clipPath id="clip0">
<rect width="32" height="32" fill="white"/>
</clipPath>
</defs>
</svg>
