<svg width="32" height="32" viewBox="0 0 32 32" fill="none" xmlns="http://www.w3.org/2000/svg">
<g clip-path="url(#clip0)">
<path d="M11.0477 24.9043V27.046H20.956V24.9043C20.956 24.3865 20.5363 23.9668 20.0185 23.9668H11.9852C11.4675 23.9668 11.0477 24.3865 11.0477 24.9043Z" fill="white"/>
<path d="M24.0285 28.9209H7.96179C7.44404 28.9209 7.02429 29.3406 7.02429 29.8584V31.0626C7.02429 31.5803 7.44404 32.0001 7.96179 32.0001H24.0284C24.5462 32.0001 24.9659 31.5803 24.9659 31.0626V29.8584C24.966 29.3406 24.5462 28.9209 24.0285 28.9209Z" fill="white"/>
<path d="M15.9989 8.03379C17.143 8.03379 18.0738 7.10291 18.0738 5.95879C18.0738 4.8146 17.143 3.88379 15.9989 3.88379C14.8546 3.88379 13.9238 4.81466 13.9238 5.95879C13.9238 7.10298 14.8546 8.03379 15.9989 8.03379Z" fill="white"/>
<path d="M5.95918 7.02938C6.54962 7.02938 7.03006 6.54901 7.03006 5.95857C7.03006 5.36813 6.54962 4.8877 5.95918 4.8877C5.36874 4.8877 4.88837 5.36807 4.88837 5.95851C4.88837 6.54895 5.36874 7.02938 5.95918 7.02938Z" fill="white"/>
<path d="M0.938049 6.89551H3.16692C3.06767 6.60082 3.01311 6.28576 3.01311 5.95801C3.01311 5.63026 3.06774 5.3152 3.16692 5.02051H0.938049C0.420299 5.02051 0.000549316 5.44026 0.000549316 5.95801C0.000549316 6.47576 0.420299 6.89551 0.938049 6.89551Z" fill="white"/>
<path d="M16.9368 2.12169V0.9375C16.9368 0.41975 16.517 0 15.9993 0C15.4815 0 15.0618 0.41975 15.0618 0.9375V2.12169C15.3625 2.04819 15.6763 2.00831 15.9993 2.00831C16.3223 2.00831 16.636 2.04819 16.9368 2.12169Z" fill="white"/>
<path d="M23.2525 6.89551C23.1532 6.60082 23.0987 6.28576 23.0987 5.95801C23.0987 5.63026 23.1533 5.3152 23.2525 5.02051H19.8395C19.913 5.3212 19.9528 5.63501 19.9528 5.95801C19.9528 6.28101 19.9129 6.59482 19.8395 6.89551H23.2525Z" fill="white"/>
<path d="M12.1634 6.89551C12.0899 6.59482 12.05 6.28101 12.05 5.95801C12.05 5.63501 12.0899 5.3212 12.1634 5.02051H8.75037C8.84962 5.3152 8.90424 5.63026 8.90424 5.95801C8.90424 6.28576 8.84962 6.60082 8.75037 6.89551H12.1634Z" fill="white"/>
<path d="M31.0605 6.89551C31.5782 6.89551 31.998 6.47576 31.998 5.95801C31.998 5.44026 31.5782 5.02051 31.0605 5.02051H28.8316C28.9309 5.3152 28.9854 5.63026 28.9854 5.95801C28.9854 6.28576 28.9308 6.60082 28.8316 6.89551H31.0605Z" fill="white"/>
<path d="M15.9993 9.9083C15.6763 9.9083 15.3625 9.86842 15.0618 9.79492V22.0916H16.9368V9.79498C16.636 9.86848 16.3223 9.9083 15.9993 9.9083Z" fill="white"/>
<path d="M26.047 7.02938C26.6374 7.02938 27.1179 6.54901 27.1179 5.95857C27.1179 5.36813 26.6374 4.8877 26.047 4.8877C25.4566 4.8877 24.9762 5.36807 24.9762 5.95851C24.9762 6.54895 25.4566 7.02938 26.047 7.02938Z" fill="white"/>
<path d="M4.39423 13.1874L5.95648 10.0629L7.51873 13.1874H9.61498L7.30835 8.57422C6.9031 8.78453 6.4436 8.90409 5.95641 8.90409C5.46923 8.90409 5.00973 8.78447 4.60448 8.57422L2.29791 13.1874H4.39423Z" fill="white"/>
<path d="M11.9172 16C11.9172 15.4822 11.4975 15.0625 10.9797 15.0625H0.938049C0.420299 15.0625 0.000549316 15.4822 0.000549316 16C0.000549316 19.2854 2.67349 21.9583 5.95886 21.9583C9.2443 21.9583 11.9172 19.2854 11.9172 16Z" fill="white"/>
<path d="M24.482 13.1874L26.0442 10.0629L27.6065 13.1874H29.7027L27.3961 8.57422C26.9909 8.78453 26.5314 8.90409 26.0442 8.90409C25.557 8.90409 25.0975 8.78447 24.6922 8.57422L22.3857 13.1874H24.482Z" fill="white"/>
<path d="M31.0624 15.0625H21.0207C20.5029 15.0625 20.0832 15.4822 20.0832 16C20.0832 19.2854 22.7561 21.9583 26.0415 21.9583C29.3269 21.9583 31.9999 19.2854 31.9999 16C31.9999 15.4822 31.5801 15.0625 31.0624 15.0625Z" fill="white"/>
</g>
<defs>
<clipPath id="clip0">
<rect width="32" height="32" fill="white"/>
</clipPath>
</defs>
</svg>
