<svg  viewBox="0 0 75 32" fill="none" xmlns="http://www.w3.org/2000/svg">
<path d="M15.535 19.698L16.9132 22.6508C17.2359 23.3549 17.9368 23.825 18.7287 23.8685L26.2161 24.2793C27.4617 24.3481 28.504 23.3714 28.478 22.1593C28.4365 20.2448 28.3219 17.4595 28.0081 15.2407C27.9284 14.6789 27.7763 14.1289 27.5593 13.6027C26.0584 9.96397 24.351 8.36864 20.0841 8.28093C15.5155 8.18769 13.0146 11.4123 12.2934 13.4217C11.5722 15.4319 11.6202 19.3574 13.6878 21.1803C15.7562 23.0032 15.1789 29.2186 15.1789 29.2186C15.1789 29.2186 19.2214 28.5525 21.0321 30.2482C21.1475 30.3557 21.2662 30.4616 21.3931 30.5564C22.2793 31.2233 22.8257 31.1862 22.8257 31.1862L22.7606 26.1125C22.7557 25.7854 22.9671 25.4922 23.285 25.384L25.3201 24.2651" fill="white"/>
<path d="M17.0318 28.9626C18.4311 28.9626 20.2832 29.1933 21.4158 30.2537C21.5085 30.3399 21.6191 30.4402 21.737 30.5295C21.9914 30.7199 22.2085 30.8432 22.3825 30.9214L22.3256 26.4618C22.3191 25.9481 22.6395 25.4875 23.1281 25.301L23.7558 24.9557L18.7498 24.6807C17.7725 24.627 16.918 24.0541 16.5204 23.1857L15.1431 20.2353L16.0237 19.8473L17.401 22.8001C17.653 23.3493 18.1904 23.7096 18.8043 23.7428L26.2917 24.1545C26.7584 24.1806 27.2007 24.0201 27.5373 23.7049C27.8731 23.3896 28.0528 22.9669 28.043 22.5125C28.0015 20.5885 27.8869 17.8355 27.5779 15.6484C27.5048 15.1308 27.3633 14.6172 27.1592 14.121C25.6217 10.393 23.9119 9.17142 20.1222 9.09398C15.7407 9.00469 13.456 12.0855 12.7975 13.9203C12.4365 14.9262 12.3121 16.3587 12.4723 17.6593C12.6617 19.1907 13.2259 20.4399 14.0609 21.1764C15.0147 22.0171 15.5797 23.7065 15.7391 26.1978C15.8131 27.3531 15.7814 28.404 15.748 29.025C16.0806 28.9926 16.5269 28.9626 17.0318 28.9626ZM22.8557 32C22.6517 32 22.0305 31.9368 21.1459 31.2723C20.9898 31.1553 20.8499 31.0273 20.7459 30.9301C19.1287 29.4162 15.3456 30.0191 15.3082 30.0254L14.6894 30.1273L14.7455 29.5205C14.9 27.8556 14.9602 23.2363 13.4113 21.8717C11.1852 19.9097 11.0949 15.8135 11.8852 13.6113C12.1064 12.9942 12.8032 11.4131 14.4845 10.0461C16.0594 8.76606 18.0173 8.1126 20.1418 8.15527C22.363 8.20031 23.9712 8.65386 25.203 9.5831C26.3478 10.4444 27.2007 11.6976 28.056 13.771C28.2894 14.3383 28.4512 14.927 28.5349 15.5204C28.8512 17.7526 28.9674 20.5442 29.0089 22.4928C29.0243 23.2008 28.7325 23.889 28.208 24.3813C27.6836 24.8727 26.9665 25.1327 26.2372 25.0916L25.5404 25.0537L23.5338 26.1567L23.4932 26.1702C23.3712 26.2121 23.2899 26.3243 23.2915 26.4499L23.3631 31.9676L22.9069 31.9984C22.8956 31.9992 22.8777 32 22.8557 32Z" fill="#EA0D75"/>
<path d="M15.9017 20.6953C13.1316 20.3642 12.6739 18.1715 12.5698 16.5509C12.5202 15.7631 12.7422 15.2179 13.2308 14.9303C14.213 14.3527 15.7724 15.2108 16.0749 15.3886L15.5748 16.1922L15.8244 15.79L15.5748 16.1922C15.0439 15.8816 14.091 15.5213 13.7316 15.7339C13.5259 15.8548 13.5202 16.2609 13.5349 16.4924C13.6707 18.6211 14.3902 19.5685 16.0196 19.7629L15.9017 20.6953Z" fill="#EA0D75"/>
<path d="M25.452 23.1201L19.2997 22.616C18.8517 22.5796 18.4557 22.3173 18.2557 21.9254L16.6101 18.7339C16.6101 18.7339 18.1492 21.4568 25.452 23.1201Z" fill="#EA0D75"/>
<path d="M28.9821 10.8545L28.2308 10.2634L30.348 7.7215L23.7176 8.1711L24.7485 2.44321L19.1246 7.18972L16.5977 4.48894L17.1562 7.7452L16.2033 7.89928L15.1049 1.49659L19.2043 5.87884L26.1697 2.57492e-05L24.8819 7.151L32.4969 6.63502L28.9821 10.8545Z" fill="#ECED15"/>
<path d="M5.26923 22.2666L9.22961 16.7679L5.33915 13.7431L10.0053 13.3109L10.0963 14.2464L7.80595 14.4582L10.5411 16.5845L7.54415 20.7455L10.9273 19.9238L11.1622 20.8348L5.26923 22.2666Z" fill="#ECED13"/>
<path d="M12.321 30.2842H5.80275C2.60339 30.2842 0 27.7541 0 24.6448V8.644H2.64161V24.6448C2.64161 26.3389 4.05957 27.7169 5.80275 27.7169H12.321V30.2842Z" fill="#EA0D75"/>
<path d="M43.1968 30.4189H36.5802C33.1646 30.4189 30.3856 27.719 30.3856 24.3987V23.4766H33.0272V24.3987C33.0272 26.303 34.6216 27.8525 36.5802 27.8525H40.5552V20.391C39.2552 21.3961 37.6486 21.9121 35.9607 21.8481C32.3467 21.7145 29.4075 18.8581 29.2701 15.3458C29.1977 13.4865 29.8872 11.7261 31.2124 10.3883C32.5385 9.05058 34.3208 8.31335 36.2314 8.31335V10.8806C35.0452 10.8806 33.9386 11.3381 33.1158 12.1686C32.293 12.999 31.8645 14.0926 31.9101 15.2486C31.9946 17.4279 33.8183 19.2002 36.0615 19.2824C37.2494 19.3282 38.3754 18.9102 39.23 18.1114C40.0845 17.3117 40.5552 16.2363 40.5552 15.0835H43.1968V30.4189Z" fill="#EA0D75"/>
<path d="M52.9111 11.035C49.6768 11.035 47.0457 13.592 47.0457 16.7345C47.0457 19.8777 49.6768 22.4347 52.9111 22.4347C56.1446 22.4347 58.7756 19.8777 58.7756 16.7345C58.7756 13.592 56.1446 11.035 52.9111 11.035ZM52.9111 25.002C48.2206 25.002 44.405 21.2929 44.405 16.7345C44.405 12.176 48.2206 8.4678 52.9111 8.4678C57.6008 8.4678 61.4173 12.176 61.4173 16.7345C61.4173 21.2929 57.6008 25.002 52.9111 25.002Z" fill="#EA0D75"/>
<path d="M68.6286 30.3486C65.1154 30.3486 62.2567 27.5704 62.2567 24.1561H64.8983C64.8983 26.1552 66.5716 27.7814 68.6286 27.7814C70.6856 27.7814 72.3589 26.1552 72.3589 24.1561C72.3589 22.4691 71.1669 21.0484 69.5587 20.6454H68.6286C65.1154 20.6454 62.2567 17.8672 62.2567 14.4529C62.2567 11.0386 65.1154 8.26122 68.6286 8.26122C72.1418 8.26122 74.9997 11.0386 74.9997 14.4529H72.3589C72.3589 12.4538 70.6856 10.8277 68.6286 10.8277C66.5716 10.8277 64.8983 12.4538 64.8983 14.4529C64.8983 16.1399 66.0894 17.5614 67.6977 17.9644H68.6286C72.1418 17.9644 74.9997 20.7418 74.9997 24.1561C74.9997 27.5704 72.1418 30.3486 68.6286 30.3486Z" fill="#EA0D75"/>
<path d="M59.7235 29.001H46.4529V26.4345H59.7235V29.001Z" fill="#EA0D75"/>
<path d="M19.9564 7.29187L23.3899 4.66063L22.7955 7.80469L19.9564 7.29187Z" fill="#ECED15"/>
<path d="M10.2344 17.8625L8.99615 19.7715L10.7459 19.4507L10.2344 17.8625Z" fill="#ECED15"/>
<path d="M10.5145 15.9531C10.4153 15.8251 9.22656 14.8943 9.22656 14.8943L10.8112 14.7663L10.5145 15.9531Z" fill="#ECED15"/>
</svg>
