<svg width="75" height="32" viewBox="0 0 75 32" fill="none" xmlns="http://www.w3.org/2000/svg">
<path d="M15.5343 19.698L16.9124 22.6508C17.2352 23.3549 17.9361 23.825 18.728 23.8685L26.2155 24.2793C27.4611 24.3481 28.5034 23.3714 28.4774 22.1593C28.4359 20.2448 28.3213 17.4594 28.0075 15.2407C27.9278 14.6789 27.7757 14.1289 27.5586 13.6027C26.0577 9.96397 24.3503 8.36863 20.0834 8.28092C15.5148 8.18769 13.0138 11.4123 12.2926 13.4217C11.5714 15.4319 11.6194 19.3574 13.687 21.1803C15.7554 23.0032 15.1782 29.2186 15.1782 29.2186C15.1782 29.2186 19.2207 28.5525 21.0314 30.2482C21.1469 30.3557 21.2656 30.4616 21.3924 30.5564C22.2786 31.2233 22.825 31.1862 22.825 31.1862L22.76 26.1125C22.7551 25.7854 22.9665 25.4922 23.2844 25.384L25.3195 24.2651" fill="white"/>
<path d="M17.033 28.9626C18.4323 28.9626 20.2844 29.1933 21.417 30.2537C21.5097 30.3399 21.6203 30.4402 21.7382 30.5295C21.9927 30.7199 22.2098 30.8432 22.3838 30.9214L22.3269 26.4618C22.3203 25.9481 22.6407 25.4875 23.1294 25.301L23.757 24.9557L18.751 24.6807C17.7737 24.627 16.9192 24.0541 16.5216 23.1857L15.1443 20.2353L16.0248 19.8473L17.4021 22.8001C17.6542 23.3493 18.1916 23.7096 18.8055 23.7428L26.293 24.1545C26.7597 24.1806 27.202 24.0201 27.5386 23.7049C27.8744 23.3896 28.0541 22.9669 28.0443 22.5125C28.0028 20.5885 27.8882 17.8355 27.5792 15.6484C27.5061 15.1308 27.3646 14.6172 27.1605 14.121C25.623 10.393 23.9131 9.17141 20.1235 9.09398C15.7419 9.00469 13.4572 12.0855 12.7986 13.9203C12.4376 14.9262 12.3132 16.3587 12.4734 17.6593C12.6628 19.1907 13.2271 20.4399 14.0621 21.1764C15.0158 22.0171 15.5809 23.7065 15.7402 26.1978C15.8142 27.3531 15.7825 28.404 15.7492 29.025C16.0817 28.9926 16.5281 28.9626 17.033 28.9626ZM22.857 32C22.6529 32 22.0317 31.9368 21.1471 31.2723C20.991 31.1553 20.8512 31.0273 20.7471 30.9301C19.1299 29.4162 15.3467 30.0191 15.3093 30.0254L14.6906 30.1273L14.7467 29.5205C14.9012 27.8556 14.9613 23.2363 13.4124 21.8717C11.1863 19.9097 11.096 15.8135 11.8863 13.6113C12.1075 12.9942 12.8043 11.4131 14.4857 10.0461C16.0606 8.76606 18.0184 8.1126 20.143 8.15526C22.3643 8.2003 23.9725 8.65386 25.2043 9.58309C26.3491 10.4444 27.202 11.6976 28.0573 13.771C28.2907 14.3383 28.4525 14.927 28.5362 15.5204C28.8525 17.7526 28.9688 20.5442 29.0102 22.4928C29.0257 23.2008 28.7338 23.889 28.2094 24.3813C27.6849 24.8727 26.9678 25.1327 26.2385 25.0916L25.5417 25.0537L23.5351 26.1567L23.4944 26.1702C23.3724 26.2121 23.2912 26.3243 23.2928 26.4499L23.3643 31.9676L22.9082 31.9984C22.8968 31.9992 22.8789 32 22.857 32Z" fill="#EA0D75"/>
<path d="M15.9012 20.6953C13.1311 20.3642 12.6734 18.1715 12.5693 16.5509C12.5197 15.7631 12.7417 15.2179 13.2303 14.9303C14.2125 14.3527 15.772 15.2108 16.0744 15.3886L15.5744 16.1922L15.824 15.79L15.5744 16.1922C15.0434 15.8816 14.0905 15.5213 13.7312 15.7339C13.5255 15.8548 13.5198 16.2609 13.5344 16.4924C13.6702 18.6211 14.3897 19.5685 16.0191 19.7629L15.9012 20.6953Z" fill="#EA0D75"/>
<path d="M25.4514 23.1201L19.299 22.616C18.851 22.5796 18.455 22.3173 18.255 21.9254L16.6094 18.7339C16.6094 18.7339 18.1485 21.4568 25.4514 23.1201Z" fill="#EA0D75"/>
<path d="M28.9828 10.8545L28.2315 10.2634L30.3487 7.7215L23.7182 8.1711L24.7492 2.44321L19.1252 7.18972L16.5982 4.48894L17.1568 7.7452L16.2039 7.89928L15.1055 1.49659L19.2049 5.87884L26.1704 2.57492e-05L24.8825 7.151L32.4977 6.63502L28.9828 10.8545Z" fill="#ECED15"/>
<path d="M5.26953 22.2666L9.22995 16.7679L5.33945 13.7431L10.0056 13.3109L10.0967 14.2465L7.80628 14.4582L10.5414 16.5845L7.54448 20.7455L10.9276 19.9238L11.1626 20.8348L5.26953 22.2666Z" fill="#ECED13"/>
<path d="M12.3211 30.2842H5.80282C2.60343 30.2842 0 27.7541 0 24.6448V8.644H2.64164V24.6448C2.64164 26.3389 4.05962 27.7169 5.80282 27.7169H12.3211V30.2842Z" fill="white"/>
<path d="M43.1977 30.4189H36.581C33.1654 30.4189 30.3863 27.719 30.3863 24.3987V23.4766H33.0279V24.3987C33.0279 26.303 34.6224 27.8525 36.581 27.8525H40.5561V20.391C39.256 21.3961 37.6494 21.9121 35.9615 21.8481C32.3474 21.7145 29.4082 18.8581 29.2708 15.3458C29.1984 13.4866 29.8879 11.7261 31.2132 10.3883C32.5393 9.05058 34.3215 8.31336 36.2322 8.31336V10.8806C35.046 10.8806 33.9394 11.3381 33.1166 12.1686C32.2938 12.999 31.8653 14.0926 31.9108 15.2486C31.9954 17.4279 33.8191 19.2002 36.0623 19.2824C37.2502 19.3282 38.3763 18.9102 39.2308 18.1114C40.0853 17.3117 40.5561 16.2363 40.5561 15.0835H43.1977V30.4189Z" fill="white"/>
<path d="M52.9125 11.035C49.6781 11.035 47.0471 13.592 47.0471 16.7345C47.0471 19.8777 49.6781 22.4347 52.9125 22.4347C56.146 22.4347 58.7771 19.8777 58.7771 16.7345C58.7771 13.592 56.146 11.035 52.9125 11.035ZM52.9125 25.002C48.2219 25.002 44.4062 21.2929 44.4062 16.7345C44.4062 12.176 48.2219 8.4678 52.9125 8.4678C57.6022 8.4678 61.4188 12.176 61.4188 16.7345C61.4188 21.2929 57.6022 25.002 52.9125 25.002Z" fill="white"/>
<path d="M68.6298 30.3486C65.1165 30.3486 62.2578 27.5704 62.2578 24.1561H64.8995C64.8995 26.1552 66.5727 27.7814 68.6298 27.7814C70.6868 27.7814 72.3601 26.1552 72.3601 24.1561C72.3601 22.4691 71.1682 21.0484 69.5599 20.6454H68.6298C65.1165 20.6454 62.2578 17.8672 62.2578 14.4529C62.2578 11.0386 65.1165 8.26122 68.6298 8.26122C72.143 8.26122 75.0009 11.0386 75.0009 14.4529H72.3601C72.3601 12.4538 70.6868 10.8277 68.6298 10.8277C66.5727 10.8277 64.8995 12.4538 64.8995 14.4529C64.8995 16.1399 66.0906 17.5614 67.6988 17.9644H68.6298C72.143 17.9644 75.0009 20.7418 75.0009 24.1561C75.0009 27.5704 72.143 30.3486 68.6298 30.3486Z" fill="white"/>
<path d="M59.7239 29.001H46.4531V26.4345H59.7239V29.001Z" fill="#EA0D75"/>
<path d="M19.957 7.29187L23.3906 4.66063L22.7962 7.80469L19.957 7.29187Z" fill="#ECED15"/>
<path d="M10.2344 17.8625L8.99609 19.7715L10.7458 19.4507L10.2344 17.8625Z" fill="#ECED15"/>
<path d="M10.5144 15.9531C10.4153 15.8251 9.22656 14.8943 9.22656 14.8943L10.8112 14.7663L10.5144 15.9531Z" fill="#ECED15"/>
</svg>
