<svg width="12" height="13" viewBox="0 0 12 13" fill="none" xmlns="http://www.w3.org/2000/svg">
<path d="M5.99984 7.6665C6.11521 7.6665 6.22799 7.63229 6.32392 7.56819C6.41985 7.5041 6.49462 7.41299 6.53877 7.3064C6.58292 7.19981 6.59447 7.08252 6.57196 6.96937C6.54945 6.85621 6.4939 6.75227 6.41232 6.67069C6.33074 6.58911 6.2268 6.53355 6.11364 6.51105C6.00048 6.48854 5.88319 6.50009 5.7766 6.54424C5.67001 6.58839 5.57891 6.66316 5.51481 6.75909C5.45072 6.85502 5.4165 6.9678 5.4165 7.08317C5.4165 7.23788 5.47796 7.38625 5.58736 7.49565C5.69675 7.60505 5.84513 7.6665 5.99984 7.6665ZM8.9165 7.6665C9.03188 7.6665 9.14466 7.63229 9.24059 7.56819C9.33652 7.5041 9.41128 7.41299 9.45543 7.3064C9.49958 7.19981 9.51114 7.08252 9.48863 6.96937C9.46612 6.85621 9.41056 6.75227 9.32898 6.67069C9.2474 6.58911 9.14346 6.53355 9.03031 6.51105C8.91715 6.48854 8.79986 6.50009 8.69327 6.54424C8.58668 6.58839 8.49558 6.66316 8.43148 6.75909C8.36738 6.85502 8.33317 6.9678 8.33317 7.08317C8.33317 7.23788 8.39463 7.38625 8.50402 7.49565C8.61342 7.60505 8.76179 7.6665 8.9165 7.6665ZM5.99984 9.99984C6.11521 9.99984 6.22799 9.96563 6.32392 9.90153C6.41985 9.83743 6.49462 9.74633 6.53877 9.63974C6.58292 9.53314 6.59447 9.41586 6.57196 9.3027C6.54945 9.18954 6.4939 9.0856 6.41232 9.00402C6.33074 8.92244 6.2268 8.86689 6.11364 8.84438C6.00048 8.82187 5.88319 8.83342 5.7766 8.87757C5.67001 8.92173 5.57891 8.99649 5.51481 9.09242C5.45072 9.18835 5.4165 9.30113 5.4165 9.4165C5.4165 9.57121 5.47796 9.71959 5.58736 9.82898C5.69675 9.93838 5.84513 9.99984 5.99984 9.99984ZM8.9165 9.99984C9.03188 9.99984 9.14466 9.96563 9.24059 9.90153C9.33652 9.83743 9.41128 9.74633 9.45543 9.63974C9.49958 9.53314 9.51114 9.41586 9.48863 9.3027C9.46612 9.18954 9.41056 9.0856 9.32898 9.00402C9.2474 8.92244 9.14346 8.86689 9.03031 8.84438C8.91715 8.82187 8.79986 8.83342 8.69327 8.87757C8.58668 8.92173 8.49558 8.99649 8.43148 9.09242C8.36738 9.18835 8.33317 9.30113 8.33317 9.4165C8.33317 9.57121 8.39463 9.71959 8.50402 9.82898C8.61342 9.93838 8.76179 9.99984 8.9165 9.99984ZM3.08317 7.6665C3.19854 7.6665 3.31132 7.63229 3.40725 7.56819C3.50318 7.5041 3.57795 7.41299 3.6221 7.3064C3.66625 7.19981 3.6778 7.08252 3.6553 6.96937C3.63279 6.85621 3.57723 6.75227 3.49565 6.67069C3.41407 6.58911 3.31013 6.53355 3.19697 6.51105C3.08382 6.48854 2.96653 6.50009 2.85994 6.54424C2.75335 6.58839 2.66224 6.66316 2.59815 6.75909C2.53405 6.85502 2.49984 6.9678 2.49984 7.08317C2.49984 7.23788 2.5613 7.38625 2.67069 7.49565C2.78009 7.60505 2.92846 7.6665 3.08317 7.6665ZM10.0832 1.83317H9.49984V1.24984C9.49984 1.09513 9.43838 0.946754 9.32898 0.837358C9.21959 0.727962 9.07121 0.666504 8.9165 0.666504C8.76179 0.666504 8.61342 0.727962 8.50402 0.837358C8.39463 0.946754 8.33317 1.09513 8.33317 1.24984V1.83317H3.6665V1.24984C3.6665 1.09513 3.60505 0.946754 3.49565 0.837358C3.38625 0.727962 3.23788 0.666504 3.08317 0.666504C2.92846 0.666504 2.78009 0.727962 2.67069 0.837358C2.5613 0.946754 2.49984 1.09513 2.49984 1.24984V1.83317H1.9165C1.45238 1.83317 1.00726 2.01755 0.679067 2.34573C0.350878 2.67392 0.166504 3.11904 0.166504 3.58317V10.5832C0.166504 11.0473 0.350878 11.4924 0.679067 11.8206C1.00726 12.1488 1.45238 12.3332 1.9165 12.3332H10.0832C10.5473 12.3332 10.9924 12.1488 11.3206 11.8206C11.6488 11.4924 11.8332 11.0473 11.8332 10.5832V3.58317C11.8332 3.11904 11.6488 2.67392 11.3206 2.34573C10.9924 2.01755 10.5473 1.83317 10.0832 1.83317ZM10.6665 10.5832C10.6665 10.7379 10.605 10.8863 10.4956 10.9956C10.3863 11.105 10.2379 11.1665 10.0832 11.1665H1.9165C1.76179 11.1665 1.61342 11.105 1.50402 10.9956C1.39463 10.8863 1.33317 10.7379 1.33317 10.5832V5.33317H10.6665V10.5832ZM10.6665 4.1665H1.33317V3.58317C1.33317 3.42846 1.39463 3.28009 1.50402 3.17069C1.61342 3.0613 1.76179 2.99984 1.9165 2.99984H10.0832C10.2379 2.99984 10.3863 3.0613 10.4956 3.17069C10.605 3.28009 10.6665 3.42846 10.6665 3.58317V4.1665ZM3.08317 9.99984C3.19854 9.99984 3.31132 9.96563 3.40725 9.90153C3.50318 9.83743 3.57795 9.74633 3.6221 9.63974C3.66625 9.53314 3.6778 9.41586 3.6553 9.3027C3.63279 9.18954 3.57723 9.0856 3.49565 9.00402C3.41407 8.92244 3.31013 8.86689 3.19697 8.84438C3.08382 8.82187 2.96653 8.83342 2.85994 8.87757C2.75335 8.92173 2.66224 8.99649 2.59815 9.09242C2.53405 9.18835 2.49984 9.30113 2.49984 9.4165C2.49984 9.57121 2.5613 9.71959 2.67069 9.82898C2.78009 9.93838 2.92846 9.99984 3.08317 9.99984Z" fill="#EA1D76"/>
</svg>
