<svg width="16" height="16" viewBox="0 0 16 16" fill="none" xmlns="http://www.w3.org/2000/svg">
<path d="M15.5 3.50098H8.5C8.224 3.50098 8 3.72498 8 4.00098C8 4.27698 8.224 4.50098 8.5 4.50098H14.043L10.971 6.88998L8.768 5.48898L8.232 6.33298L10.732 7.92298C10.813 7.97498 10.907 8.00098 11 8.00098C11.108 8.00098 11.217 7.96598 11.307 7.89598L15 5.02298V11.501H8.5C8.224 11.501 8 11.725 8 12.001C8 12.277 8.224 12.501 8.5 12.501H15.5C15.776 12.501 16 12.277 16 12.001V4.00098C16 3.72498 15.776 3.50098 15.5 3.50098Z" fill="#1976D2"/>
<path d="M8.819 0.615674C8.705 0.520674 8.552 0.479674 8.408 0.509674L0.408 2.00967C0.171 2.05367 0 2.25967 0 2.50067V13.5007C0 13.7407 0.171 13.9477 0.408 13.9917L8.408 15.4917C8.438 15.4977 8.469 15.5007 8.5 15.5007C8.616 15.5007 8.729 15.4607 8.819 15.3857C8.934 15.2907 9 15.1487 9 15.0007V1.00067C9 0.851674 8.934 0.710674 8.819 0.615674Z" fill="#2196F3"/>
<path d="M4.5 11.501C3.122 11.501 2 10.155 2 8.50097C2 6.84697 3.122 5.50098 4.5 5.50098C5.878 5.50098 7 6.84697 7 8.50097C7 10.155 5.878 11.501 4.5 11.501ZM4.5 6.50097C3.673 6.50097 3 7.39797 3 8.50097C3 9.60397 3.673 10.501 4.5 10.501C5.327 10.501 6 9.60397 6 8.50097C6 7.39797 5.327 6.50097 4.5 6.50097Z" fill="#FAFAFA"/>
</svg>
