<svg width="12" height="13" viewBox="0 0 12 13" fill="none" xmlns="http://www.w3.org/2000/svg">
<path d="M11.2513 5.33413C11.406 5.33413 11.5544 5.27267 11.6638 5.16328C11.7732 5.05388 11.8346 4.90551 11.8346 4.7508V3.0008C11.8346 2.8784 11.7961 2.7591 11.7245 2.65984C11.6528 2.56058 11.5518 2.48639 11.4356 2.4478L6.18564 0.697796C6.06596 0.658026 5.93664 0.658026 5.81697 0.697796L0.566969 2.4478C0.450812 2.48639 0.349756 2.56058 0.278138 2.65984C0.206519 2.7591 0.167973 2.8784 0.167969 3.0008V4.7508C0.167969 4.90551 0.229427 5.05388 0.338823 5.16328C0.448219 5.27267 0.596592 5.33413 0.751302 5.33413H1.33464V9.5248C0.99437 9.64464 0.699549 9.86689 0.490655 10.161C0.281762 10.4551 0.16904 10.8067 0.167969 11.1675V12.3341C0.167969 12.4888 0.229427 12.6372 0.338823 12.7466C0.448219 12.856 0.596592 12.9175 0.751302 12.9175H11.2513C11.406 12.9175 11.5544 12.856 11.6638 12.7466C11.7732 12.6372 11.8346 12.4888 11.8346 12.3341V11.1675C11.8336 10.8067 11.7208 10.4551 11.5119 10.161C11.3031 9.86689 11.0082 9.64464 10.668 9.5248V5.33413H11.2513ZM10.668 11.7508H1.33464V11.1675C1.33479 11.0128 1.3963 10.8645 1.50566 10.7552C1.61502 10.6458 1.76331 10.5843 1.91797 10.5841H10.0846C10.2393 10.5843 10.3876 10.6458 10.4969 10.7552C10.6063 10.8645 10.6678 11.0128 10.668 11.1675V11.7508ZM2.5013 9.41746V5.33413H3.66797V9.41746H2.5013ZM4.83464 9.41746V5.33413H7.16797V9.41746H4.83464ZM8.33463 9.41746V5.33413H9.5013V9.41746H8.33463ZM1.33464 4.16746V3.4208L6.0013 1.86563L10.668 3.42138V4.16746H1.33464Z" fill="#EA1D76"/>
</svg>
