<svg width="14" height="14" viewBox="0 0 14 14" fill="none" xmlns="http://www.w3.org/2000/svg">
<path d="M13.4742 12.5266L11.0009 10.0733C11.961 8.87621 12.4259 7.3568 12.3001 5.82747C12.1743 4.29814 11.4674 2.87512 10.3246 1.85103C9.18182 0.82694 7.69012 0.27961 6.15619 0.321583C4.62227 0.363557 3.16273 0.991644 2.07767 2.0767C0.992621 3.16175 0.364533 4.6213 0.32256 6.15522C0.280586 7.68914 0.827917 9.18085 1.85201 10.3236C2.8761 11.4664 4.29911 12.1733 5.82845 12.2991C7.35778 12.4249 8.87719 11.96 10.0742 10.9999L12.5276 13.4533C12.5896 13.5158 12.6633 13.5654 12.7445 13.5992C12.8258 13.633 12.9129 13.6505 13.0009 13.6505C13.0889 13.6505 13.1761 13.633 13.2573 13.5992C13.3385 13.5654 13.4123 13.5158 13.4742 13.4533C13.5944 13.329 13.6616 13.1628 13.6616 12.9899C13.6616 12.817 13.5944 12.6509 13.4742 12.5266ZM6.33425 10.9999C5.41127 10.9999 4.50901 10.7262 3.74158 10.2135C2.97416 9.70068 2.37602 8.97185 2.02281 8.11913C1.6696 7.2664 1.57718 6.32809 1.75725 5.42285C1.93731 4.5176 2.38177 3.68608 3.03441 3.03344C3.68706 2.38079 4.51858 1.93634 5.42382 1.75627C6.32907 1.57621 7.26738 1.66862 8.1201 2.02183C8.97282 2.37504 9.70166 2.97318 10.2144 3.74061C10.7272 4.50804 11.0009 5.41029 11.0009 6.33327C11.0009 7.57095 10.5092 8.75793 9.63408 9.6331C8.75891 10.5083 7.57192 10.9999 6.33425 10.9999Z" fill="#121212" fill-opacity="0.24"/>
</svg>
