<svg width="16" height="16" viewBox="0 0 16 16" fill="none" xmlns="http://www.w3.org/2000/svg">
<path d="M8 0C3.5985 0 0 3.5985 0 8C0 12.4015 3.5985 16 8 16C12.4015 16 16 12.4015 16 8C16 3.5985 12.44 0 8 0ZM11.68 11.56C11.5205 11.7995 11.2395 11.88 11 11.7185C9.12 10.56 6.7605 10.32 3.9585 10.9585C3.68 11.041 3.44 10.841 3.359 10.5985C3.281 10.32 3.479 10.0805 3.7185 10C6.7605 9.32 9.401 9.5985 11.479 10.88C11.7605 11 11.799 11.32 11.6795 11.56H11.68ZM12.6405 9.3595C12.44 9.641 12.0805 9.761 11.799 9.56C9.6405 8.2395 6.359 7.8415 3.841 8.6405C3.5205 8.7185 3.1585 8.56 3.0805 8.239C3 7.919 3.1585 7.5595 3.479 7.479C6.401 6.5985 9.9995 7.041 12.479 8.5595C12.721 8.6795 12.841 9.08 12.6405 9.359V9.3595ZM12.7215 7.12C10.159 5.5985 5.88 5.44 3.44 6.2005C3.0395 6.32 2.6405 6.0805 2.5205 5.7185C2.401 5.32 2.6405 4.919 3 4.799C5.8415 3.9585 10.5205 4.1195 13.482 5.8795C13.8415 6.08 13.9605 6.5595 13.7605 6.919C13.56 7.2005 13.0805 7.3195 12.721 7.1195L12.7215 7.12Z" fill="white"/>
</svg>
