<svg width="16" height="14" viewBox="0 0 16 14" fill="none" xmlns="http://www.w3.org/2000/svg">
<path d="M15.7455 1.89493C15.39 2.05257 15.021 2.17693 14.6423 2.26697C15.0596 1.87047 15.3733 1.37454 15.5503 0.820998C15.6008 0.66297 15.4292 0.526319 15.2865 0.610931C14.7597 0.923398 14.1922 1.15781 13.5999 1.30772C13.5655 1.31642 13.5301 1.32083 13.4945 1.32083C13.3866 1.32083 13.2817 1.28077 13.1992 1.20805C12.5689 0.652593 11.7584 0.34668 10.9168 0.34668C10.5526 0.34668 10.185 0.403439 9.82398 0.515396C8.70549 0.862309 7.84248 1.78493 7.57172 2.92323C7.47014 3.35019 7.44264 3.77754 7.48992 4.19338C7.49534 4.24117 7.47275 4.27452 7.45883 4.29016C7.43437 4.31759 7.39969 4.33331 7.36368 4.33331C7.35966 4.33331 7.35553 4.33311 7.35143 4.33272C4.90311 4.10526 2.69532 2.92572 1.13474 1.01144C1.05516 0.913802 0.902552 0.925778 0.839123 1.03458C0.533521 1.55887 0.372021 2.15852 0.372021 2.76871C0.372021 3.70385 0.747723 4.58512 1.40032 5.22757C1.12588 5.1625 0.860266 5.06002 0.61353 4.92298C0.49416 4.85666 0.347289 4.9419 0.345612 5.07843C0.328526 6.46764 1.14188 7.70378 2.3603 8.26041C2.33577 8.26099 2.31123 8.26127 2.28665 8.26127C2.09352 8.26127 1.89796 8.24262 1.70549 8.20583C1.57106 8.18017 1.45813 8.30769 1.49987 8.43802C1.89535 9.67272 2.95844 10.5828 4.23062 10.7894C3.17479 11.4982 1.94524 11.8721 0.66553 11.8721L0.266578 11.8718C0.143659 11.8718 0.0396982 11.952 0.00837342 12.071C-0.0224832 12.1883 0.0343538 12.312 0.139173 12.373C1.5812 13.2122 3.22604 13.6557 4.89659 13.6557C6.35887 13.6557 7.7267 13.3655 8.96214 12.7933C10.0947 12.2686 11.0955 11.5187 11.9368 10.5642C12.7205 9.67509 13.3334 8.64871 13.7583 7.51361C14.1633 6.4316 14.3774 5.27707 14.3774 4.17481V4.12231C14.3773 3.94532 14.4574 3.77879 14.597 3.66542C15.127 3.23515 15.5885 2.72865 15.9686 2.16C16.069 2.00986 15.9107 1.82167 15.7455 1.89493Z" fill="#76A9EA"/>
</svg>
