<svg width="16" height="16" viewBox="0 0 16 16" fill="none" xmlns="http://www.w3.org/2000/svg">
<path d="M15.7745 2.40973H15.7743H9.48419C9.42056 2.40973 9.35991 2.43657 9.31716 2.48366C9.27441 2.53079 9.25347 2.59366 9.25959 2.65707L9.38225 3.92873C9.39297 4.03973 9.48312 4.12623 9.5945 4.13235L10.9086 4.20466L8.38556 7.70538L5.63416 2.22382L7.6205 2.14788C7.74062 2.14332 7.836 2.04551 7.83753 1.92535L7.85203 0.788102C7.85272 0.727727 7.82934 0.669602 7.78697 0.626664C7.74459 0.583789 7.68678 0.55957 7.62644 0.55957H0.225625C0.100969 0.55957 0 0.660539 0 0.785227V2.05266C0 2.17601 0.0990625 2.27651 0.222344 2.27829L2.3135 2.30841L6.29028 9.32366L6.27253 13.7051L3.50753 13.8185C3.38825 13.8234 3.29347 13.9204 3.29119 14.0397L3.26881 15.2118C3.26766 15.2724 3.29097 15.3308 3.33347 15.3741C3.37584 15.4174 3.43384 15.4417 3.49444 15.4417H12.1433C12.2052 15.4417 12.2643 15.4163 12.307 15.3714C12.3496 15.3265 12.3719 15.2661 12.3687 15.2043L12.3083 14.0439C12.3023 13.9286 12.2101 13.8364 12.0947 13.8304L9.71578 13.7056L9.36947 9.43782L13.64 4.2922L15.3787 4.21313C15.4744 4.2087 15.557 4.14432 15.5846 4.05254L15.988 2.70823C15.9957 2.68545 16 2.66085 16 2.63535C16 2.51079 15.8991 2.40973 15.7745 2.40973Z" fill="#7F40BD"/>
</svg>
