<svg width="156" height="54" viewBox="0 0 156 54" fill="none" xmlns="http://www.w3.org/2000/svg">
<g clip-path="url(#clip0)">
<path fill-rule="evenodd" clip-rule="evenodd" d="M55.9951 4.99512C70.6617 4.99512 85.3285 4.99512 99.9951 4.99512C99.9951 19.6617 99.9951 34.3285 99.9951 48.9951C85.3285 48.9951 70.6617 48.9951 55.9951 48.9951C55.9951 34.3285 55.9951 19.6617 55.9951 4.99512Z" fill="#02BC8B"/>
<path fill-rule="evenodd" clip-rule="evenodd" d="M68.6545 21.9367C69.0259 21.935 69.3974 21.9367 69.7689 21.9415C69.8342 21.9612 69.8814 22.002 69.9106 22.0637C69.9236 23.5492 69.9301 25.0351 69.9302 26.5214C69.9512 26.5404 69.9756 26.5453 70.0035 26.5361C70.6395 25.9001 71.2814 25.2712 71.9293 24.6494C71.9464 24.6448 71.9626 24.6382 71.9782 24.6298C72.3985 24.6233 72.8189 24.6233 73.2392 24.6298C73.4096 24.6921 73.4536 24.8045 73.3712 24.9671C72.7619 25.5634 72.1525 26.1597 71.5432 26.756C71.5415 26.7626 71.5399 26.769 71.5383 26.7756C72.2355 27.8636 72.9377 28.9487 73.6449 30.0309C73.7122 30.1746 73.6747 30.2804 73.5325 30.3486C73.1154 30.3551 72.6983 30.3551 72.2812 30.3486C72.2252 30.3252 72.1812 30.2877 72.1493 30.2361C71.6311 29.4248 71.113 28.6134 70.5949 27.802C70.5749 27.7638 70.5472 27.7557 70.5118 27.7776C70.3209 27.9717 70.1271 28.1624 69.9302 28.3495C69.927 28.9588 69.9236 29.5682 69.9204 30.1775C69.9046 30.265 69.854 30.3221 69.7689 30.3486C69.3974 30.3551 69.0259 30.3551 68.6545 30.3486C68.5792 30.3189 68.532 30.2652 68.5127 30.1873C68.5062 27.486 68.5062 24.7846 68.5127 22.0833C68.5422 22.0163 68.5895 21.9675 68.6545 21.9367Z" fill="#FEFEFE"/>
<path fill-rule="evenodd" clip-rule="evenodd" d="M78.4503 21.9367C78.8348 21.935 79.2194 21.9367 79.6039 21.9415C79.6727 21.96 79.7167 22.004 79.7358 22.0735C79.7391 23.5724 79.7424 25.0714 79.7456 26.5703C79.7527 26.5796 79.7608 26.5812 79.7701 26.5752C80.4218 25.9365 81.0734 25.2978 81.7252 24.6592C81.7447 24.6494 81.7643 24.6396 81.7838 24.6298C82.227 24.6233 82.6702 24.6233 83.1133 24.6298C83.2683 24.6917 83.3025 24.7944 83.216 24.9378C82.6001 25.5406 81.9842 26.1434 81.3684 26.7463C81.7831 27.648 82.311 28.4756 82.952 29.2293C84.7619 31.2818 86.9369 31.7886 89.4772 30.7494C89.9206 30.5555 90.3409 30.3241 90.7383 30.0553C90.5819 29.8765 90.4792 29.6697 90.4304 29.4345C90.4069 29.3083 90.3907 29.1813 90.3815 29.0533C90.3749 26.7495 90.3749 24.4458 90.3815 22.1419C90.4091 22.0361 90.476 21.9692 90.5819 21.9415C90.9208 21.935 91.2596 21.935 91.5985 21.9415C91.7002 21.9683 91.7671 22.0319 91.7989 22.1322C91.799 24.4557 91.8056 26.779 91.8185 29.1022C91.8475 29.2778 91.9502 29.3772 92.1264 29.4003C92.2014 29.4069 92.2763 29.4069 92.3513 29.4003C92.4775 29.3781 92.6029 29.3537 92.7276 29.327C92.8549 29.3271 92.9429 29.3858 92.9916 29.503C93.0249 29.6373 93.0608 29.7709 93.0991 29.9038C93.1152 30.0184 93.0777 30.1113 92.9867 30.1824C92.6885 30.3465 92.3691 30.441 92.0287 30.4659C90.8719 31.4009 89.5587 32.0135 88.0891 32.3037C86.247 32.6252 84.5916 32.2146 83.1231 31.072C82.4225 30.5083 81.818 29.8582 81.3097 29.1217C80.9903 28.659 80.6954 28.18 80.425 27.6847C80.2033 27.9081 79.9768 28.1264 79.7456 28.3397C79.7424 28.9653 79.7391 29.591 79.7358 30.2166C79.7167 30.2861 79.6727 30.3301 79.6039 30.3486C79.2194 30.3551 78.8348 30.3551 78.4503 30.3486C78.3858 30.3265 78.3452 30.2825 78.3282 30.2166C78.3216 27.499 78.3216 24.7814 78.3282 22.0637C78.3511 22.0033 78.3919 21.9609 78.4503 21.9367Z" fill="#FEFEFE"/>
<path fill-rule="evenodd" clip-rule="evenodd" d="M65.4097 22.4157C65.8773 22.3895 66.1723 22.6013 66.2944 23.0512C66.3203 23.5204 66.1036 23.8023 65.6443 23.8967C65.3114 23.9347 65.0523 23.8158 64.8671 23.5399C64.694 23.1922 64.7445 22.881 65.0186 22.6064C65.1335 22.5101 65.2639 22.4465 65.4097 22.4157Z" fill="#FEFEFE"/>
<path fill-rule="evenodd" clip-rule="evenodd" d="M65.2824 24.5178C65.7555 24.489 66.2117 24.5623 66.651 24.7378C67.2584 25.0258 67.6739 25.4869 67.8974 26.121C68.0291 26.5039 68.1009 26.8982 68.1125 27.3039C68.119 27.4668 68.119 27.6297 68.1125 27.7927C68.0917 27.9048 68.0281 27.9813 67.9219 28.0224C66.7296 28.0354 65.537 28.0418 64.344 28.0419C64.2689 28.0699 64.2347 28.1237 64.2413 28.2032C64.3885 28.8295 64.7811 29.1733 65.4193 29.2346C66.0427 29.2897 66.5706 29.0942 67.003 28.648C67.1312 28.5724 67.2551 28.5789 67.3744 28.6676C67.5162 28.8028 67.6579 28.9381 67.7997 29.0733C67.8857 29.1837 67.8955 29.301 67.829 29.4252C67.5261 29.8122 67.1432 30.0908 66.6804 30.261C66.2062 30.4327 65.7175 30.4979 65.214 30.4565C63.887 30.3254 63.0871 29.6069 62.8141 28.301C62.7093 27.7188 62.719 27.1389 62.8434 26.5609C63.174 25.3033 63.987 24.6222 65.2824 24.5178Z" fill="#FEFEFE"/>
<path fill-rule="evenodd" clip-rule="evenodd" d="M75.6343 24.5172C76.1508 24.4834 76.6396 24.5827 77.1006 24.8153C77.3372 24.9476 77.5376 25.1219 77.7018 25.3383C77.7531 25.4431 77.7417 25.5409 77.6676 25.6316C77.4788 25.7781 77.2866 25.9199 77.0909 26.0568C76.9992 26.0856 76.9145 26.0726 76.8367 26.0177C76.6191 25.7884 76.3518 25.658 76.0351 25.6267C75.8623 25.6096 75.6928 25.6259 75.5268 25.6756C75.217 25.7936 75.1306 26.0037 75.2677 26.3061C75.3279 26.376 75.3979 26.433 75.4779 26.4772C75.5794 26.5344 75.6837 26.5866 75.7907 26.6336C76.071 26.7477 76.3511 26.8616 76.6314 26.9757C76.9596 27.1154 77.2626 27.2946 77.5405 27.5134C77.8222 27.7754 77.9737 28.0996 77.9951 28.486C78.0095 29.3675 77.6071 29.9687 76.7878 30.2896C76.2712 30.4614 75.7433 30.5071 75.2042 30.4265C74.7434 30.3493 74.3393 30.157 73.992 29.8497C73.8796 29.7437 73.7899 29.6215 73.7232 29.4832C73.6946 29.3725 73.7256 29.283 73.816 29.2143C74.01 29.0864 74.2023 28.9561 74.3928 28.8233C74.4953 28.7818 74.5899 28.7948 74.6763 28.8624C75.0117 29.2516 75.4354 29.4112 75.9471 29.3414C76.2244 29.292 76.4216 29.1404 76.5385 28.8868C76.63 28.6466 76.5795 28.4429 76.387 28.2759C76.2527 28.1826 76.1094 28.1044 75.9569 28.0413C75.6784 27.931 75.4013 27.817 75.126 27.6991C74.7999 27.5526 74.5001 27.3668 74.2266 27.1419C73.8338 26.7391 73.7018 26.2616 73.8307 25.7098C73.9511 25.3221 74.1874 25.0272 74.5394 24.8251C74.8821 24.64 75.247 24.5374 75.6343 24.5172Z" fill="#FEFEFE"/>
<path fill-rule="evenodd" clip-rule="evenodd" d="M84.2467 24.6242C84.5693 24.6225 84.8919 24.6242 85.2145 24.629C85.323 24.6466 85.3963 24.707 85.4345 24.8099C85.4475 25.9042 85.4539 26.999 85.454 28.0945C85.4587 28.3769 85.5239 28.6442 85.6495 28.8961C85.8303 29.1657 86.0844 29.2928 86.412 29.2773C86.8079 29.2781 87.1339 29.1283 87.3896 28.8277C87.6407 28.5111 87.7678 28.1494 87.7708 27.7426C87.7741 26.7716 87.7774 25.8005 87.7806 24.8294C87.8102 24.7151 87.8835 24.6483 88.0006 24.629C88.3232 24.6225 88.6457 24.6225 88.9683 24.629C89.0818 24.6611 89.1519 24.7344 89.1785 24.849C89.1817 26.3121 89.1851 27.7751 89.1883 29.2382C89.204 29.5108 89.2251 29.7828 89.2518 30.0545C89.2588 30.2039 89.1903 30.2984 89.0465 30.338C88.7305 30.3446 88.4144 30.3446 88.0983 30.338C88.0231 30.3084 87.9661 30.2579 87.9272 30.1865C87.8852 29.9699 87.8559 29.7516 87.8393 29.5315C87.7175 29.6762 87.5919 29.8179 87.4629 29.9568C87.2032 30.1902 86.9001 30.3402 86.5538 30.4064C86.0864 30.5055 85.6302 30.4696 85.1852 30.2989C84.8354 30.148 84.5699 29.9051 84.3885 29.5706C84.1797 29.1524 84.0656 28.7093 84.0463 28.2411C84.0303 27.1073 84.0271 25.9733 84.0366 24.8392C84.0693 24.7299 84.1394 24.6582 84.2467 24.6242Z" fill="#FEFEFE"/>
<path fill-rule="evenodd" clip-rule="evenodd" d="M65.3312 25.7001C65.6102 25.6833 65.8774 25.7306 66.1328 25.8418C66.3629 25.9612 66.5242 26.142 66.6167 26.3843C66.6837 26.5544 66.7163 26.7304 66.7145 26.9122C66.6962 26.9596 66.662 26.9873 66.6118 26.9953C65.8461 27.0019 65.0803 27.0019 64.3145 26.9953C64.2577 26.9678 64.2284 26.9221 64.2266 26.8585C64.2873 26.499 64.4502 26.196 64.7153 25.9493C64.8968 25.8064 65.1021 25.7233 65.3312 25.7001Z" fill="#04BC8B"/>
</g>
<defs>
<clipPath id="clip0">
<rect width="44" height="44" fill="white" transform="translate(56 5)"/>
</clipPath>
</defs>
</svg>
