<svg width="156" height="54" viewBox="0 0 156 54" fill="none" xmlns="http://www.w3.org/2000/svg">
<path d="M76.6589 11.0237C75.4437 11.0349 74.4469 11.0469 74.4427 11.0503C74.4375 11.0554 74.4495 12.6108 74.4555 12.616C74.4572 12.6177 74.8426 12.6151 75.3136 12.6108C75.7837 12.6065 76.1708 12.604 76.1725 12.6065C76.1751 12.6082 76.2025 15.4172 76.2342 18.8487C76.265 22.2793 76.2932 25.0882 76.2958 25.0908C76.2992 25.0942 77.9751 25.0796 77.9794 25.0754C77.9803 25.0745 77.9563 22.2767 77.9263 18.8581C77.8955 15.4386 77.8706 12.6297 77.8706 12.6151V12.5877L78.6225 12.5825C79.0353 12.58 79.4052 12.5748 79.4446 12.5722L79.5149 12.5671V12.3124C79.5149 12.1718 79.5123 11.8194 79.5089 11.5287L79.5037 10.9997L79.186 11.0006C79.0113 11.0014 77.8741 11.0117 76.6589 11.0237Z" fill="black"/>
<path d="M86.4725 11.5277C85.9518 11.5594 85.4937 11.7387 85.0638 12.0791C84.937 12.1785 84.723 12.3972 84.6305 12.5206C84.3975 12.8319 84.2554 13.1568 84.1775 13.5538C84.1432 13.7245 82.2849 25.1112 82.29 25.1155C82.2969 25.1215 83.9505 25.389 83.9548 25.3856C83.9565 25.383 84.3821 22.7807 84.9011 19.603C85.4192 16.4245 85.8491 13.8034 85.8559 13.7776C85.8739 13.709 85.9321 13.5933 85.9809 13.5273C86.088 13.3832 86.2772 13.2546 86.4485 13.21C86.6806 13.15 86.9538 13.2074 87.1542 13.3583C87.2989 13.4672 87.4316 13.6567 87.4796 13.8214C87.4924 13.8668 87.4984 13.9157 87.501 13.9997L87.5044 14.1155L86.5598 19.886C85.7403 24.8908 85.617 25.6574 85.629 25.6625C85.6547 25.6745 87.2758 25.9361 87.2818 25.9292C87.2852 25.9258 87.7125 23.32 88.2306 20.1389C88.8112 16.578 89.1803 14.3341 89.1914 14.2998C89.2796 14.0349 89.4997 13.8239 89.7609 13.7545C89.8089 13.7416 89.8517 13.7382 89.9707 13.7382C90.1463 13.7382 90.2139 13.7519 90.3432 13.8154C90.4811 13.8822 90.5727 13.9646 90.6626 14.1017C90.7594 14.2492 90.7979 14.3787 90.7962 14.5485C90.7945 14.6471 90.7175 15.1307 89.8525 20.4262C89.3344 23.5996 88.9123 26.1984 88.914 26.2002C88.9208 26.2079 90.5659 26.4737 90.5719 26.4677C90.5779 26.4625 92.4559 14.9832 92.4713 14.8571C92.4764 14.8168 92.4824 14.7208 92.4858 14.6428C92.5098 13.9808 92.2495 13.3395 91.7485 12.8259C91.4197 12.4898 91.0531 12.2771 90.5984 12.1597C90.1317 12.0396 89.7541 12.0568 89.2771 12.2205C88.9576 12.3303 88.7059 12.5009 88.5766 12.6947L88.5457 12.741L88.5192 12.6604C88.4618 12.4906 88.3762 12.3603 88.2195 12.2025C88.0987 12.0808 88.0379 12.0302 87.894 11.9307C87.5875 11.7206 87.2895 11.6006 86.9521 11.5526C86.7902 11.5286 86.6044 11.5191 86.4725 11.5277Z" fill="black"/>
<path d="M67.3243 11.5995C67.1839 11.6081 66.9638 11.6415 66.8311 11.6758C66.3969 11.7856 66.0407 11.9879 65.7315 12.2992C65.3376 12.6944 65.0875 13.1849 65.0036 13.7251C64.9831 13.8571 64.9779 14.1795 64.9933 14.3253C65.0053 14.4316 66.7883 26.0902 66.7943 26.0962C66.7968 26.0996 68.4085 25.8509 68.4427 25.8424L68.4641 25.8364L68.0942 23.427C67.8904 22.1014 67.7225 21.0021 67.7208 20.9833L67.7183 20.9498L68.5147 20.8281C68.9531 20.7612 69.3137 20.7089 69.3162 20.7123C69.3188 20.7149 69.4901 21.8133 69.6956 23.1517C69.9011 24.491 70.0715 25.5886 70.0741 25.5911C70.0792 25.5963 71.7234 25.3425 71.7329 25.3348C71.7406 25.3279 69.9799 13.8065 69.9414 13.6093C69.8463 13.13 69.6399 12.7296 69.3094 12.3866C68.9625 12.0265 68.4941 11.7581 68.0343 11.6544C67.899 11.6244 67.7868 11.6089 67.6318 11.5986C67.4845 11.5892 67.4879 11.5892 67.3243 11.5995ZM67.6994 13.2741C67.8313 13.3135 67.9349 13.3735 68.0385 13.4721C68.1456 13.5742 68.2175 13.6934 68.2578 13.8348C68.2766 13.9017 69.0756 19.0772 69.0756 19.1329C69.0756 19.1441 69.0704 19.1526 69.0645 19.1526C69.0585 19.1526 68.6996 19.2067 68.2663 19.2727C67.833 19.3379 67.4785 19.391 67.4768 19.3902C67.4759 19.3893 67.2952 18.2172 67.0751 16.7861C66.6812 14.2275 66.6744 14.1812 66.6744 14.0552C66.6744 13.9111 66.6872 13.846 66.742 13.7277C66.8508 13.4919 67.046 13.3255 67.2781 13.2715C67.3826 13.2466 67.3911 13.2458 67.5127 13.2492C67.6018 13.2518 67.6395 13.2561 67.6994 13.2741Z" fill="black"/>
<path d="M59.6859 13.3624C59.3451 13.4653 57.4928 14.0209 56.0875 14.4428C55.9026 14.4977 55.751 14.5465 55.751 14.5508C55.751 14.5645 59.769 28.0065 59.7741 28.0117C59.7776 28.0151 60.7589 27.7236 61.9553 27.3635C63.8941 26.7813 64.1304 26.7084 64.1287 26.6938C64.1261 26.6749 63.6894 25.213 63.6843 25.2079C63.6825 25.2062 63.6474 25.2147 63.6063 25.2267C63.5644 25.2387 63.0934 25.3802 62.559 25.5406C62.0246 25.7 61.4432 25.8741 61.2668 25.9273C61.0912 25.9796 60.9439 26.0199 60.9414 26.0156C60.9379 26.0121 60.9234 25.9684 60.9088 25.9187C60.8771 25.8132 59.8786 22.4701 59.656 21.7258C59.572 21.4454 59.5035 21.2148 59.5044 21.2139C59.5052 21.2139 60.1192 21.0287 60.8677 20.8032C61.617 20.5786 62.2319 20.3917 62.2362 20.3891C62.2404 20.3848 61.8028 18.8937 61.7934 18.8817C61.7926 18.8809 61.1777 19.0652 60.4267 19.2907C59.6757 19.5162 59.0582 19.6989 59.0548 19.6954C59.0522 19.692 58.7739 18.7668 58.4365 17.6402C58.0991 16.5126 57.8208 15.5849 57.8191 15.578C57.8165 15.5686 57.8311 15.56 57.8773 15.5463C57.9107 15.536 58.2935 15.422 58.7268 15.2916C60.341 14.8089 60.55 14.7455 60.5543 14.742C60.556 14.7394 60.4601 14.4128 60.341 14.0158C60.222 13.6179 60.121 13.2801 60.1167 13.2647C60.1124 13.2501 60.1064 13.2372 60.103 13.2381C60.0996 13.2381 59.912 13.2947 59.6859 13.3624Z" fill="black"/>
<path d="M97.642 14.1311C97.6138 14.2186 95.2614 21.5968 94.733 23.2525C94.6148 23.623 94.268 24.7085 93.9631 25.6662C93.6574 26.6231 93.4073 27.4077 93.4082 27.4085C93.4108 27.4128 94.9993 27.917 95.0096 27.917C95.0164 27.917 95.7752 25.5505 97.1531 21.2307C98.3263 17.554 99.2854 14.5444 99.2845 14.5436C99.2802 14.5384 97.6934 14.0351 97.6831 14.0351C97.6771 14.0351 97.6592 14.0763 97.642 14.1311Z" fill="black"/>
<path d="M104.829 16.8449C104.572 16.8629 104.313 16.9212 104.074 17.0138C103.501 17.235 103.067 17.614 102.775 18.1464C102.74 18.2108 97.9397 28.7606 97.8789 28.9081C97.8746 28.9176 99.357 29.6001 99.3852 29.6009C99.3972 29.6018 99.8905 28.5223 101.826 24.26C103.16 21.3215 104.266 18.8958 104.284 18.8684C104.364 18.7492 104.463 18.6661 104.607 18.5975C104.749 18.5297 104.815 18.5151 104.979 18.516C105.102 18.5169 105.124 18.5186 105.193 18.54C105.351 18.588 105.475 18.6601 105.566 18.7561C105.769 18.9704 105.853 19.2937 105.775 19.5595C105.762 19.6092 104.91 21.4913 103.334 24.9648C102.003 27.8955 100.917 30.2972 100.922 30.3015C100.929 30.3092 102.438 30.9951 102.448 30.9951C102.453 30.9951 107.194 20.5627 107.287 20.3466C107.331 20.2437 107.39 20.0662 107.419 19.9514C107.462 19.7721 107.477 19.6573 107.481 19.4566C107.489 19.1334 107.454 18.9044 107.347 18.5863C107.211 18.1859 107.027 17.8815 106.747 17.6011C106.52 17.3722 106.289 17.2127 105.985 17.0738C105.61 16.9023 105.189 16.8191 104.829 16.8449Z" fill="black"/>
<path d="M49.6922 17.0784C49.4867 17.1015 49.2418 17.1615 49.0525 17.2353C48.9823 17.2627 46.6282 18.3405 46.6162 18.3508C46.6136 18.3534 52.4805 31.118 52.4865 31.124C52.4908 31.1274 53.998 30.4389 54.0194 30.4235C54.0211 30.4226 53.4345 29.1416 52.7152 27.5777C51.9967 26.0128 51.4101 24.7318 51.411 24.7301C51.4127 24.7293 51.6028 24.6409 51.8331 24.5338C52.2836 24.3254 52.3358 24.3065 52.4968 24.2894C52.6467 24.2748 52.77 24.2963 52.8907 24.3588C53.0166 24.424 53.1262 24.5363 53.2093 24.6855C53.2316 24.725 53.7625 25.8739 54.3894 27.239C55.0171 28.604 55.5309 29.7221 55.5317 29.723C55.536 29.7281 57.0269 29.0362 57.0269 29.0293C57.0269 29.0181 54.7953 24.1676 54.7396 24.057C54.6086 23.7998 54.4193 23.5726 54.2087 23.4208C54.1102 23.3505 53.9184 23.2536 53.8028 23.2176C53.6178 23.1593 53.4371 23.1319 53.2324 23.1319H53.0945L53.1733 23.0487C53.4405 22.7657 53.5698 22.397 53.5707 21.9186C53.5715 21.6674 53.5381 21.4753 53.4619 21.2755C53.4123 21.1478 52.1748 18.4623 52.1183 18.3602C51.995 18.1373 51.8734 17.9778 51.6884 17.7943C51.4478 17.5551 51.184 17.387 50.8449 17.2541C50.6419 17.1753 50.4518 17.1229 50.2446 17.0912C50.1393 17.0749 49.7976 17.0672 49.6922 17.0784ZM50.1435 18.7486C50.3516 18.8044 50.5238 18.9236 50.6325 19.089C50.6676 19.1414 51.8691 21.7437 51.9342 21.9066C52.0104 22.0978 52.0173 22.3096 51.9522 22.4656C51.8965 22.5994 51.7732 22.74 51.6268 22.8378C51.5737 22.8729 51.4272 22.9449 51.1455 23.0744C50.9228 23.1764 50.7379 23.2605 50.7344 23.2605C50.7301 23.2605 48.9155 19.318 48.8513 19.1696L48.8419 19.1465L49.211 18.9767C49.6717 18.7658 49.6837 18.7607 49.7736 18.7409C49.8712 18.7195 50.0476 18.7229 50.1435 18.7486Z" fill="black"/>
<path d="M108.915 26.5318C106.813 29.7737 105.093 32.4284 105.092 32.4318C105.09 32.4387 107.15 33.7805 107.312 33.8791C107.67 34.0961 108.013 34.2144 108.395 34.253C108.539 34.2684 108.833 34.2598 108.986 34.2358C109.508 34.1561 109.958 33.9263 110.31 33.561C110.413 33.4539 110.505 33.3424 110.585 33.2241C110.657 33.1195 115.57 25.5406 115.641 25.424C115.791 25.1805 115.907 24.8907 115.961 24.624C115.995 24.4508 116 24.3925 116 24.1481C115.999 23.8892 115.99 23.7983 115.94 23.5736C115.91 23.4399 115.83 23.1972 115.771 23.0677C115.599 22.6853 115.319 22.3466 114.968 22.0946C114.924 22.0628 114.413 21.7276 113.833 21.3512C113.255 20.9739 112.771 20.6592 112.759 20.6515L112.736 20.6369L108.915 26.5318ZM113.647 23.2024C113.959 23.4073 114.042 23.4656 114.095 23.5179C114.328 23.7494 114.396 24.1353 114.257 24.4422C114.244 24.4714 113.103 26.2385 111.722 28.3693L109.21 32.2423L109.129 32.3238C109.008 32.4438 108.897 32.5012 108.716 32.5381C108.641 32.5536 108.608 32.5561 108.507 32.5527C108.369 32.5475 108.318 32.5355 108.207 32.4824C108.11 32.4361 107.41 31.9765 107.413 31.9619C107.418 31.9448 113.25 22.952 113.257 22.952C113.261 22.952 113.436 23.0652 113.647 23.2024Z" fill="black"/>
<path d="M41.3129 21.6376C41.2915 21.6393 41.2324 21.6462 41.1802 21.6539C40.5302 21.7448 39.9008 22.1178 39.4975 22.6537C39.0444 23.2539 38.8809 24.1302 39.0898 24.841C39.1463 25.0339 39.2268 25.2226 39.3236 25.3915C39.4015 25.5278 44.46 33.2996 44.5448 33.4128C44.6476 33.5508 44.8642 33.772 44.991 33.8681C45.3566 34.1459 45.7437 34.2959 46.2712 34.3662C46.3971 34.3834 46.7653 34.38 46.8921 34.362C47.4616 34.2771 47.9874 34.0078 48.3864 33.5963C48.7547 33.2164 48.9645 32.7714 49.0518 32.1824C49.0732 32.0349 49.0732 31.6576 49.0518 31.5178C48.9979 31.1757 48.896 30.8928 48.7187 30.5935C48.6219 30.4315 46.732 27.5351 46.7242 27.5376C46.696 27.5453 44.645 28.8915 44.6484 28.9001C44.6501 28.9061 44.842 29.2019 45.0732 29.5586C45.3421 29.9719 45.4988 30.2051 45.5056 30.2025C45.5116 30.2 45.6632 30.1031 45.8431 29.9865C46.0229 29.8707 46.171 29.7764 46.1728 29.7781C46.1959 29.8021 47.3083 31.5281 47.3263 31.5676C47.3811 31.6893 47.4033 31.8454 47.3854 31.9826C47.3442 32.2921 47.1927 32.5099 46.9263 32.6428C46.8082 32.702 46.7028 32.7268 46.5701 32.7268C46.3081 32.7268 46.0563 32.6111 45.9176 32.4267C45.8465 32.3324 40.7914 24.5555 40.7563 24.4869C40.6895 24.354 40.6638 24.2125 40.6792 24.0582C40.7049 23.8104 40.8154 23.6106 41.0064 23.4657C41.1399 23.3653 41.2881 23.3079 41.4405 23.2985C41.7017 23.2813 41.974 23.3894 42.1265 23.5711C42.153 23.602 42.6591 24.3737 43.2517 25.2851C43.8443 26.1975 44.3324 26.9469 44.3367 26.9511C44.3401 26.9554 44.6613 26.7514 45.0501 26.4984L45.7566 26.0371L45.7112 25.9677C45.4971 25.635 43.6671 22.8226 43.6157 22.7454C43.2354 22.1761 42.6985 21.8194 42.0194 21.6839C41.7993 21.6393 41.5236 21.6213 41.3129 21.6376Z" fill="black"/>
<path d="M86.2796 38.1248C86.1819 38.1608 86.1126 38.2216 86.0715 38.3089C86.0475 38.3594 86.0449 38.3723 86.0449 38.4459C86.0458 38.5581 86.0663 38.6103 86.1425 38.6866C86.2196 38.7636 86.271 38.7842 86.3875 38.7842C86.4654 38.7842 86.4782 38.7816 86.5288 38.7576C86.724 38.6651 86.7874 38.4142 86.6589 38.2447C86.6195 38.1924 86.5485 38.1419 86.4911 38.1248C86.4397 38.1094 86.3215 38.1094 86.2796 38.1248Z" fill="black"/>
<path d="M95.2749 38.1247C95.1524 38.165 95.0633 38.2695 95.0402 38.4022C95.0231 38.4998 95.0608 38.6128 95.137 38.6891C95.2526 38.8047 95.441 38.8227 95.5763 38.7293C95.6808 38.6574 95.7407 38.5161 95.7176 38.3962C95.6962 38.2849 95.6277 38.1924 95.5309 38.1453C95.4812 38.1204 95.465 38.117 95.393 38.1153C95.3408 38.1136 95.298 38.117 95.2749 38.1247Z" fill="black"/>
<path d="M92.3586 38.8881L92.356 39.6392L92.3269 39.598C92.285 39.5406 92.1839 39.4411 92.1188 39.3948C92.0409 39.3391 91.9167 39.2808 91.8165 39.2542C91.7377 39.2328 91.718 39.231 91.5596 39.231C91.4021 39.2302 91.3815 39.2328 91.2984 39.2533C91.1383 39.2936 91.0244 39.3442 90.8917 39.4351C90.7983 39.4986 90.6613 39.634 90.5937 39.7292C90.2956 40.1485 90.2485 40.753 90.4763 41.2297C90.6467 41.5881 90.9525 41.8325 91.3327 41.9148C91.4346 41.9371 91.6752 41.9371 91.778 41.9157C91.9707 41.8745 92.1634 41.7605 92.2781 41.6207C92.3201 41.5684 92.3226 41.5667 92.362 41.5667H92.4023L92.4211 41.6284C92.4314 41.6627 92.4537 41.739 92.4708 41.7982L92.5025 41.9054L92.6583 41.908L92.8142 41.9097V40.0233V38.137H92.5873H92.3603L92.3586 38.8881ZM91.7729 39.6838C91.9064 39.7206 91.9921 39.7695 92.094 39.8664C92.2576 40.0216 92.3458 40.2394 92.3577 40.5206C92.3766 40.9485 92.2164 41.27 91.9073 41.4252C91.8071 41.4749 91.7318 41.4921 91.6024 41.493C91.468 41.493 91.4089 41.4801 91.2856 41.4218C91.1417 41.3532 91.0347 41.2554 90.9448 41.1114C90.7812 40.8482 90.7581 40.4606 90.8865 40.1596C90.9936 39.9118 91.2042 39.7335 91.4569 39.6769C91.5314 39.6598 91.7001 39.664 91.7729 39.6838Z" fill="black"/>
<path d="M98.3206 38.8886L98.3197 39.6414L98.2966 39.6114C98.2538 39.5548 98.145 39.4468 98.0893 39.4039C98.014 39.3456 97.8795 39.2822 97.7768 39.2539C97.698 39.2333 97.6774 39.2307 97.5241 39.2307C97.3931 39.2299 97.3417 39.2333 97.2861 39.2453C96.8039 39.3516 96.4366 39.7349 96.327 40.2468C96.1874 40.8942 96.464 41.5441 96.9906 41.8099C97.1473 41.8888 97.2912 41.9248 97.4736 41.9325C97.7956 41.9454 98.0388 41.8442 98.2452 41.611C98.282 41.5698 98.2872 41.5664 98.3231 41.5664H98.3608L98.4113 41.7379L98.4618 41.9094H98.6186H98.7744V40.023V38.1366H98.5475H98.3206V38.8886ZM97.6886 39.6749C97.9215 39.7195 98.109 39.8678 98.2178 40.0916C98.288 40.2374 98.3146 40.3711 98.3154 40.576C98.3154 40.7355 98.3026 40.8273 98.264 40.9499C98.1638 41.268 97.9129 41.4729 97.5969 41.4944C97.3049 41.5141 97.0112 41.334 96.8656 41.0451C96.7466 40.8093 96.7294 40.4629 96.8245 40.2116C96.917 39.9656 97.1011 39.7778 97.3229 39.7015C97.4342 39.6637 97.5755 39.6534 97.6886 39.6749Z" fill="black"/>
<path d="M79.9418 38.7478L79.9392 39.0419L79.9127 39.0976C79.881 39.1654 79.845 39.2074 79.7911 39.2417C79.726 39.2837 79.672 39.2948 79.5436 39.2948H79.4297V39.4706V39.6464H79.6609H79.8913L79.8938 40.4669L79.8964 41.2884L79.9204 41.3741C79.9957 41.6511 80.161 41.8311 80.4102 41.9066C80.4796 41.928 80.501 41.9297 80.6243 41.9306C80.7673 41.9314 80.8033 41.9254 80.9146 41.8843C80.978 41.8603 81.0953 41.7805 81.0944 41.7625C81.0936 41.7548 81.0499 41.6794 80.9968 41.5945L80.9009 41.441L80.8538 41.4684C80.7913 41.507 80.7091 41.5216 80.6329 41.5087C80.4941 41.4856 80.4128 41.4067 80.37 41.2532C80.3511 41.1863 80.3511 41.1803 80.3477 40.4164L80.3451 39.6464L80.6646 39.6447L80.984 39.6421L80.9865 39.4466L80.9883 39.252H80.6671H80.346V38.8533V38.4545H80.1447H79.9444L79.9418 38.7478Z" fill="black"/>
<path d="M71.342 39.0589C71.289 39.1395 71.1417 39.2664 71.0286 39.3282L70.967 39.3616L70.901 39.329C70.7503 39.2527 70.6107 39.2227 70.412 39.2227C70.2553 39.2219 70.1843 39.2321 70.0609 39.2707C69.6662 39.3968 69.4272 39.7192 69.4272 40.1264C69.4272 40.2799 69.4572 40.4103 69.5214 40.538C69.5531 40.6006 69.6071 40.6829 69.6276 40.7001C69.649 40.7181 69.6447 40.7232 69.5925 40.7532C69.5651 40.7687 69.5103 40.8141 69.4701 40.8544C69.3596 40.9659 69.3159 41.0688 69.3159 41.2197C69.3159 41.3552 69.351 41.4452 69.4349 41.5301C69.4829 41.5772 69.5694 41.6338 69.6268 41.6535C69.6439 41.6595 69.6584 41.6673 69.6584 41.6698C69.6584 41.6733 69.5702 41.7367 69.4615 41.8122L69.2654 41.9485L69.2585 41.9871C69.2465 42.0531 69.2517 42.2349 69.268 42.2992C69.333 42.5701 69.53 42.7845 69.8194 42.8994C70.1414 43.028 70.5893 43.0332 70.9301 42.9123C71.2376 42.8042 71.4354 42.6061 71.5099 42.3343C71.5347 42.2426 71.5373 42.0137 71.5142 41.9271C71.4474 41.6784 71.3018 41.5232 71.0629 41.4443C70.9319 41.4006 70.8642 41.3946 70.4463 41.3869C70.1337 41.3817 70.0447 41.3774 69.9941 41.3663C69.8349 41.3294 69.7698 41.2728 69.7698 41.1674C69.7698 41.1013 69.7989 41.0405 69.8537 40.9916C69.9205 40.9333 69.9291 40.9307 69.9881 40.9547C70.3136 41.0885 70.7229 41.0499 71.0115 40.8587C71.0423 40.839 71.098 40.7918 71.1348 40.7558C71.2461 40.6435 71.3155 40.5226 71.3609 40.3605C71.3823 40.2825 71.384 40.2654 71.3832 40.1222C71.3832 39.9927 71.3797 39.9575 71.3643 39.9018C71.3412 39.8186 71.3018 39.7217 71.2633 39.6591C71.247 39.6317 71.235 39.6086 71.2359 39.6086C71.2376 39.6077 71.2847 39.5888 71.3412 39.5665C71.4337 39.5297 71.5724 39.4594 71.6144 39.4276C71.6289 39.4165 71.6221 39.4045 71.4988 39.233C71.4268 39.1327 71.366 39.0469 71.3626 39.0435C71.3592 39.0401 71.3498 39.0469 71.342 39.0589ZM70.5748 39.6257C70.6921 39.6609 70.7837 39.7269 70.8462 39.8195C70.9113 39.9172 70.9301 39.9858 70.9301 40.1264C70.9301 40.2551 70.9216 40.2902 70.8685 40.394C70.8308 40.4668 70.7435 40.5517 70.6672 40.5886C70.5842 40.6289 70.5148 40.6443 70.4078 40.6443C70.2485 40.6443 70.1372 40.6032 70.0352 40.5071C69.9685 40.4437 69.9154 40.352 69.8939 40.2628C69.8777 40.1916 69.8777 40.0587 69.8939 39.9935C69.9445 39.7938 70.1012 39.6489 70.305 39.612C70.3658 39.6008 70.5191 39.6086 70.5748 39.6257ZM70.4549 41.777C70.7357 41.7899 70.8128 41.8019 70.9062 41.8456C71.0132 41.8953 71.068 41.9716 71.0774 42.0805C71.0928 42.2615 70.9747 42.4218 70.7631 42.5067C70.4412 42.6379 69.9984 42.5761 69.7955 42.3729C69.7278 42.3052 69.6987 42.2435 69.6944 42.1551L69.691 42.0857L69.8648 41.9202L70.0395 41.7547L70.1209 41.7599C70.1654 41.7624 70.3161 41.7701 70.4549 41.777Z" fill="black"/>
<path d="M73.2117 39.2392C73.0293 39.2727 72.8717 39.355 72.7313 39.4905C72.6773 39.5419 72.6722 39.5445 72.6379 39.5419L72.6011 39.5393L72.5583 39.3953L72.5146 39.2521H72.3579H72.2012V40.5811V41.9102H72.4367H72.6713L72.6747 41.0587C72.6773 40.311 72.679 40.2013 72.691 40.1516C72.7492 39.9123 72.906 39.7511 73.1397 39.6885C73.2134 39.6688 73.3941 39.662 73.5054 39.6748L73.5628 39.6817V39.4536V39.2264L73.4198 39.2272C73.3393 39.2272 73.2476 39.2332 73.2117 39.2392Z" fill="black"/>
<path d="M75.0146 39.2315C74.8861 39.2477 74.7191 39.2983 74.6044 39.3558C74.2661 39.5256 74.0315 39.8334 73.945 40.2201C73.8559 40.6179 73.9313 41.0578 74.1428 41.3742C74.326 41.6486 74.5889 41.8312 74.9109 41.9075C74.9957 41.9272 75.024 41.9298 75.1687 41.9307C75.3083 41.9307 75.3443 41.9281 75.4205 41.9109C75.7253 41.8423 75.9754 41.6829 76.1569 41.4402C76.2177 41.3596 76.3119 41.1967 76.3119 41.1727C76.3119 41.1658 76.2434 41.1633 76.0687 41.1633H75.8264L75.781 41.2241C75.6894 41.3476 75.5284 41.4479 75.3691 41.4814C75.2775 41.5002 75.1028 41.5037 75.0163 41.4891C74.702 41.4342 74.4768 41.2121 74.3988 40.8794C74.3868 40.8306 74.3749 40.7697 74.3723 40.7448L74.3663 40.7002H75.3682H76.371L76.377 40.6608C76.3907 40.5682 76.3625 40.2947 76.3239 40.1395C76.1826 39.577 75.7279 39.2203 75.1618 39.2263C75.0951 39.2272 75.0291 39.2297 75.0146 39.2315ZM75.3597 39.6456C75.6089 39.7168 75.7921 39.9217 75.8666 40.2132C75.876 40.2492 75.8838 40.287 75.8838 40.2964V40.3144H75.1387C74.4057 40.3144 74.3937 40.3144 74.3937 40.2981C74.3937 40.2715 74.4357 40.1446 74.4673 40.076C74.5752 39.8411 74.7765 39.6782 75.0163 39.6327C75.1088 39.6156 75.2766 39.6216 75.3597 39.6456Z" fill="black"/>
<path d="M77.8234 39.2316C77.7609 39.2393 77.623 39.2719 77.5673 39.2916C77.3387 39.3739 77.1511 39.5334 77.0544 39.7272C77.0167 39.8018 76.9884 39.885 76.9824 39.939L76.9773 39.9801H77.2034H77.4303L77.4551 39.9227C77.5065 39.8052 77.6213 39.7135 77.772 39.6697C77.8628 39.644 78.0666 39.6423 78.1522 39.6655C78.3252 39.7126 78.4322 39.8155 78.4913 39.993C78.5102 40.0504 78.5342 40.2194 78.5247 40.2279C78.5204 40.2314 78.4288 40.2451 78.3201 40.2579C77.7788 40.3223 77.4611 40.4097 77.2368 40.5555C77.1657 40.6018 77.0355 40.7338 76.9978 40.7973C76.9045 40.9559 76.8805 41.1951 76.9388 41.3855C77.0073 41.6093 77.176 41.7816 77.4089 41.8674C77.5254 41.9102 77.6144 41.9265 77.7549 41.9325C78.0743 41.9445 78.3252 41.8562 78.5145 41.665L78.5787 41.5998L78.6087 41.6624C78.6498 41.749 78.7131 41.8159 78.7893 41.8536C78.8775 41.8965 78.9469 41.9094 79.1062 41.9094H79.2406V41.7344V41.5595L79.1833 41.5535C79.0351 41.5381 78.9752 41.4729 78.958 41.3074C78.9538 41.2637 78.9495 40.9851 78.9495 40.6884C78.9495 40.1062 78.9461 40.0547 78.9015 39.8884C78.8356 39.6406 78.6969 39.4511 78.5016 39.3422C78.4305 39.3019 78.2867 39.2547 78.1873 39.2385C78.1128 39.2265 77.8953 39.2222 77.8234 39.2316ZM78.5213 40.8136C78.5213 41.0116 78.5127 41.0631 78.4648 41.16C78.386 41.3203 78.2301 41.4421 78.0272 41.5029C77.9261 41.533 77.7574 41.5407 77.6632 41.5201C77.414 41.4644 77.2933 41.2654 77.3764 41.0434C77.4012 40.9756 77.492 40.8873 77.5853 40.8393C77.7506 40.7535 77.9664 40.7047 78.4228 40.6498C78.4562 40.6455 78.4913 40.6421 78.5025 40.6412L78.5213 40.6404V40.8136Z" fill="black"/>
<path d="M82.632 39.2384C82.4591 39.2753 82.3041 39.3584 82.1688 39.4896C82.1139 39.5419 82.1097 39.5445 82.0746 39.5419L82.0377 39.5393L81.9949 39.3953L81.953 39.2521H81.7954H81.6387V40.5811V41.9102H81.8742H82.1097V41.123C82.1097 40.6386 82.1131 40.3093 82.1182 40.2665C82.1653 39.8935 82.3923 39.6542 82.7211 39.632C82.8581 39.6234 82.978 39.6654 83.0645 39.7528C83.157 39.8472 83.2075 39.9689 83.2452 40.191C83.2589 40.2673 83.2606 40.3693 83.2632 41.093L83.2666 41.9102H83.5021H83.7367V41.1488C83.7367 40.3668 83.7402 40.2596 83.771 40.1387C83.7941 40.0487 83.8524 39.9295 83.9072 39.8609C84.0433 39.6911 84.2574 39.6054 84.4646 39.6371C84.6822 39.6705 84.8132 39.8394 84.8671 40.155C84.8945 40.3153 84.9014 40.5391 84.9014 41.2431V41.9102H85.1377H85.3732L85.3698 41.0887C85.3672 40.2982 85.3664 40.2639 85.3484 40.1524C85.3022 39.8617 85.2063 39.6414 85.0607 39.4862C84.892 39.307 84.6993 39.2264 84.4381 39.2264C84.2197 39.2264 84.0253 39.2898 83.8549 39.4167C83.7984 39.4587 83.634 39.6234 83.634 39.6388C83.634 39.6431 83.6117 39.6465 83.5852 39.6465C83.5364 39.6457 83.5355 39.6457 83.5055 39.6062C83.3796 39.4373 83.2032 39.3104 83.02 39.2555C82.9566 39.2367 82.9241 39.2324 82.8162 39.2298C82.7288 39.2281 82.6697 39.2307 82.632 39.2384Z" fill="black"/>
<path d="M88.5581 39.2315C88.4459 39.2521 88.3928 39.265 88.3303 39.2864C88.2001 39.331 88.0631 39.4159 87.9714 39.5085C87.9363 39.5453 87.9243 39.5522 87.8987 39.5522H87.8678L87.8207 39.4039L87.7736 39.2564L87.6178 39.2538L87.4619 39.2521V40.5811V41.9102H87.6974H87.9329V41.1179C87.9329 40.6026 87.9363 40.3016 87.9423 40.2579C87.9603 40.125 88.0177 39.9878 88.0999 39.8849C88.3191 39.6062 88.7833 39.5445 89.0128 39.7631C89.1258 39.872 89.1875 40.0144 89.2277 40.2596C89.2448 40.3659 89.2466 40.4054 89.2491 41.1402L89.2526 41.9102H89.4881H89.7236L89.7201 41.0887C89.7176 40.3753 89.715 40.2562 89.703 40.179C89.6199 39.6594 89.3861 39.3619 88.9785 39.2547C88.9083 39.2358 88.874 39.2324 88.7379 39.2307C88.6505 39.229 88.57 39.2298 88.5581 39.2315Z" fill="black"/>
<path d="M56.1066 39.3353C56.1177 39.3816 56.2505 39.9398 56.4021 40.5768C56.5528 41.2131 56.6847 41.767 56.6941 41.8073C56.7035 41.8476 56.7129 41.887 56.7155 41.8956C56.7198 41.9093 56.742 41.9102 57.0726 41.9084L57.4245 41.9059L57.4314 41.8759C57.4374 41.8484 57.5718 41.2697 57.7688 40.4199C57.8082 40.2484 57.8407 40.1061 57.8407 40.1044C57.8407 40.1018 57.8553 40.101 57.8724 40.1027L57.9041 40.1053L57.9572 40.3368C58.0471 40.726 58.2672 41.6761 58.2963 41.797L58.3229 41.9102L58.6748 41.9084L59.0259 41.9059L59.2983 40.7612C59.4481 40.1318 59.5886 39.5411 59.61 39.4493C59.6314 39.3576 59.6511 39.2753 59.6528 39.2667C59.6571 39.253 59.6434 39.2521 59.4241 39.2538L59.1912 39.2564L59.115 39.5994C58.942 40.3831 58.8821 40.6574 58.7956 41.0484C58.7459 41.2748 58.7031 41.4669 58.7005 41.4754C58.6971 41.4866 58.6885 41.49 58.6688 41.4883L58.6423 41.4857L58.5806 41.2242C58.5472 41.0802 58.4702 40.7543 58.4102 40.4997C58.3503 40.245 58.2723 39.9149 58.2372 39.7666C58.203 39.6182 58.1721 39.4896 58.1696 39.481C58.1653 39.4673 58.1439 39.4665 57.8716 39.4665H57.5787L57.547 39.6011C57.5299 39.6757 57.4751 39.9098 57.4254 40.1224C57.3269 40.5434 57.2764 40.7612 57.1736 41.1985L57.1068 41.4857L57.076 41.4883C57.058 41.49 57.0443 41.4892 57.0443 41.4866C57.0443 41.484 56.9998 41.2825 56.9467 41.0381C56.772 40.2502 56.6701 39.7854 56.6101 39.5153L56.5528 39.2521H56.3198H56.0869L56.1066 39.3353Z" fill="black"/>
<path d="M60.1787 39.2795C60.183 39.295 60.2815 39.7074 60.3971 40.1953C60.5127 40.6832 60.6206 41.1367 60.6369 41.2036C60.6531 41.2697 60.6754 41.3657 60.6874 41.418C60.6994 41.4694 60.7285 41.592 60.7525 41.6915C60.7756 41.7901 60.797 41.8801 60.7996 41.8913L60.8039 41.9102L61.1567 41.9084L61.5095 41.9059L61.5592 41.6915C61.5866 41.5732 61.6294 41.3863 61.6559 41.2757C61.7484 40.8769 61.9094 40.1816 61.9188 40.1413C61.9274 40.1001 61.9274 40.1001 61.9582 40.1027L61.9891 40.1053L62.1115 40.6326C62.1783 40.9224 62.2725 41.3254 62.3196 41.5286C62.3667 41.731 62.4053 41.8999 62.4053 41.9033C62.4053 41.9076 62.5645 41.9102 62.7589 41.9102H63.1117L63.2479 41.3331C63.4175 40.6214 63.4423 40.5143 63.48 40.3582C63.5433 40.095 63.7412 39.2581 63.7412 39.2547C63.7412 39.253 63.6367 39.253 63.5091 39.2538L63.2762 39.2564L63.1957 39.6208C63.152 39.8214 63.0809 40.143 63.0381 40.3368C62.9953 40.5297 62.9242 40.8538 62.8797 41.057C62.7761 41.5286 62.7872 41.49 62.7564 41.49C62.7349 41.49 62.7298 41.4857 62.723 41.4574C62.7153 41.43 62.6074 40.973 62.3881 40.0409C62.2836 39.6002 62.2597 39.4965 62.2545 39.481C62.2503 39.4673 62.2288 39.4665 61.9565 39.4665H61.6628L61.6362 39.5839C61.6217 39.6491 61.5626 39.9012 61.5061 40.1438C61.3716 40.7166 61.3485 40.8169 61.2637 41.1813L61.1927 41.4857L61.1618 41.4883C61.1327 41.4909 61.1301 41.4892 61.125 41.4626C61.1147 41.4146 60.7071 39.5651 60.6651 39.3739L60.6377 39.2521H60.4048H60.1719L60.1787 39.2795Z" fill="black"/>
<path d="M64.2637 39.2581C64.2637 39.2624 64.2834 39.3456 64.3065 39.445C64.3305 39.5436 64.369 39.7083 64.393 39.8094C64.4178 39.9106 64.4589 40.0864 64.4863 40.1996C64.5129 40.3128 64.6148 40.744 64.7133 41.1573L64.8922 41.9102H65.2442H65.597L65.645 41.7018C65.7323 41.3237 65.8728 40.7183 65.9447 40.4096L66.0158 40.1053L66.0457 40.1027L66.0757 40.1001L66.098 40.197C66.1382 40.3702 66.3258 41.177 66.4114 41.5457L66.4953 41.9059L66.8473 41.9084L67.1993 41.9102L67.2309 41.7755C67.2489 41.7009 67.2815 41.5612 67.3046 41.4643C67.3277 41.3674 67.362 41.2251 67.3808 41.147C67.5975 40.2382 67.8261 39.2701 67.8261 39.2624C67.8261 39.2547 67.7636 39.2521 67.5949 39.2521C67.4682 39.2521 67.3637 39.2538 67.3637 39.2564C67.3637 39.259 67.3346 39.3927 67.2986 39.5548C67.1975 40.0127 66.992 40.9447 66.9295 41.2302L66.8721 41.49H66.8439C66.8285 41.49 66.8156 41.4883 66.8156 41.4866C66.8156 41.4814 66.6264 40.6763 66.4431 39.9038C66.3977 39.7125 66.3566 39.5359 66.3515 39.5111L66.342 39.4665H66.0475C65.8197 39.4665 65.752 39.469 65.7495 39.4768C65.7477 39.4828 65.6895 39.7306 65.621 40.0281C65.4557 40.7346 65.3213 41.3117 65.2982 41.4111L65.2793 41.4909L65.2493 41.4883L65.2202 41.4857L65.1157 41.0141C65.0584 40.7543 64.9488 40.2587 64.8725 39.9123C64.7963 39.5659 64.7312 39.2753 64.7295 39.2667C64.7252 39.253 64.7064 39.2521 64.494 39.2521C64.3673 39.2521 64.2637 39.2547 64.2637 39.2581Z" fill="black"/>
<path d="M86.1436 40.5811V41.9102H86.3791H86.6146V40.5811V39.2521H86.3791H86.1436V40.5811Z" fill="black"/>
<path d="M95.1436 40.5811V41.9102H95.3791H95.6146V40.5811V39.2521H95.3791H95.1436V40.5811Z" fill="black"/>
<path d="M68.0913 41.3038C67.7925 41.3715 67.7462 41.7671 68.0211 41.9024C68.0734 41.9281 68.0845 41.9307 68.1599 41.9307C68.2326 41.9307 68.2463 41.9281 68.2926 41.9058C68.4013 41.8519 68.4681 41.7534 68.475 41.6344C68.481 41.5282 68.4484 41.4502 68.3662 41.3757C68.2926 41.3107 68.1864 41.2824 68.0913 41.3038Z" fill="black"/>
<path d="M93.8921 41.3018C93.791 41.319 93.69 41.4012 93.6523 41.4971C93.6223 41.5707 93.624 41.6744 93.6557 41.7412C93.7114 41.8619 93.8219 41.9355 93.9478 41.9355C94.2261 41.9355 94.3708 41.6041 94.1815 41.3986C94.1344 41.3481 94.0873 41.3207 94.0163 41.3061C93.9512 41.2924 93.9495 41.2924 93.8921 41.3018Z" fill="black"/>
</svg>
