<svg width="156" height="54" viewBox="0 0 156 54" fill="none" xmlns="http://www.w3.org/2000/svg">
<g clip-path="url(#clip0)">
<path opacity="0.998" fill-rule="evenodd" clip-rule="evenodd" d="M54.9795 3.98047C69.6461 3.98047 84.3128 3.98047 98.9795 3.98047C98.9795 18.6471 98.9795 33.3138 98.9795 47.9805C84.3128 47.9805 69.6461 47.9805 54.9795 47.9805C54.9795 33.3138 54.9795 18.6471 54.9795 3.98047Z" fill="#4D4D4D"/>
<path fill-rule="evenodd" clip-rule="evenodd" d="M63.8125 18.7551C64.2122 18.7147 64.6192 18.7011 65.0336 18.7144C65.0336 18.8908 65.0336 19.0672 65.0336 19.2436C64.9936 19.089 64.98 18.9262 64.9929 18.7551C64.5994 18.7551 64.206 18.7551 63.8125 18.7551Z" fill="#C3B7A5"/>
<path fill-rule="evenodd" clip-rule="evenodd" d="M63.8125 18.7546C64.206 18.7546 64.5994 18.7546 64.9929 18.7546C64.98 18.9256 64.9936 19.0884 65.0336 19.243C65.602 19.8318 66.1786 20.4152 66.7635 20.9932C66.7838 20.2336 66.7906 19.4738 66.7838 18.7139C67.1773 18.7139 67.5707 18.7139 67.9642 18.7139C67.9642 20.4369 67.9642 22.1601 67.9642 23.8832C67.5707 23.8832 67.1773 23.8832 66.7838 23.8832C66.7906 23.5437 66.7838 23.2045 66.7635 22.8656C66.1801 22.2822 65.5966 21.6987 65.0132 21.1153C64.9929 22.0378 64.9861 22.9605 64.9929 23.8832C64.5994 23.8832 64.206 23.8832 63.8125 23.8832C63.8125 22.1736 63.8125 20.4641 63.8125 18.7546Z" fill="#FDEBCF"/>
<path fill-rule="evenodd" clip-rule="evenodd" d="M68.6562 22.7028C69.6467 22.7028 70.6371 22.7028 71.6276 22.7028C71.6408 22.4238 71.6272 22.1524 71.5869 21.8887C70.61 21.8887 69.6331 21.8887 68.6562 21.8887C68.6562 20.8304 68.6562 19.7721 68.6562 18.7139C70.0402 18.7139 71.4241 18.7139 72.808 18.7139C72.808 19.1209 72.808 19.5279 72.808 19.935C71.8175 19.935 70.8271 19.935 69.8366 19.935C69.8366 20.1927 69.8366 20.4505 69.8366 20.7083C70.8271 20.7083 71.8175 20.7083 72.808 20.7083C72.808 21.7666 72.808 22.8249 72.808 23.8832C71.4241 23.8832 70.0402 23.8832 68.6562 23.8832C68.6562 23.4897 68.6562 23.0962 68.6562 22.7028Z" fill="#FCEACF"/>
<path fill-rule="evenodd" clip-rule="evenodd" d="M73.459 18.7139C74.8429 18.7139 76.2268 18.7139 77.6107 18.7139C77.6107 19.7721 77.6107 20.8304 77.6107 21.8887C76.6203 21.8887 75.6298 21.8887 74.6394 21.8887C74.6394 22.5535 74.6394 23.2184 74.6394 23.8832C74.2459 23.8832 73.8525 23.8832 73.459 23.8832C73.459 22.1601 73.459 20.4369 73.459 18.7139Z" fill="#FDEBCF"/>
<path fill-rule="evenodd" clip-rule="evenodd" d="M78.3027 18.7139C79.6866 18.7139 81.0705 18.7139 82.4544 18.7139C82.4544 19.1209 82.4544 19.5279 82.4544 19.935C81.464 19.935 80.4736 19.935 79.4831 19.935C79.4831 20.1927 79.4831 20.4505 79.4831 20.7083C80.1479 20.7083 80.8128 20.7083 81.4776 20.7083C81.4776 21.1018 81.4776 21.4952 81.4776 21.8887C80.8263 21.8887 80.1751 21.8887 79.5238 21.8887C79.5238 22.1465 79.5238 22.4043 79.5238 22.6621C80.5007 22.6621 81.4776 22.6621 82.4544 22.6621C82.4544 23.0691 82.4544 23.4761 82.4544 23.8832C81.0705 23.8832 79.6866 23.8832 78.3027 23.8832C78.3027 22.1601 78.3027 20.4369 78.3027 18.7139Z" fill="#FCEACE"/>
<path fill-rule="evenodd" clip-rule="evenodd" d="M84.3269 19.9353C84.3269 20.8443 84.3269 21.7534 84.3269 22.6624C85.2967 22.703 86.2736 22.7166 87.2575 22.7031C87.2575 23.083 87.2575 23.4629 87.2575 23.8428C85.8871 23.8428 84.5168 23.8428 83.1465 23.8428C83.1465 22.1468 83.1465 20.4509 83.1465 18.7549C84.5168 18.7549 85.8871 18.7549 87.2575 18.7549C87.2575 19.1348 87.2575 19.5147 87.2575 19.8946C86.2736 19.8811 85.2967 19.8946 84.3269 19.9353Z" fill="#FDEBCF"/>
<path fill-rule="evenodd" clip-rule="evenodd" d="M87.9492 18.7139C89.3331 18.7139 90.717 18.7139 92.1009 18.7139C92.1009 19.1209 92.1009 19.5279 92.1009 19.935C91.6125 19.935 91.1241 19.935 90.6356 19.935C90.6356 21.251 90.6356 22.5671 90.6356 23.8832C90.2421 23.8832 89.8487 23.8832 89.4552 23.8832C89.4552 22.5671 89.4552 21.251 89.4552 19.935C88.9532 19.935 88.4512 19.935 87.9492 19.935C87.9492 19.5279 87.9492 19.1209 87.9492 18.7139Z" fill="#FCEACE"/>
<path fill-rule="evenodd" clip-rule="evenodd" d="M62.4279 18.7954C62.5882 18.9149 62.6764 19.0777 62.6924 19.2838C62.8316 19.4738 62.9198 19.6842 62.957 19.9147C62.9108 20.3254 62.6801 20.4882 62.2651 20.4032C61.9673 20.2575 61.8655 20.0201 61.9598 19.6909C62.0854 19.4804 62.2211 19.2768 62.3668 19.0803C62.4066 18.9892 62.4269 18.8942 62.4279 18.7954Z" fill="#F7AD3B"/>
<path fill-rule="evenodd" clip-rule="evenodd" d="M76.3899 20.7086C76.3899 20.4508 76.3899 20.193 76.3899 19.9352C75.82 19.9352 75.2502 19.9352 74.6803 19.9352C74.6803 20.193 74.6803 20.4508 74.6803 20.7086C74.64 20.4449 74.6265 20.1735 74.6396 19.8945C75.2366 19.8945 75.8336 19.8945 76.4306 19.8945C76.4438 20.1735 76.4302 20.4449 76.3899 20.7086Z" fill="#BDB2A0"/>
<path fill-rule="evenodd" clip-rule="evenodd" d="M84.3267 19.935C85.2966 19.8943 86.2735 19.8808 87.2574 19.8943C87.2574 19.5144 87.2574 19.1345 87.2574 18.7546C85.887 18.7546 84.5167 18.7546 83.1463 18.7546C83.1463 20.4505 83.1463 22.1465 83.1463 23.8425C83.1463 23.856 83.1463 23.8696 83.1463 23.8832C83.1057 22.167 83.0921 20.4439 83.1056 18.7139C84.5031 18.7139 85.9006 18.7139 87.2981 18.7139C87.2981 19.1209 87.2981 19.5279 87.2981 19.935C86.3076 19.935 85.3172 19.935 84.3267 19.935Z" fill="#C1B6A3"/>
<path fill-rule="evenodd" clip-rule="evenodd" d="M76.3892 20.7094C75.8194 20.7094 75.2495 20.7094 74.6797 20.7094C74.6797 20.4516 74.6797 20.1938 74.6797 19.936C75.2495 19.936 75.8194 19.936 76.3892 19.936C76.3892 20.1938 76.3892 20.4516 76.3892 20.7094Z" fill="#4C4D4C"/>
<path fill-rule="evenodd" clip-rule="evenodd" d="M63.0385 21.4005C62.645 21.4005 62.2516 21.4005 61.8581 21.4005C61.7864 20.9365 61.9831 20.7059 62.4483 20.7085C62.9153 20.7075 63.1121 20.9381 63.0385 21.4005Z" fill="#C2996B"/>
<path fill-rule="evenodd" clip-rule="evenodd" d="M61.8584 21.4004C62.2519 21.4004 62.6453 21.4004 63.0388 21.4004C63.0388 21.4546 63.0388 21.5089 63.0388 21.5632C62.6453 21.5632 62.2519 21.5632 61.8584 21.5632C61.8584 21.5089 61.8584 21.4546 61.8584 21.4004Z" fill="#A57C51"/>
<path fill-rule="evenodd" clip-rule="evenodd" d="M61.8584 21.563C62.2519 21.563 62.6453 21.563 63.0388 21.563C63.0388 21.6308 63.0388 21.6987 63.0388 21.7665C62.6453 21.7665 62.2519 21.7665 61.8584 21.7665C61.8584 21.6987 61.8584 21.6308 61.8584 21.563Z" fill="#C3996A"/>
<path fill-rule="evenodd" clip-rule="evenodd" d="M61.8584 21.7666C62.2519 21.7666 62.6453 21.7666 63.0388 21.7666C63.0388 21.8345 63.0388 21.9023 63.0388 21.9701C62.6453 21.9701 62.2519 21.9701 61.8584 21.9701C61.8584 21.9023 61.8584 21.8345 61.8584 21.7666Z" fill="#A77D53"/>
<path fill-rule="evenodd" clip-rule="evenodd" d="M61.8584 21.9702C62.2519 21.9702 62.6453 21.9702 63.0388 21.9702C63.0388 22.0245 63.0388 22.0788 63.0388 22.133C62.6453 22.133 62.2519 22.133 61.8584 22.133C61.8584 22.0788 61.8584 22.0245 61.8584 21.9702Z" fill="#C59C6C"/>
<path fill-rule="evenodd" clip-rule="evenodd" d="M61.8584 22.1338C62.2519 22.1338 62.6453 22.1338 63.0388 22.1338C63.0388 22.2016 63.0388 22.2695 63.0388 22.3373C62.6453 22.3373 62.2519 22.3373 61.8584 22.3373C61.8584 22.2695 61.8584 22.2016 61.8584 22.1338Z" fill="#A57C51"/>
<path fill-rule="evenodd" clip-rule="evenodd" d="M61.8584 22.3364C62.2519 22.3364 62.6453 22.3364 63.0388 22.3364C63.0388 22.4043 63.0388 22.4721 63.0388 22.5399C62.6453 22.5399 62.2519 22.5399 61.8584 22.5399C61.8584 22.4721 61.8584 22.4043 61.8584 22.3364Z" fill="#C3996A"/>
<path fill-rule="evenodd" clip-rule="evenodd" d="M61.8584 22.54C62.2519 22.54 62.6453 22.54 63.0388 22.54C63.0388 22.5943 63.0388 22.6486 63.0388 22.7029C62.6453 22.7029 62.2519 22.7029 61.8584 22.7029C61.8584 22.6486 61.8584 22.5943 61.8584 22.54Z" fill="#A57C51"/>
<path fill-rule="evenodd" clip-rule="evenodd" d="M71.5869 21.8892C71.6272 22.1529 71.6408 22.4242 71.6276 22.7032C70.6371 22.7032 69.6467 22.7032 68.6562 22.7032C69.6261 22.6626 70.603 22.649 71.5869 22.6625C71.5869 22.4047 71.5869 22.1469 71.5869 21.8892Z" fill="#C8BCA9"/>
<path fill-rule="evenodd" clip-rule="evenodd" d="M61.8584 22.7036C62.2519 22.7036 62.6453 22.7036 63.0388 22.7036C62.9584 23.4081 62.565 23.8015 61.8584 23.884C61.8584 23.4905 61.8584 23.0971 61.8584 22.7036Z" fill="#C49B6C"/>
<path fill-rule="evenodd" clip-rule="evenodd" d="M84.3269 22.6626C85.3173 22.6626 86.3078 22.6626 87.2982 22.6626C87.2982 23.0696 87.2982 23.4767 87.2982 23.8837C85.9143 23.8837 84.5304 23.8837 83.1465 23.8837C83.1465 23.8701 83.1465 23.8565 83.1465 23.843C84.5168 23.843 85.8871 23.843 87.2575 23.843C87.2575 23.4631 87.2575 23.0832 87.2575 22.7033C86.2736 22.7168 85.2967 22.7032 84.3269 22.6626Z" fill="#D1C4AF"/>
<path fill-rule="evenodd" clip-rule="evenodd" d="M60.3525 25.5518C71.4238 25.5518 82.495 25.5518 93.5662 25.5518C93.5662 28.1025 93.5662 30.6532 93.5662 33.2039C82.495 33.2039 71.4238 33.2039 60.3525 33.2039C60.3525 30.6532 60.3525 28.1025 60.3525 25.5518Z" fill="#FCEACE"/>
<path fill-rule="evenodd" clip-rule="evenodd" d="M64.7073 28.7275C64.7479 28.0563 64.7615 27.3779 64.748 26.6924C65.1279 26.6924 65.5078 26.6924 65.8877 26.6924C65.8877 28.4426 65.8877 30.1928 65.8877 31.9431C65.4943 31.9431 65.1008 31.9431 64.7073 31.9431C64.7073 31.2647 64.7073 30.5863 64.7073 29.9079C64.0968 29.9079 63.4862 29.9079 62.8757 29.9079C62.8757 30.5863 62.8757 31.2647 62.8757 31.9431C62.4822 31.9431 62.0888 31.9431 61.6953 31.9431C61.6953 30.1928 61.6953 28.4426 61.6953 26.6924C62.0888 26.6924 62.4822 26.6924 62.8757 26.6924C62.8757 27.3708 62.8757 28.0491 62.8757 28.7275C63.4862 28.7275 64.0968 28.7275 64.7073 28.7275Z" fill="#4D4D4D"/>
<path fill-rule="evenodd" clip-rule="evenodd" d="M65.8884 26.6921C65.5085 26.6921 65.1286 26.6921 64.7487 26.6921C64.7621 27.3777 64.7486 28.056 64.708 28.7273C64.708 28.0353 64.708 27.3434 64.708 26.6514C65.1089 26.6381 65.5023 26.6517 65.8884 26.6921Z" fill="#847F76"/>
<path fill-rule="evenodd" clip-rule="evenodd" d="M68.5742 26.7323C69.9648 26.6917 71.3622 26.6781 72.7666 26.6916C72.7666 27.0036 72.7666 27.3157 72.7666 27.6277C72.7263 27.3368 72.7127 27.0383 72.7259 26.7323C71.342 26.7323 69.9581 26.7323 68.5742 26.7323Z" fill="#9F968A"/>
<path fill-rule="evenodd" clip-rule="evenodd" d="M66.6211 26.7324C67.001 26.7324 67.3809 26.7324 67.7608 26.7324C67.7608 28.4691 67.7608 30.2057 67.7608 31.9424C67.3809 31.9424 67.001 31.9424 66.6211 31.9424C66.6211 30.2057 66.6211 28.4691 66.6211 26.7324Z" fill="#4C4D4C"/>
<path fill-rule="evenodd" clip-rule="evenodd" d="M68.5742 26.7324C69.9581 26.7324 71.342 26.7324 72.7259 26.7324C72.7127 27.0385 72.7263 27.3369 72.7666 27.6279C72.7666 27.7228 72.7666 27.8179 72.7666 27.9128C71.7626 27.9128 70.7586 27.9128 69.7546 27.9128C69.7546 28.1842 69.7546 28.4555 69.7546 28.7269C70.7586 28.7269 71.7626 28.7269 72.7666 28.7269C72.7666 29.7987 72.7666 30.8706 72.7666 31.9424C71.3692 31.9424 69.9717 31.9424 68.5742 31.9424C68.5742 31.5489 68.5742 31.1555 68.5742 30.762C69.5782 30.762 70.5822 30.762 71.5862 30.762C71.5862 30.4771 71.5862 30.1922 71.5862 29.9073C70.5822 29.9073 69.5782 29.9073 68.5742 29.9073C68.5742 28.849 68.5742 27.7907 68.5742 26.7324Z" fill="#4D4D4D"/>
<path fill-rule="evenodd" clip-rule="evenodd" d="M77.6514 27.8721C77.1494 27.8721 76.6474 27.8721 76.1454 27.8721C76.1454 29.2289 76.1454 30.5857 76.1454 31.9424C75.7655 31.9424 75.3856 31.9424 75.0057 31.9424C75.0057 30.5857 75.0057 29.2289 75.0057 27.8721C74.4901 27.8721 73.9746 27.8721 73.459 27.8721C73.459 27.4922 73.459 27.1123 73.459 26.7324C74.8564 26.7324 76.2539 26.7324 77.6514 26.7324C77.6514 27.1123 77.6514 27.4922 77.6514 27.8721Z" fill="#4C4D4C"/>
<path fill-rule="evenodd" clip-rule="evenodd" d="M78.3838 26.7324C79.7677 26.7324 81.1516 26.7324 82.5355 26.7324C82.5355 28.4691 82.5355 30.2057 82.5355 31.9424C81.1516 31.9424 79.7677 31.9424 78.3838 31.9424C78.3838 30.2057 78.3838 28.4691 78.3838 26.7324Z" fill="#4D4D4D"/>
<path fill-rule="evenodd" clip-rule="evenodd" d="M83.2686 26.7324C84.6525 26.7324 86.0364 26.7324 87.4203 26.7324C87.4203 27.7907 87.4203 28.849 87.4203 29.9073C86.9827 29.8937 86.5756 29.9073 86.1992 29.948C86.6196 30.3751 87.0333 30.8093 87.4406 31.2505C87.4609 31.4807 87.4677 31.7114 87.461 31.9424C87.0537 31.9492 86.6467 31.9424 86.2399 31.9221C85.6349 31.3307 85.0447 30.7269 84.4693 30.1108C84.4489 30.7212 84.4421 31.3317 84.4489 31.9424C84.0555 31.9424 83.662 31.9424 83.2686 31.9424C83.2686 30.2057 83.2686 28.4691 83.2686 26.7324Z" fill="#4D4D4D"/>
<path fill-rule="evenodd" clip-rule="evenodd" d="M83.2686 26.7323C84.6591 26.6917 86.0566 26.6781 87.461 26.6916C87.461 27.777 87.461 28.8624 87.461 29.9478C87.0404 29.9478 86.6198 29.9478 86.1992 29.9478C86.5756 29.9072 86.9827 29.8936 87.4203 29.9071C87.4203 28.8488 87.4203 27.7906 87.4203 26.7323C86.0364 26.7323 84.6525 26.7323 83.2686 26.7323Z" fill="#8C867C"/>
<path fill-rule="evenodd" clip-rule="evenodd" d="M88.1934 26.7324C88.5732 26.7324 88.9532 26.7324 89.333 26.7324C89.3196 27.4044 89.3332 28.0692 89.3737 28.7269C89.9771 28.7674 90.5877 28.781 91.2054 28.7676C91.2054 28.0892 91.2054 27.4108 91.2054 26.7324C91.5853 26.7324 91.9652 26.7324 92.3451 26.7324C92.3451 28.4691 92.3451 30.2057 92.3451 31.9424C90.9612 31.9424 89.5773 31.9424 88.1934 31.9424C88.1934 31.5489 88.1934 31.1555 88.1934 30.762C89.1838 30.762 90.1743 30.762 91.1647 30.762C91.205 30.4847 91.2186 30.1998 91.2054 29.9073C90.2014 29.9073 89.1974 29.9073 88.1934 29.9073C88.1934 28.849 88.1934 27.7907 88.1934 26.7324Z" fill="#4D4D4D"/>
<path fill-rule="evenodd" clip-rule="evenodd" d="M88.1934 26.7322C88.5795 26.6917 88.9729 26.6782 89.3737 26.6915C89.3737 27.3699 89.3737 28.0482 89.3737 28.7266C89.3332 28.0689 89.3196 27.4041 89.333 26.7322C88.9532 26.7322 88.5732 26.7322 88.1934 26.7322Z" fill="#857F76"/>
<path fill-rule="evenodd" clip-rule="evenodd" d="M84.4492 27.9129C85.0526 27.8723 85.6631 27.8588 86.2809 27.8722C86.2809 28.1707 86.2809 28.4692 86.2809 28.7676C85.6631 28.781 85.0526 28.7675 84.4492 28.7269C85.0462 28.7269 85.6432 28.7269 86.2402 28.7269C86.2402 28.4556 86.2402 28.1842 86.2402 27.9129C85.6432 27.9129 85.0462 27.9129 84.4492 27.9129Z" fill="#7F7B73"/>
<path fill-rule="evenodd" clip-rule="evenodd" d="M73.459 27.8721C73.9746 27.8721 74.4901 27.8721 75.0057 27.8721C75.0057 29.2288 75.0057 30.5856 75.0057 31.9424C74.9651 30.6061 74.9515 29.2629 74.965 27.9128C74.4558 27.9262 73.9537 27.9126 73.459 27.8721Z" fill="#9B9487"/>
<path fill-rule="evenodd" clip-rule="evenodd" d="M77.6515 27.8721C77.1703 27.9126 76.6819 27.9261 76.1862 27.9128C76.1997 29.2629 76.1861 30.6061 76.1455 31.9424C76.1455 30.5856 76.1455 29.2288 76.1455 27.8721C76.6475 27.8721 77.1495 27.8721 77.6515 27.8721Z" fill="#9C9487"/>
<path fill-rule="evenodd" clip-rule="evenodd" d="M79.5645 27.9131C80.1614 27.9131 80.7584 27.9131 81.3554 27.9131C81.3554 28.8628 81.3554 29.8126 81.3554 30.7623C80.7584 30.7623 80.1614 30.7623 79.5645 30.7623C79.5645 29.8126 79.5645 28.8628 79.5645 27.9131Z" fill="#FDEBCF"/>
<path fill-rule="evenodd" clip-rule="evenodd" d="M79.5645 27.9129C80.1678 27.8723 80.7784 27.8588 81.3961 27.8722C81.4096 28.8425 81.396 29.8058 81.3554 30.7621C81.3554 29.8124 81.3554 28.8626 81.3554 27.9129C80.7584 27.9129 80.1614 27.9129 79.5645 27.9129Z" fill="#989185"/>
<path fill-rule="evenodd" clip-rule="evenodd" d="M84.4492 27.9131C85.0462 27.9131 85.6432 27.9131 86.2402 27.9131C86.2402 28.1845 86.2402 28.4558 86.2402 28.7271C85.6432 28.7271 85.0462 28.7271 84.4492 28.7271C84.4492 28.4558 84.4492 28.1845 84.4492 27.9131Z" fill="#FDECCF"/>
<path fill-rule="evenodd" clip-rule="evenodd" d="M91.2057 26.7324C91.2057 27.4108 91.2057 28.0892 91.2057 28.7676C90.588 28.781 89.9774 28.7674 89.374 28.7269C89.971 28.7269 90.568 28.7269 91.165 28.7269C91.1515 28.0549 91.1651 27.3901 91.2057 26.7324Z" fill="#878278"/>
<path fill-rule="evenodd" clip-rule="evenodd" d="M88.1934 29.9072C89.1974 29.9072 90.2014 29.9072 91.2054 29.9072C91.2186 30.1998 91.205 30.4847 91.1647 30.762C91.1647 30.4906 91.1647 30.2193 91.1647 29.9479C90.1672 29.9614 89.1768 29.9478 88.1934 29.9072Z" fill="#A59C8E"/>
<path fill-rule="evenodd" clip-rule="evenodd" d="M60.3525 25.5526C71.4305 25.5119 82.5153 25.4984 93.6069 25.5119C93.6069 28.0898 93.6069 30.6677 93.6069 33.2455C82.5153 33.2591 71.4305 33.2455 60.3525 33.2048C71.4238 33.2048 82.495 33.2048 93.5662 33.2048C93.5662 30.6541 93.5662 28.1034 93.5662 25.5526C82.495 25.5526 71.4238 25.5526 60.3525 25.5526Z" fill="#979084"/>
</g>
<defs>
<clipPath id="clip0">
<rect width="44" height="44" fill="white" transform="translate(55 4)"/>
</clipPath>
</defs>
</svg>
