<svg width="156" height="54" viewBox="0 0 156 54" fill="none" xmlns="http://www.w3.org/2000/svg">
<path d="M80.9155 14.0682C80.7117 14.1061 80.5666 14.1715 80.4543 14.2766C80.2608 14.4539 80.1865 14.6709 80.1865 15.0583C80.1865 15.2426 80.1934 15.3373 80.2159 15.4199C80.3178 15.797 80.5234 15.9916 80.8982 16.0656C81.0865 16.1035 81.5978 16.0932 81.7568 16.0484C82.1023 15.952 82.3009 15.754 82.3821 15.4251C82.4218 15.2649 82.4201 14.8689 82.3821 14.7088C82.2975 14.3695 82.1144 14.1836 81.7706 14.0923C81.5927 14.0441 81.1142 14.0303 80.9155 14.0682Z" fill="black"/>
<path d="M95.8964 15.8153V17.5028L95.7738 17.4236C95.6045 17.3134 95.2676 17.1567 95.05 17.0844C94.5645 16.9225 94.1344 16.8864 93.5868 16.9621C92.6125 17.093 91.8628 17.6543 91.4171 18.5876C91.1874 19.0663 91.0613 19.5571 90.9974 20.2234C90.9628 20.5747 90.9732 21.4822 91.0146 21.7818C91.1235 22.5876 91.3152 23.1507 91.6486 23.65C91.7816 23.8515 92.1202 24.1959 92.3033 24.3164C92.4605 24.4215 92.6989 24.542 92.8647 24.6023C93.1843 24.7159 93.6784 24.7831 94.0567 24.7624C94.7356 24.7245 95.2313 24.5558 95.8359 24.1528C95.9309 24.0891 96.0139 24.0358 96.0208 24.0323C96.0277 24.0289 96.0346 24.1425 96.0346 24.2854V24.5454H96.9847H97.9348V19.3367V14.1279H96.9156H95.8964V15.8153ZM94.8513 18.7839C95.1536 18.8476 95.5164 19.0215 95.7979 19.2368L95.8964 19.3125L95.8929 20.8209L95.8878 22.3293L95.7237 22.4464C94.9238 23.0181 94.0152 23.0956 93.5609 22.6289C93.2189 22.2777 93.0444 21.6096 93.0686 20.7521C93.0893 19.9944 93.281 19.4486 93.6524 19.087C93.8269 18.9165 94.0446 18.8029 94.2795 18.7598C94.397 18.7392 94.701 18.7512 94.8513 18.7839Z" fill="black"/>
<path d="M100.362 14.3071C99.954 14.376 99.7519 14.5395 99.643 14.8856C99.6067 15.001 99.6016 15.0475 99.6016 15.3161C99.6016 15.6002 99.605 15.6261 99.6499 15.7518C99.7899 16.1512 100.033 16.3062 100.567 16.3407C100.664 16.3475 100.814 16.3441 100.906 16.3338C101.45 16.2718 101.707 16.0686 101.797 15.6278C101.833 15.4453 101.823 15.0509 101.778 14.9029C101.68 14.5826 101.483 14.4069 101.13 14.326C100.956 14.2864 100.545 14.2761 100.362 14.3071Z" fill="black"/>
<path d="M80.2807 20.5628C80.2807 22.9855 80.2738 24.3097 80.2634 24.4337C80.2375 24.6954 80.2012 24.8641 80.146 24.9761C80.1062 25.0553 80.0838 25.0777 80.0043 25.1173C79.7486 25.2464 79.2252 25.2068 78.6949 25.0191C78.5964 24.9847 78.5118 24.9588 78.5066 24.964C78.4962 24.9761 78.0488 26.7531 78.0557 26.7582C78.0713 26.7737 78.5273 26.8736 78.7174 26.9029C79.2805 26.9907 79.6502 27.0148 80.0423 26.9907C81.3327 26.9098 81.9632 26.4586 82.2223 25.4324C82.3139 25.0708 82.3087 25.317 82.3139 20.933L82.3191 16.8831H81.2999H80.2807V20.5628Z" fill="black"/>
<path d="M86.3351 16.9348C85.2174 17.0072 84.3433 17.355 83.851 17.9249C83.7353 18.0575 83.5625 18.3141 83.5625 18.3502C83.5643 18.3692 85.0689 19.3455 85.1414 19.3731C85.1552 19.3782 85.1915 19.3369 85.2382 19.256C85.5197 18.7824 86.152 18.5431 86.9518 18.6051C87.4562 18.6447 87.7654 18.7738 87.8846 18.996C87.9623 19.1372 87.99 19.2663 87.9917 19.4919L87.9934 19.6968L87.5789 19.7364C86.0069 19.8845 85.6752 19.9361 85.1259 20.1152C84.8909 20.1927 84.7251 20.2667 84.542 20.3769C83.9875 20.7127 83.6714 21.1656 83.5418 21.8113C83.49 22.0765 83.4848 22.6567 83.5349 22.9185C83.6662 23.6159 84.0739 24.1858 84.6526 24.4768C85.195 24.7506 86.0121 24.8401 86.6719 24.6989C87.1418 24.5973 87.6289 24.3666 88.0418 24.0515L88.1403 23.9757V24.2598V24.5457H89.0904H90.0405V21.9749C90.0405 20.4234 90.0336 19.3266 90.0232 19.2078C89.9092 17.8957 89.2528 17.2258 87.8622 17.0054C87.4372 16.9366 86.7721 16.9073 86.3351 16.9348ZM87.9554 22.4243C87.6428 22.6826 87.1504 22.9409 86.7756 23.0442C86.3921 23.1475 85.8998 23.0648 85.7253 22.8685C85.6286 22.7583 85.594 22.6361 85.594 22.3933C85.5923 22.2108 85.5992 22.1608 85.6337 22.061C85.7167 21.8216 85.9067 21.6425 86.1952 21.5306C86.513 21.4084 86.8188 21.3533 87.5702 21.2861L87.9934 21.2482L87.9986 21.8165L88.0038 22.3847L87.9554 22.4243Z" fill="black"/>
<path d="M99.6797 20.8347V24.5454H100.699H101.718V20.8347V17.124H100.699H99.6797V20.8347Z" fill="black"/>
<path d="M87.5269 27.1221C87.3593 27.1565 87.1814 27.2478 87.0812 27.3477C86.9136 27.5147 86.8411 27.7454 86.8428 28.1191C86.8445 28.6942 87.0639 29.0042 87.539 29.0989C87.7169 29.135 88.147 29.135 88.3267 29.0989C88.6134 29.042 88.8518 28.8785 88.952 28.6718C89.0194 28.5272 89.0557 28.336 89.0557 28.1105C89.0557 27.5526 88.8639 27.2633 88.4079 27.1359C88.2593 27.0946 87.6944 27.0859 87.5269 27.1221Z" fill="black"/>
<path d="M100.379 27.1062C99.9624 27.1699 99.7137 27.3886 99.6359 27.7622C99.6031 27.9155 99.6031 28.2909 99.6359 28.4458C99.6912 28.7093 99.8398 28.9125 100.047 29.0141C100.242 29.1071 100.406 29.1312 100.766 29.1208C101.106 29.1105 101.208 29.0898 101.394 28.9934C101.69 28.8384 101.821 28.5664 101.821 28.1118C101.821 27.5504 101.631 27.2629 101.173 27.1355C101.097 27.1148 100.985 27.1062 100.75 27.1027C100.574 27.0993 100.408 27.101 100.379 27.1062Z" fill="black"/>
<path d="M80.6604 29.7219C80.6362 29.7253 80.5481 29.7374 80.4618 29.7477C79.6343 29.8493 78.9036 30.3228 78.4458 31.0581C78.1366 31.554 77.9276 32.2359 77.8619 32.966C77.8222 33.424 77.8499 34.2075 77.9224 34.6276C78.1884 36.1618 79.0383 37.0917 80.3322 37.2639C80.5464 37.2914 80.9679 37.2949 81.1873 37.2708C81.6934 37.2122 82.1598 37.0452 82.5762 36.7714L82.7368 36.6664L82.7282 36.9729C82.723 37.1847 82.7109 37.3104 82.6902 37.3827C82.5882 37.746 82.3671 37.9544 81.9733 38.0611C81.6744 38.142 81.5259 38.1558 80.9714 38.1575C80.5015 38.1575 80.4168 38.1524 80.194 38.1179C79.7172 38.0405 79.275 37.9113 78.812 37.7081C78.6877 37.6547 78.584 37.6134 78.5806 37.6169C78.5702 37.6289 77.9829 39.2647 77.9829 39.2802C77.9829 39.3026 78.4147 39.5075 78.622 39.5833C78.8155 39.6556 79.142 39.752 79.3476 39.8002C80.3564 40.0327 81.728 40.0241 82.6902 39.7779C83.5591 39.554 84.1153 39.1494 84.4487 38.4985C84.6197 38.1644 84.7182 37.7873 84.7527 37.3414C84.7648 37.1881 84.7717 35.8708 84.7717 33.5135V29.9182H83.9806H83.1894L83.0961 30.1885C83.046 30.3383 83.0028 30.464 82.9994 30.4675C82.9959 30.4709 82.9579 30.4417 82.9113 30.4038C82.704 30.2316 82.3084 30.0129 81.9854 29.8941C81.785 29.82 81.519 29.7546 81.3168 29.7288C81.1804 29.7133 80.7589 29.7081 80.6604 29.7219ZM81.7815 31.5798C82.0856 31.6573 82.3326 31.7779 82.6021 31.9776L82.7333 32.0757L82.7299 33.4722L82.7247 34.8687L82.5744 34.9806C82.1581 35.2888 81.7262 35.4541 81.2892 35.4748C81.1285 35.4817 81.0508 35.4782 80.9506 35.4559C80.4428 35.3439 80.1059 34.9221 79.9798 34.2454C79.9107 33.8717 79.9021 33.3121 79.9625 32.966C80.0886 32.2273 80.5239 31.6677 81.0664 31.5437C81.227 31.5075 81.5587 31.5247 81.7815 31.5798Z" fill="black"/>
<path d="M95.1031 29.7296C94.9165 29.7555 94.5451 29.8519 94.3586 29.9259C94.0062 30.0637 93.6728 30.2565 93.3532 30.5079L93.1839 30.6405V30.2789V29.9173H92.1647H91.1455V33.6022V37.2871H92.1647H93.1839V34.8782V32.4692L93.3359 32.3366C93.7747 31.9509 94.2359 31.6685 94.5918 31.5669C94.7697 31.517 95.0755 31.5118 95.2257 31.5583C95.4814 31.6358 95.611 31.8269 95.6783 32.2178C95.7353 32.5553 95.7405 32.7688 95.7405 35.0262V37.2871H96.7597H97.7789V34.8024C97.7789 33.3112 97.772 32.2092 97.7616 32.0439C97.7064 31.1829 97.506 30.6371 97.1087 30.2583C96.8271 29.9914 96.4971 29.8364 96.0342 29.752C95.8563 29.7193 95.2845 29.7055 95.1031 29.7296Z" fill="black"/>
<path d="M86.9307 33.6022V37.2871H87.9412H88.9518V33.6022V29.9173H87.9412H86.9307V33.6022Z" fill="black"/>
<path d="M99.6973 33.6022V37.2871H100.708H101.718V33.6022V29.9173H100.708H99.6973V33.6022Z" fill="black"/>
<path d="M105.095 35.6196C104.832 35.654 104.572 35.7677 104.444 35.9037C104.238 36.1241 104.133 36.5357 104.171 36.9679C104.2 37.3071 104.285 37.524 104.447 37.6859C104.559 37.7995 104.677 37.8632 104.851 37.908C104.99 37.9425 104.983 37.9252 104.931 38.1336C104.85 38.4556 104.682 38.8843 104.487 39.2752C104.416 39.4164 104.34 39.5593 104.319 39.5938C104.299 39.6282 104.261 39.6919 104.235 39.7367L104.186 39.8193H104.926H105.667L105.772 39.6506C106.002 39.2821 106.283 38.6484 106.408 38.2197C106.574 37.6411 106.634 36.9059 106.548 36.5029C106.513 36.3394 106.449 36.174 106.377 36.0621C106.251 35.8641 106.017 35.7022 105.772 35.642C105.641 35.611 105.261 35.5972 105.095 35.6196Z" fill="black"/>
<path d="M48.6328 14.0425H74.6482V39.9745H48.6328V14.0425Z" fill="#5EC7D9"/>
</svg>
