<svg width="156" height="54" viewBox="0 0 156 54" fill="none" xmlns="http://www.w3.org/2000/svg">
<path d="M56 27V49H78H100V27V5H78H56V27ZM63.084 26.274L63.15 28.87L63.832 27.682C64.47 26.538 64.514 26.494 65.526 26.472C66.098 26.472 66.56 26.516 66.56 26.604C66.56 26.692 66.186 27.33 65.724 28.012L64.866 29.288L65.834 30.872C66.34 31.73 66.78 32.5 66.78 32.588C66.78 32.654 66.318 32.72 65.724 32.72H64.69L63.92 31.334L63.15 29.97L63.084 31.334L63.018 32.72H62.05H61.06V28.21V23.7H62.05H63.018L63.084 26.274ZM75.844 26.274L75.91 28.87L76.592 27.704C77.296 26.538 77.296 26.516 78.418 26.472C79.034 26.45 79.54 26.472 79.54 26.516C79.54 26.56 79.144 27.154 78.66 27.814C78.176 28.496 77.78 29.134 77.78 29.222C77.78 29.332 78.22 30.124 78.748 31.004L79.738 32.61L78.836 32.676C77.604 32.764 77.428 32.676 76.812 31.422C75.998 29.838 75.8 29.838 75.8 31.378V32.72H74.81H73.82V28.21V23.7H74.81H75.778L75.844 26.274ZM71.488 26.67C72.456 27.132 73.028 28.188 73.028 29.53C73.028 31.554 71.95 32.72 70.08 32.72C68.738 32.72 67.924 32.192 67.396 31.026C66.12 28.122 68.716 25.35 71.488 26.67ZM83.94 29.09V29.86H82.18H80.42V29.09V28.32H82.18H83.94V29.09ZM62.93 35.316C62.93 36.174 62.952 36.9 62.996 36.9C63.04 36.9 63.216 36.746 63.392 36.57C64.294 35.668 66.142 36.68 66.582 38.286C66.846 39.254 66.714 40.816 66.34 41.52C65.746 42.62 64.074 43.016 63.238 42.268C62.864 41.916 62.82 41.916 62.82 42.246C62.82 42.532 62.622 42.62 61.94 42.62H61.06V38.088V33.578L62.006 33.644L62.93 33.71V35.316ZM69.64 34.37C69.64 35.14 69.64 35.14 68.65 35.14C67.66 35.14 67.66 35.14 67.66 34.37C67.66 33.6 67.66 33.6 68.65 33.6C69.64 33.6 69.64 33.6 69.64 34.37ZM86.954 34.7C87.702 35.162 88.142 36.218 87.966 37.186C87.9 37.494 87.416 38.154 86.888 38.66C86.36 39.166 85.92 39.716 85.92 39.892C85.92 40.112 85.656 40.2 84.93 40.2C84.072 40.2 83.94 40.134 83.94 39.716C83.94 39.452 84.336 38.88 84.908 38.352C85.414 37.846 85.92 37.274 85.986 37.054C86.36 36.02 84.908 35.316 84.336 36.24C84.116 36.57 83.808 36.68 83.104 36.68C82.158 36.68 82.136 36.658 82.268 36.064C82.356 35.734 82.708 35.206 83.082 34.854C83.632 34.348 83.918 34.26 84.996 34.26C85.854 34.26 86.47 34.392 86.954 34.7ZM74.348 36.548C75.096 36.856 75.8 37.648 75.8 38.154C75.8 38.352 75.47 38.44 74.854 38.44C74.172 38.44 73.864 38.33 73.644 38C73.336 37.494 72.874 37.428 72.544 37.846C72.192 38.264 72.522 38.616 73.556 38.836C74.81 39.122 75.536 39.65 75.712 40.354C75.91 41.08 75.448 41.96 74.7 42.334C74.018 42.686 72.258 42.708 71.554 42.378C71.092 42.18 70.3 41.146 70.3 40.772C70.3 40.706 70.74 40.64 71.268 40.64C71.928 40.64 72.28 40.75 72.368 40.97C72.434 41.168 72.764 41.3 73.16 41.3C73.666 41.3 73.82 41.212 73.82 40.882C73.82 40.53 73.534 40.354 72.5 40.068C71.07 39.672 70.52 39.166 70.52 38.22C70.52 36.702 72.566 35.8 74.348 36.548ZM81.124 37.098C81.696 37.736 81.74 37.912 81.74 39.716C81.74 40.772 81.806 41.85 81.872 42.114C82.004 42.576 81.938 42.62 80.992 42.62C80.222 42.62 79.98 42.532 79.98 42.268C79.98 41.96 79.936 41.96 79.496 42.268C78.792 42.774 77.428 42.708 76.9 42.18C75.47 40.75 76.658 38.88 78.99 38.88C79.694 38.88 79.782 38.814 79.716 38.374C79.628 37.78 78.44 37.516 78.44 38.088C78.44 38.352 78.198 38.44 77.45 38.44C76.636 38.44 76.46 38.374 76.46 38.044C76.46 37.56 77.208 36.812 78 36.482C78.308 36.35 78.99 36.284 79.54 36.328C80.288 36.394 80.662 36.57 81.124 37.098ZM69.64 39.54V42.62H68.65H67.66V39.54V36.46H68.65H69.64V39.54ZM85.92 41.872C85.92 42.62 85.92 42.62 84.93 42.62H83.94V41.784V40.97L84.93 41.036C85.898 41.124 85.92 41.146 85.92 41.872Z" fill="#FF4249"/>
<path d="M69.398 28.2542C69.068 28.6282 69.002 30.1462 69.244 30.7842C69.354 31.0482 69.64 31.1802 70.058 31.1802C70.608 31.1802 70.74 31.0482 70.96 30.4322C71.51 28.7602 70.322 27.1102 69.398 28.2542Z" fill="#FF4249"/>
<path d="M63.326 37.9346C63.128 38.0006 63.04 38.5506 63.04 39.5626V41.0806H63.7C64.536 41.0806 64.888 40.4426 64.734 39.1446C64.602 37.9566 64.162 37.5826 63.326 37.9346Z" fill="#FF4249"/>
<path d="M78.4401 40.3103C78.1101 40.7063 78.3081 41.3003 78.7481 41.3003C79.4081 41.3003 79.7601 41.0143 79.7601 40.5083C79.7601 40.0903 79.6501 39.9803 79.2321 39.9803C78.9461 39.9803 78.5941 40.1343 78.4401 40.3103Z" fill="#FF4249"/>
</svg>
