<svg width="156" height="54" viewBox="0 0 156 54" fill="none" xmlns="http://www.w3.org/2000/svg">
<path d="M68.8749 16.5308C67.5175 19.5942 65.9435 23.3308 65.8522 23.7011C65.7838 23.9592 65.8864 24.0826 66.7647 24.812C69.6163 27.1909 71.293 29.8951 72.0116 33.2615C72.0572 33.5083 72.137 33.5645 72.4108 33.5645H72.753V29.5473C72.753 25.777 72.7416 25.5189 72.5249 25.1823C72.2625 24.7446 71.9431 24.5651 71.715 24.711C71.4527 24.8681 71.1561 24.8344 71.2245 24.6437C71.2702 24.5427 71.2245 24.4753 71.1219 24.4753C71.0078 24.4753 70.9736 24.3968 71.0078 24.2509C71.042 24.1163 70.871 23.645 70.5972 23.0951C69.3311 20.5704 70.312 18.6404 72.867 18.6404C74.2472 18.6404 75.2167 19.2014 75.4791 20.144C75.5361 20.3796 75.6844 20.6377 75.7985 20.7163C75.9924 20.8509 75.981 20.8734 75.6844 20.9407C75.251 21.0529 75.2738 21.4793 75.73 21.9057C76.0038 22.1638 76.0608 22.2648 75.9581 22.3882C75.8897 22.4668 75.8099 22.8595 75.7756 23.241C75.7414 23.6338 75.6844 23.9816 75.6502 24.0153C75.616 24.0489 75.2624 24.0938 74.8631 24.105C73.962 24.1275 73.5286 24.3407 73.2549 24.8905C73.061 25.2833 73.0381 25.6648 73.0039 29.4351L72.9697 33.5645H73.3803C73.7339 33.5645 73.7795 33.5308 73.7795 33.2727C73.7795 32.8575 74.4981 30.7928 75.0228 29.6819C75.2738 29.1658 75.73 28.3691 76.0494 27.9202C76.6881 27.0113 78.3649 25.3057 79.4028 24.4978C79.7564 24.2173 80.053 23.9816 80.053 23.9592C80.053 23.847 78.4561 20.0654 77.2927 17.406C75.5703 13.4899 75.7642 13.6357 74.1217 15.1506C73.5286 15.7116 72.9811 16.1605 72.9241 16.1717C72.8556 16.1717 72.2967 15.7116 71.6808 15.1618C70.0269 13.6918 70.1752 13.6133 68.8749 16.5308Z" fill="black"/>
<path d="M45.0359 16.5751C42.4809 17.125 40.6103 18.9877 39.9487 21.6134C39.6864 22.7019 39.6864 25.1593 39.9487 26.158C40.7928 29.255 42.7661 30.9494 45.9826 31.3309C47.4312 31.4992 49.1536 31.2411 50.6021 30.6352L51.0812 30.4332L51.0584 26.6966L51.0242 22.9599H48.7429H46.4617V23.8015V24.6431L47.5225 24.6768L48.5718 24.7104V27.1118V29.5019L47.819 29.5804C45.1728 29.8609 43.3364 28.6715 42.6292 26.2141C42.5265 25.8325 42.4695 25.0583 42.4695 23.8015C42.4695 22.051 42.4923 21.9052 42.7889 21.1085C43.3478 19.6273 44.2375 18.7408 45.5378 18.3593C46.3248 18.1236 47.7734 18.1461 49.1079 18.4154C50.6478 18.7184 50.7048 18.7184 50.9101 18.2358C51.2295 17.484 51.1154 17.3045 50.0546 16.9342C48.5946 16.4068 46.4959 16.2609 45.0359 16.5751Z" fill="#EA148D"/>
<path d="M9.6765 16.8332C9.53962 17.1025 9.51681 30.7361 9.66509 30.9606C9.72212 31.0616 10.0187 31.0952 10.7145 31.0728L11.6726 31.0391L11.6612 26.719C11.6612 24.3401 11.627 22.1295 11.5927 21.8041C11.5585 21.4899 11.5585 21.2206 11.6042 21.2206C11.6498 21.2206 12.5509 23.3302 13.6002 25.9223C14.6496 28.5031 15.5849 30.7249 15.6762 30.8596C15.8245 31.0728 15.9613 31.0952 16.851 31.0952C17.524 31.0952 17.9004 31.0503 17.9802 30.9493C18.0373 30.882 18.6646 29.4457 19.3718 27.785C21.6188 22.4662 22.1321 21.2767 22.2348 21.1757C22.2918 21.1084 22.3032 21.6919 22.2462 22.5223C22.2006 23.319 22.1663 25.5632 22.1663 27.5045V31.0391H23.364H24.5617V23.8576V16.6761L23.4895 16.6424C22.2006 16.6087 22.1549 16.6312 21.6188 17.8992C21.4021 18.3929 20.5467 20.3229 19.7254 22.1744C18.8927 24.0259 17.9802 26.0794 17.6837 26.7414C17.3985 27.4035 17.1134 27.9084 17.0677 27.8635C17.0107 27.8074 16.6229 26.921 16.1895 25.8662C15.756 24.8226 14.969 22.9375 14.4329 21.6695C13.9082 20.4015 13.2467 18.8417 12.9843 18.1909C12.7106 17.5401 12.3912 16.9229 12.2657 16.8107C12.0946 16.6536 11.8323 16.62 10.9198 16.62C9.92743 16.62 9.79056 16.6424 9.6765 16.8332Z" fill="#EA148D"/>
<path d="M31.7817 16.8105C31.6106 17.0125 25.9873 30.7696 25.9873 30.994C25.9873 31.0613 26.3637 31.095 26.9911 31.0725L27.9834 31.0389L28.6906 29.2996L29.3978 27.5603H32.3178H35.2492L35.9336 29.2435C36.31 30.1636 36.675 30.9603 36.7434 31.0052C36.9259 31.1174 39.1843 31.1174 39.2528 31.0052C39.2984 30.9491 35.4887 21.4336 34.4507 18.9762C34.3823 18.8191 34.1656 18.2917 33.9717 17.7979C33.7778 17.3042 33.5268 16.8329 33.4356 16.7544C33.139 16.5412 31.987 16.5748 31.7817 16.8105ZM32.6029 20.0646C32.717 20.4798 33.1961 21.9385 33.6751 23.2963C34.1542 24.654 34.542 25.7986 34.542 25.8435C34.542 25.8884 33.5382 25.9332 32.3178 25.9332C31.0973 25.9332 30.0936 25.8996 30.0936 25.8435C30.0936 25.7986 30.4928 24.6316 30.9832 23.2402C31.4851 21.8488 31.9756 20.3788 32.0896 19.9524C32.2037 19.5372 32.3178 19.223 32.3406 19.2455C32.3748 19.2679 32.4889 19.6382 32.6029 20.0646Z" fill="#EA148D"/>
<path d="M53.3165 16.7999C53.2823 16.9009 53.248 20.1326 53.248 23.9815V30.9834L53.5104 31.0732C53.6473 31.1181 55.016 31.1293 56.5559 31.0957C59.7724 31.0171 60.0576 30.9498 61.5518 29.9399C64.1866 28.1557 65.2702 24.5986 64.2095 21.2211C63.5023 18.9881 61.4948 17.1141 59.4188 16.7326C59.088 16.6653 57.5824 16.6204 56.0996 16.6204C53.7271 16.6204 53.3735 16.6429 53.3165 16.7999ZM59.1793 18.7075C59.9549 19.0666 60.7876 19.8633 61.1982 20.6712C61.7229 21.6811 61.9168 22.5564 61.9168 23.8132C61.9168 26.2481 60.913 28.2679 59.3276 29.031C58.7345 29.3227 58.5748 29.3452 57.2516 29.3452L55.8145 29.3564L55.7802 24.0264C55.7688 21.0976 55.7802 18.629 55.8145 18.5392C55.9171 18.2924 58.5291 18.4158 59.1793 18.7075Z" fill="#EA148D"/>
<path d="M81.4335 16.7664C81.3422 16.8898 81.3194 18.7638 81.3308 23.9816L81.3651 31.0397L85.2318 31.0733C87.9921 31.0958 89.1441 31.0621 89.2468 30.9724C89.4521 30.804 89.4635 29.7044 89.2582 29.5361C89.1555 29.4575 88.186 29.4014 86.4865 29.3902L83.8744 29.3565L83.8174 23.0166L83.7604 16.6766L82.6654 16.643C81.8327 16.6205 81.5361 16.6542 81.4335 16.7664Z" fill="#EA148D"/>
<path d="M90.9457 16.7551C90.9115 16.8336 90.9001 20.0765 90.9115 23.9702L90.9457 31.0396H94.8809H98.816V30.2541V29.4686L96.1128 29.4349L93.3981 29.4125V27.0561V24.6996H95.5538C97.9834 24.6996 97.8465 24.7557 97.8465 23.8019C97.8465 22.8481 97.9834 22.9042 95.5538 22.9042H93.3981V20.66V18.4158L96.1128 18.3933L98.816 18.3597L98.8503 17.5854C98.8731 17.0356 98.8388 16.7775 98.7362 16.7214C98.6563 16.6653 96.877 16.6204 94.7896 16.6204C91.8582 16.6204 90.9799 16.6541 90.9457 16.7551Z" fill="#EA148D"/>
<path d="M100.892 16.6985C100.847 16.7321 100.812 19.9975 100.812 23.9361V31.1064L101.93 31.0727L103.037 31.0391L103.014 26.0569C103.002 23.016 103.037 21.1196 103.105 21.1869C103.162 21.243 103.584 21.8826 104.04 22.6008C106.39 26.3374 109.071 30.5341 109.287 30.7922C109.527 31.0727 109.595 31.0952 110.542 31.1176C111.306 31.1288 111.58 31.0952 111.66 30.9717C111.82 30.7136 111.797 16.9229 111.626 16.7546C111.443 16.575 109.687 16.575 109.504 16.7546C109.322 16.9341 109.322 21.2542 109.493 24.3625C109.561 25.5856 109.595 26.6516 109.572 26.7189C109.55 26.7975 107.132 23.1169 105.227 20.0536C102.923 16.3731 103.162 16.6199 101.919 16.6199C101.394 16.6199 100.927 16.6536 100.892 16.6985Z" fill="#EA148D"/>
<path d="M113.93 16.833C113.804 17.0687 113.758 30.5901 113.884 30.9155C113.941 31.0726 114.409 31.0951 117.865 31.0951C122.233 31.0951 121.914 31.1624 121.914 30.2535C121.914 29.3558 122.096 29.4119 119.108 29.4119H116.439V27.0555V24.699H118.526C119.998 24.699 120.659 24.6541 120.75 24.5644C120.83 24.4858 120.887 24.1492 120.887 23.8013C120.887 23.4535 120.83 23.1169 120.75 23.0383C120.659 22.9485 119.998 22.9037 118.526 22.9037H116.439V20.6594V18.4152H119.108C122.108 18.4152 121.914 18.4825 121.914 17.5175C121.914 16.5413 122.256 16.6198 117.91 16.6198C114.215 16.6198 114.044 16.631 113.93 16.833Z" fill="#EA148D"/>
<path d="M72.822 35.5841C72.149 35.7861 72.092 36.4145 72.6965 36.8633C73.3466 37.357 73.1413 37.9293 72.3543 37.7834C72.0349 37.7161 71.9551 37.7385 71.9551 37.8844C71.9551 38.1425 73.0045 38.1201 73.244 37.8508C73.6204 37.4468 73.4493 36.897 72.8562 36.594C72.5254 36.4145 72.571 35.9432 72.9246 35.8534C73.0843 35.8197 73.2896 35.8085 73.3809 35.8534C73.4835 35.8871 73.552 35.8534 73.552 35.7636C73.552 35.6402 73.2668 35.4382 73.1755 35.4831C73.1641 35.4831 73.0045 35.5392 72.822 35.5841Z" fill="black"/>
<path d="M95.3828 35.8646C95.3258 36.2125 95.2688 36.2574 94.9722 36.2574C94.7897 36.2574 94.5388 36.3135 94.4133 36.3696C93.9571 36.6164 93.6833 37.6151 93.9913 37.9181C94.1624 38.0864 94.6871 38.0864 94.8582 37.9181C94.9608 37.8171 94.995 37.8171 94.995 37.9181C94.995 37.9966 95.0635 38.0527 95.1547 38.0527C95.246 38.0527 95.3372 37.8732 95.3714 37.5702C95.4171 37.3121 95.5197 36.7286 95.611 36.2798C95.7364 35.6065 95.7364 35.4719 95.611 35.4719C95.5311 35.4719 95.4285 35.6514 95.3828 35.8646ZM95.1661 36.897C95.0635 37.5029 94.8011 37.8508 94.5046 37.8059C94.3107 37.7834 94.2422 37.6824 94.2194 37.4131C94.1738 36.9867 94.6072 36.4818 95.0064 36.4818C95.2232 36.4818 95.246 36.5267 95.1661 36.897Z" fill="black"/>
<path d="M144.464 35.5504C144.418 35.5841 144.384 35.7636 144.384 35.9432C144.384 36.2237 144.35 36.2574 143.974 36.2574C143.392 36.2574 142.901 36.7511 142.901 37.3458C142.901 37.5927 142.958 37.8395 143.038 37.9181C143.209 38.0864 143.734 38.0864 143.905 37.9181C144.008 37.8171 144.042 37.8171 144.042 37.9181C144.042 37.9966 144.122 38.0527 144.213 38.0527C144.327 38.0527 144.384 37.9405 144.384 37.7385C144.396 37.5702 144.487 36.9979 144.601 36.4481C144.761 35.73 144.772 35.4719 144.669 35.4719C144.601 35.4719 144.498 35.5055 144.464 35.5504ZM144.179 36.9194C144.088 37.8059 143.346 38.1874 143.266 37.3907C143.221 36.9418 143.62 36.4593 143.985 36.5042C144.167 36.5267 144.202 36.6052 144.179 36.9194Z" fill="black"/>
<path d="M87.2393 35.7526C87.2393 35.8424 87.3191 35.9209 87.4104 35.9209C87.5016 35.9209 87.5814 35.8424 87.5814 35.7526C87.5814 35.6628 87.5016 35.5843 87.4104 35.5843C87.3191 35.5843 87.2393 35.6628 87.2393 35.7526Z" fill="black"/>
<path d="M96.5918 35.7531C96.5918 35.8653 96.6716 35.9214 96.7971 35.8989C97.0366 35.854 97.0138 35.6521 96.7743 35.6072C96.6602 35.5847 96.5918 35.6408 96.5918 35.7531Z" fill="black"/>
<path d="M105.375 35.7526C105.375 35.8424 105.455 35.9209 105.546 35.9209C105.637 35.9209 105.717 35.8424 105.717 35.7526C105.717 35.6628 105.637 35.5843 105.546 35.5843C105.455 35.5843 105.375 35.6628 105.375 35.7526Z" fill="black"/>
<path d="M129.214 35.7526C129.214 35.8424 129.294 35.9209 129.385 35.9209C129.476 35.9209 129.556 35.8424 129.556 35.7526C129.556 35.6628 129.476 35.5843 129.385 35.5843C129.294 35.5843 129.214 35.6628 129.214 35.7526Z" fill="black"/>
<path d="M139.651 35.6962C139.617 35.7635 139.662 35.842 139.765 35.8757C139.982 35.9655 140.107 35.8757 139.993 35.7074C139.902 35.5503 139.742 35.5503 139.651 35.6962Z" fill="black"/>
<path d="M85.6767 35.9993C85.6311 36.1115 85.517 36.2574 85.4258 36.3359C85.2889 36.4369 85.2889 36.4706 85.3915 36.4818C85.5056 36.4818 85.5284 36.6613 85.46 37.2673L85.3801 38.0527H85.6881C85.8478 38.0527 85.9847 37.9966 85.9847 37.9405C85.9847 37.8732 85.939 37.8283 85.8706 37.8283C85.5854 37.8283 85.825 36.5828 86.1215 36.5154C86.3725 36.4481 86.3953 36.2574 86.1558 36.2574C86.0645 36.2574 85.9847 36.1564 85.9847 36.0329C85.9847 35.7524 85.7793 35.7412 85.6767 35.9993Z" fill="black"/>
<path d="M106.664 36.0333C106.63 36.1567 106.527 36.2577 106.447 36.2577C106.253 36.2577 106.23 36.4485 106.413 36.5046C106.504 36.5382 106.504 36.7178 106.402 37.1891C106.333 37.5369 106.299 37.8736 106.344 37.9409C106.436 38.0868 106.972 38.0868 106.972 37.9409C106.972 37.8736 106.892 37.8287 106.801 37.8287C106.595 37.8287 106.595 37.7838 106.755 37.0432C106.846 36.6056 106.926 36.4821 107.097 36.4821C107.211 36.4821 107.314 36.426 107.314 36.3699C107.314 36.3026 107.234 36.2577 107.143 36.2577C107.052 36.2577 106.972 36.1567 106.972 36.0333C106.972 35.9099 106.915 35.8089 106.846 35.8089C106.778 35.8089 106.698 35.9099 106.664 36.0333Z" fill="black"/>
<path d="M74.3838 36.5603C74.3382 36.7399 74.304 37.1214 74.304 37.4356C74.2926 37.963 74.3154 37.9966 74.6006 38.0303C74.7716 38.0527 75.0226 38.0078 75.1595 37.9405C75.3306 37.8508 75.3762 37.8395 75.3306 37.9293C75.2849 37.9966 75.3191 38.0527 75.4104 38.0527C75.5245 38.0527 75.6157 37.8283 75.707 37.3234C75.7754 36.9194 75.8666 36.5154 75.9009 36.4257C75.9465 36.3247 75.9009 36.2574 75.7868 36.2574C75.6841 36.2574 75.5815 36.3808 75.5473 36.5379C75.5131 36.695 75.456 36.9531 75.4218 37.1214C75.342 37.5141 75.0568 37.8283 74.7831 37.8283C74.5435 37.8283 74.5093 37.4019 74.6804 36.6725C74.7602 36.3471 74.7488 36.2574 74.6234 36.2574C74.5435 36.2574 74.4295 36.392 74.3838 36.5603Z" fill="black"/>
<path d="M76.597 37.3904C76.483 38.0076 76.3803 38.5686 76.3689 38.6359C76.3575 38.7033 76.4031 38.7706 76.483 38.8043C76.5628 38.8379 76.6427 38.6921 76.6883 38.4676C76.7567 38.1086 76.8024 38.0749 77.1674 38.0861C77.7263 38.0973 78.2281 37.5587 78.2281 36.9528C78.2281 36.7171 78.1711 36.4703 78.0913 36.3917C77.9202 36.2234 77.3955 36.2234 77.2244 36.3917C77.1217 36.4927 77.0875 36.4927 77.0875 36.3917C77.0875 36.3132 77.0191 36.2571 76.9392 36.2571C76.848 36.2571 76.7225 36.6386 76.597 37.3904ZM77.8631 36.9303C77.8859 37.2109 77.8289 37.4016 77.6578 37.5812C77.4297 37.8168 76.8594 37.929 76.8594 37.727C76.8594 37.3904 77.0305 36.9079 77.2244 36.7059C77.5552 36.3581 77.8175 36.459 77.8631 36.9303Z" fill="black"/>
<path d="M78.9806 37.2333C78.878 37.7831 78.7639 38.3554 78.7297 38.5237C78.6841 38.7481 78.7069 38.8379 78.8323 38.8379C78.935 38.8379 79.0263 38.6808 79.0719 38.4564C79.1403 38.1197 79.1973 38.0636 79.4597 38.0749C80.2809 38.0973 80.8855 37.1659 80.5091 36.4702C80.3836 36.2458 79.7791 36.1673 79.6536 36.3692C79.6194 36.4253 79.5281 36.4815 79.4711 36.4815C79.4027 36.4815 79.3913 36.4253 79.4255 36.3692C79.4597 36.3019 79.4255 36.257 79.3342 36.257C79.2202 36.257 79.1175 36.5488 78.9806 37.2333ZM80.1441 36.6161C80.4977 36.964 80.0528 37.828 79.5281 37.828C79.3114 37.828 79.2544 37.7719 79.2544 37.5475C79.2544 37.1996 79.5281 36.6386 79.7334 36.56C79.9616 36.4702 79.9958 36.4702 80.1441 36.6161Z" fill="black"/>
<path d="M81.6843 36.4252C81.536 36.5262 81.3649 36.7955 81.2965 37.0424C81.1824 37.4127 81.1938 37.5249 81.3535 37.7717C81.593 38.1308 82.3002 38.1645 82.6082 37.8391C83.0416 37.379 83.053 36.616 82.631 36.3467C82.4143 36.2008 81.9466 36.2457 81.6843 36.4252ZM82.5626 36.7057C82.7565 37.0648 82.5055 37.6932 82.1405 37.783C81.5702 37.9288 81.3763 37.1882 81.844 36.6721C82.0835 36.414 82.4143 36.4252 82.5626 36.7057Z" fill="black"/>
<path d="M83.7262 37.0428C83.5551 38.0303 83.5551 38.0527 83.749 38.0527C83.8403 38.0527 83.9315 37.8732 83.9771 37.5702C84.0684 37.0204 84.3193 36.594 84.5588 36.594C84.6501 36.594 84.7299 36.5154 84.7299 36.4257C84.7299 36.2237 84.4904 36.2012 84.2965 36.392C84.1938 36.493 84.1596 36.493 84.1596 36.392C84.1596 36.3135 84.0912 36.2574 84.0113 36.2574C83.9201 36.2574 83.8174 36.5491 83.7262 37.0428Z" fill="black"/>
<path d="M87.0108 36.897C86.9423 37.256 86.8625 37.66 86.8283 37.7946C86.794 37.963 86.8283 38.0527 86.9309 38.0527C87.0336 38.0527 87.1476 37.8059 87.2389 37.3458C87.3073 36.9643 87.3986 36.5603 87.4328 36.4481C87.467 36.3359 87.4214 36.2574 87.3073 36.2574C87.1933 36.2574 87.102 36.4593 87.0108 36.897Z" fill="black"/>
<path d="M88.3229 36.5603C88.2773 36.7399 88.2088 37.0877 88.1404 37.3458C88.0035 37.9742 88.0035 38.0527 88.1974 38.0527C88.3115 38.0527 88.3913 37.8732 88.4484 37.5366C88.5396 36.9194 88.9388 36.4032 89.2354 36.5154C89.3951 36.5828 89.4179 36.6838 89.3609 37.1326C89.3152 37.4244 89.2582 37.7498 89.224 37.8508C89.1898 37.9854 89.224 38.0527 89.3381 38.0527C89.5091 38.0527 89.8057 36.9979 89.7259 36.6389C89.6688 36.3135 89.3381 36.19 88.9502 36.3359C88.7677 36.4032 88.6081 36.4144 88.6081 36.3583C88.6081 36.1227 88.3799 36.2798 88.3229 36.5603Z" fill="black"/>
<path d="M90.8544 36.5265C90.2726 37.0539 90.3183 37.9629 90.9228 38.0302C91.1053 38.0526 91.322 38.0077 91.4133 37.9292C91.6756 37.716 91.6186 38.1199 91.3334 38.4005C91.1623 38.5688 91.0026 38.6249 90.7631 38.5688C90.4095 38.5015 90.2042 38.6586 90.5008 38.7708C91.2536 39.0513 91.7441 38.6249 91.9836 37.4579C92.0862 36.9754 92.1319 36.5041 92.0976 36.4143C91.995 36.145 91.1966 36.2124 90.8544 36.5265ZM91.8011 36.6163C91.8011 36.9978 91.5387 37.615 91.3334 37.7272C90.7973 38.0077 90.5692 37.2335 91.0597 36.7622C91.3448 36.4704 91.8011 36.3807 91.8011 36.6163Z" fill="black"/>
<path d="M96.3756 37.0316C96.2159 38.0191 96.2159 38.0527 96.4098 38.0527C96.501 38.0527 96.5923 37.8732 96.6265 37.5702C96.6607 37.3121 96.7292 36.9082 96.7748 36.6725C96.8318 36.3471 96.809 36.2574 96.6835 36.2574C96.5581 36.2574 96.4782 36.4818 96.3756 37.0316Z" fill="black"/>
<path d="M97.5049 36.3133C97.5049 36.3582 97.6874 37.2671 97.8014 37.7945C97.8927 38.2433 98.1322 38.075 98.6227 37.2222C99.1474 36.3133 99.1702 36.2572 98.9535 36.2572C98.8736 36.2572 98.6455 36.5714 98.4516 36.9529C98.0638 37.7047 98.0296 37.6935 97.9041 36.7846C97.8585 36.4367 97.7786 36.2572 97.6646 36.2572C97.5733 36.2572 97.5049 36.2796 97.5049 36.3133Z" fill="black"/>
<path d="M99.9004 36.4934C99.6723 36.6842 99.6266 36.8301 99.6152 37.3014C99.6152 37.7951 99.6495 37.8961 99.8776 38.0083C100.163 38.143 100.71 38.0644 100.779 37.8736C100.801 37.8063 100.653 37.7839 100.425 37.8063C100.129 37.84 100.003 37.7951 99.9118 37.6268C99.7635 37.3575 99.8434 37.2677 100.231 37.2677C100.608 37.2677 101.041 36.976 101.041 36.7179C101.041 36.2354 100.379 36.1007 99.9004 36.4934ZM100.699 36.6954C100.699 36.9198 100.494 37.0433 100.117 37.0433C99.8548 37.0433 99.8434 36.9535 100.094 36.6842C100.345 36.4149 100.699 36.4149 100.699 36.6954Z" fill="black"/>
<path d="M101.805 36.7286C101.771 36.9979 101.702 37.4019 101.657 37.6263C101.6 37.963 101.611 38.0527 101.759 38.0527C101.874 38.0527 101.953 37.8844 102.01 37.5253C102.067 37.1438 102.181 36.9082 102.432 36.6838C102.797 36.3471 102.786 36.1115 102.41 36.3471C102.273 36.4257 102.181 36.4369 102.181 36.3696C102.181 36.3135 102.113 36.2574 102.022 36.2574C101.931 36.2574 101.839 36.4369 101.805 36.7286Z" fill="black"/>
<path d="M103.504 36.4368C103.242 36.6837 103.276 36.8969 103.618 37.211C103.995 37.5589 103.915 37.8282 103.436 37.8282C103.253 37.8282 103.094 37.8843 103.094 37.9516C103.094 38.019 103.288 38.0526 103.573 38.0302C103.995 37.9965 104.075 37.9516 104.177 37.6711C104.28 37.3906 104.246 37.3233 103.961 37.0988C103.573 36.7959 103.618 36.4817 104.063 36.4817C104.223 36.4817 104.348 36.4256 104.348 36.3695C104.348 36.1899 103.698 36.2348 103.504 36.4368Z" fill="black"/>
<path d="M105.26 36.291C105.26 36.392 105.009 37.6824 104.964 37.8508C104.93 37.9854 104.964 38.0527 105.078 38.0527C105.192 38.0527 105.283 37.8508 105.374 37.4019C105.443 37.0541 105.534 36.6501 105.568 36.5042C105.614 36.3247 105.58 36.2574 105.443 36.2574C105.34 36.2574 105.26 36.2686 105.26 36.291Z" fill="black"/>
<path d="M107.884 36.3917C107.895 36.4702 107.964 36.863 108.055 37.2669C108.215 38.0412 108.158 38.2993 107.77 38.5013C107.508 38.6359 107.473 38.8379 107.702 38.8379C107.952 38.8379 108.534 38.1197 108.968 37.2669C109.401 36.4254 109.447 36.257 109.23 36.257C109.15 36.257 108.956 36.5376 108.808 36.8742C108.66 37.2108 108.5 37.4689 108.454 37.4353C108.397 37.4016 108.329 37.1211 108.283 36.8181C108.226 36.4478 108.146 36.257 108.044 36.257C107.952 36.257 107.884 36.3244 107.884 36.3917Z" fill="black"/>
<path d="M112.367 36.4256C112.002 36.6837 111.819 37.3009 112.013 37.6824C112.139 37.9517 112.23 37.9966 112.652 37.9966C112.914 37.9966 113.12 37.9517 113.108 37.8844C113.085 37.8283 112.96 37.7946 112.812 37.817C112.515 37.8507 112.218 37.6599 112.218 37.4243C112.218 37.3233 112.355 37.2672 112.595 37.2672C113.268 37.2672 113.701 36.751 113.336 36.392C113.142 36.2012 112.663 36.2236 112.367 36.4256ZM113.085 36.6164C113.177 36.7623 112.834 37.0428 112.538 37.0428C112.287 37.0428 112.276 36.8969 112.515 36.6613C112.72 36.4481 112.971 36.4256 113.085 36.6164Z" fill="black"/>
<path d="M114.158 37.0984C114.021 37.9063 114.067 38.2766 114.261 37.9512C114.318 37.8614 114.398 37.6033 114.432 37.3564C114.512 36.9076 114.877 36.4363 115.105 36.5149C115.253 36.5597 115.276 37.1208 115.162 37.6818C115.093 37.9624 115.116 38.0521 115.242 38.0521C115.344 38.0521 115.447 37.8277 115.527 37.435C115.664 36.8066 115.869 36.4812 116.154 36.4812C116.371 36.4812 116.428 36.7168 116.314 37.2779C116.188 37.9624 116.188 38.0521 116.371 38.0521C116.565 38.0521 116.804 36.7393 116.645 36.4475C116.53 36.2343 116.188 36.2007 115.846 36.3802C115.686 36.47 115.584 36.47 115.493 36.3802C115.321 36.2119 114.922 36.2231 114.751 36.3914C114.648 36.4924 114.614 36.4924 114.614 36.3914C114.614 36.3129 114.546 36.2568 114.455 36.2568C114.352 36.2568 114.261 36.5373 114.158 37.0984Z" fill="black"/>
<path d="M117.522 37.2894C117.42 37.8617 117.305 38.4452 117.271 38.5798C117.226 38.7593 117.26 38.8379 117.385 38.8379C117.488 38.8379 117.579 38.692 117.625 38.4564C117.693 38.0861 117.739 38.0636 118.184 38.03C118.572 38.0075 118.697 37.929 118.914 37.6148C119.359 36.964 119.199 36.257 118.606 36.257C118.423 36.257 118.241 36.3019 118.207 36.3692C118.172 36.4254 118.081 36.4815 118.024 36.4815C117.956 36.4815 117.944 36.4254 117.978 36.3692C118.013 36.3019 117.978 36.257 117.887 36.257C117.762 36.257 117.659 36.5488 117.522 37.2894ZM118.697 36.6161C119.051 36.964 118.606 37.828 118.07 37.828C117.796 37.828 117.785 37.7943 117.842 37.424C117.967 36.6722 118.366 36.2907 118.697 36.6161Z" fill="black"/>
<path d="M120.237 36.4256C119.872 36.6837 119.689 37.3009 119.883 37.6824C120.02 37.9517 120.1 37.9966 120.533 37.9966C120.933 37.9966 121.081 37.9405 121.252 37.7161C121.537 37.3233 121.56 36.6052 121.286 36.4144C121.001 36.2124 120.545 36.2124 120.237 36.4256ZM121.138 36.7623C121.423 37.3794 120.625 38.1761 120.237 37.6487C119.952 37.2672 120.328 36.4817 120.796 36.4817C120.91 36.4817 121.058 36.6052 121.138 36.7623Z" fill="black"/>
<path d="M122.256 36.6389C122.256 37.3907 122.393 38.0527 122.552 38.0527C122.644 38.0527 122.86 37.7722 123.031 37.4244C123.305 36.8745 123.351 36.8296 123.408 37.0653C123.454 37.2111 123.488 37.4917 123.499 37.6824C123.522 38.3108 123.819 38.1201 124.309 37.155C124.663 36.4593 124.731 36.2574 124.594 36.2574C124.48 36.2574 124.286 36.5379 124.092 36.9531L123.773 37.66L123.693 36.9531C123.647 36.5154 123.556 36.2574 123.476 36.2574C123.396 36.2574 123.168 36.5715 122.974 36.9531L122.609 37.66V37.1326C122.598 36.8521 122.564 36.5379 122.53 36.4369C122.404 36.1339 122.256 36.2461 122.256 36.6389Z" fill="black"/>
<path d="M125.541 36.448C125.084 36.9641 124.982 37.5701 125.29 37.8731C125.506 38.0863 126.362 38.1199 126.362 37.9067C126.362 37.8282 126.202 37.7721 125.94 37.7721C125.575 37.7721 125.495 37.7272 125.472 37.514C125.438 37.312 125.484 37.2671 125.723 37.2671C126.099 37.2671 126.556 37.0539 126.636 36.8519C126.67 36.7622 126.647 36.5938 126.59 36.4704C126.43 36.1899 125.78 36.1787 125.541 36.448ZM126.316 36.6163C126.407 36.7622 126.065 37.0427 125.769 37.0427C125.506 37.0427 125.506 36.7509 125.769 36.6051C126.031 36.448 126.214 36.448 126.316 36.6163Z" fill="black"/>
<path d="M127.4 36.9531C127.32 37.3458 127.24 37.7498 127.206 37.8508C127.172 37.9854 127.206 38.0527 127.309 38.0527C127.491 38.0527 127.617 37.8171 127.617 37.4805C127.617 37.155 127.936 36.594 128.119 36.594C128.21 36.594 128.301 36.5154 128.347 36.4257C128.438 36.1788 128.005 36.2125 127.856 36.4481C127.742 36.6389 127.742 36.6389 127.731 36.4481C127.731 35.9993 127.526 36.3022 127.4 36.9531Z" fill="black"/>
<path d="M128.985 36.897C128.917 37.256 128.826 37.66 128.792 37.7946C128.746 37.9854 128.78 38.0527 128.917 38.0527C129.02 38.0527 129.099 38.0415 129.099 38.0191C129.099 37.9181 129.35 36.6277 129.396 36.4481C129.43 36.3247 129.396 36.2574 129.282 36.2574C129.168 36.2574 129.077 36.4593 128.985 36.897Z" fill="black"/>
<path d="M130.298 36.5603C130.252 36.7399 130.183 37.0877 130.115 37.3458C129.978 37.9742 129.978 38.0527 130.172 38.0527C130.286 38.0527 130.366 37.8732 130.423 37.5366C130.514 36.9194 130.913 36.4032 131.21 36.5154C131.381 36.5828 131.404 36.6838 131.335 37.155C131.29 37.4692 131.233 37.7946 131.199 37.8844C131.153 37.9854 131.199 38.0527 131.301 38.0527C131.484 38.0527 131.78 37.0092 131.7 36.6389C131.643 36.3135 131.313 36.19 130.925 36.3359C130.742 36.4032 130.583 36.4144 130.583 36.3583C130.583 36.1227 130.355 36.2798 130.298 36.5603Z" fill="black"/>
<path d="M132.807 36.5257C132.249 37.0756 132.306 37.962 132.899 38.0294C133.081 38.0518 133.298 38.0069 133.389 37.9284C133.515 37.8274 133.549 37.8386 133.549 37.9845C133.549 38.2987 133.115 38.6241 132.75 38.5904C132.568 38.568 132.42 38.6016 132.408 38.669C132.408 38.7251 132.579 38.7924 132.796 38.8148C133.435 38.8709 133.754 38.5007 133.948 37.4571C134.188 36.2115 134.199 36.2564 133.606 36.2564C133.207 36.2564 133.013 36.3238 132.807 36.5257ZM133.72 36.8848C133.617 37.4683 133.332 37.8498 133.047 37.8049C132.864 37.7825 132.796 37.6815 132.773 37.4122C132.728 36.9858 133.161 36.4808 133.56 36.4808C133.777 36.4808 133.8 36.5257 133.72 36.8848Z" fill="black"/>
<path d="M136.127 36.392C136.07 36.5828 135.83 37.8395 135.83 37.963C135.83 38.0078 135.899 38.0527 135.99 38.0527C136.081 38.0527 136.172 37.8732 136.218 37.6039C136.309 37.0316 136.503 36.6277 136.708 36.5491C137.039 36.4257 137.119 36.6052 137.039 37.3346C136.994 37.7946 137.005 38.0527 137.085 38.0527C137.142 38.0527 137.222 37.9181 137.267 37.7385C137.484 36.7511 137.724 36.392 138.066 36.5267C138.214 36.5828 138.237 36.695 138.18 37.1326C138.134 37.4244 138.077 37.7498 138.043 37.8508C138.009 37.9854 138.043 38.0527 138.157 38.0527C138.248 38.0527 138.351 37.9181 138.385 37.7385C138.579 36.796 138.59 36.5828 138.454 36.4257C138.271 36.2125 137.838 36.2125 137.621 36.4257C137.473 36.5715 137.438 36.5715 137.381 36.4257C137.301 36.2237 136.731 36.2012 136.537 36.392C136.435 36.493 136.4 36.493 136.4 36.392C136.4 36.2125 136.172 36.2237 136.127 36.392Z" fill="black"/>
<path d="M139.537 36.5042C139.206 37.9742 139.195 38.0527 139.411 38.0527C139.525 38.0527 139.617 37.8059 139.708 37.2336C139.788 36.796 139.868 36.392 139.902 36.3359C139.925 36.291 139.868 36.2574 139.776 36.2574C139.674 36.2574 139.571 36.3696 139.537 36.5042Z" fill="black"/>
<path d="M140.791 36.392C140.734 36.5603 140.506 37.8171 140.506 37.963C140.506 38.0078 140.574 38.0527 140.666 38.0527C140.757 38.0527 140.848 37.8732 140.894 37.6039C140.996 36.9867 141.19 36.6052 141.453 36.5267C141.818 36.4145 141.909 36.6277 141.772 37.2673C141.612 37.9966 141.612 38.0527 141.806 38.0527C142.023 38.0527 142.251 36.7623 142.091 36.4706C141.966 36.2349 141.635 36.19 141.293 36.3696C141.145 36.4481 141.076 36.4481 141.076 36.3696C141.076 36.2125 140.848 36.2237 140.791 36.392Z" fill="black"/>
<path d="M145.548 36.3918C145.319 36.6162 145.388 36.9865 145.707 37.2558C146.072 37.57 146.004 37.772 145.548 37.772C145.331 37.772 145.183 37.8281 145.183 37.9066C145.183 38.1535 146.061 38.0862 146.209 37.8393C146.38 37.5139 146.357 37.3905 146.027 37.0987C145.673 36.7733 145.73 36.4816 146.152 36.4816C146.312 36.4816 146.437 36.4254 146.437 36.3693C146.437 36.2122 145.707 36.2347 145.548 36.3918Z" fill="black"/>
<path d="M109.573 38.0531C109.436 38.3785 109.425 38.502 109.527 38.502C109.664 38.502 110.052 37.9409 110.052 37.7277C110.052 37.4359 109.755 37.6379 109.573 38.0531Z" fill="black"/>
</svg>
