<?xml version="1.0" standalone="no"?>
<!DOCTYPE svg PUBLIC "-//W3C//DTD SVG 20010904//EN"
 "http://www.w3.org/TR/2001/REC-SVG-20010904/DTD/svg10.dtd">
<svg version="1.0" xmlns="http://www.w3.org/2000/svg"
 width="2148.000000pt" height="2148.000000pt" viewBox="0 0 2148.000000 2148.000000"
 preserveAspectRatio="xMidYMid meet">
<metadata>
Created by potrace 1.14, written by Peter Selinger 2001-2017
</metadata>
<g transform="translate(0.000000,2148.000000) scale(0.100000,-0.100000)"
fill="#000000" stroke="none">
<path d="M10988 14568 c-133 -23 -233 -134 -242 -268 -2 -34 -6 -63 -9 -66 -2
-3 -31 7 -63 22 -130 59 -375 140 -449 148 -11 1 -25 5 -30 8 -6 3 -30 9 -55
12 -25 3 -56 8 -70 11 -175 39 -561 39 -790 2 -124 -21 -138 -23 -142 -27 -3
-2 -7 -2 -63 -15 -35 -7 -35 -7 -95 -25 -25 -8 -47 -14 -50 -15 -15 -3 -88
-28 -105 -35 -11 -5 -54 -22 -95 -38 -83 -33 -199 -89 -275 -133 -27 -16 -59
-33 -70 -38 -12 -5 -27 -16 -34 -25 -7 -9 -17 -16 -22 -16 -16 0 -190 -128
-279 -205 -60 -52 -224 -218 -265 -269 -22 -27 -47 -56 -55 -66 -8 -10 -22
-28 -30 -40 -8 -12 -25 -34 -38 -48 -12 -15 -25 -35 -28 -44 -3 -10 -10 -18
-15 -18 -5 0 -9 -5 -9 -10 0 -6 -10 -25 -22 -43 -12 -18 -29 -43 -39 -57 -39
-59 -168 -327 -185 -385 -2 -5 -10 -30 -20 -55 -38 -105 -86 -282 -98 -365 -2
-11 -6 -31 -9 -45 -33 -135 -41 -585 -13 -715 2 -11 7 -42 10 -70 10 -71 16
-107 21 -115 2 -4 7 -22 10 -41 3 -19 11 -52 17 -74 5 -22 11 -44 13 -50 1 -5
4 -17 7 -25 3 -8 23 -64 43 -125 21 -60 54 -144 73 -185 19 -41 36 -77 37 -80
5 -19 59 -116 66 -118 5 -2 9 -10 9 -17 0 -17 136 -220 208 -310 185 -230 452
-462 677 -587 190 -106 444 -217 555 -243 17 -4 98 -24 120 -29 61 -16 173
-38 210 -42 53 -5 105 -12 105 -14 0 -5 127 -9 265 -10 152 -1 235 4 315 16
22 3 54 8 70 9 17 2 30 4 30 5 0 1 14 4 30 6 17 2 41 7 55 11 14 3 30 7 35 9
6 1 24 5 42 8 18 3 42 10 55 15 13 5 28 9 33 10 53 8 231 71 340 120 36 17 65
27 65 23 0 -4 4 -2 8 4 4 6 34 24 67 41 89 45 138 73 158 91 9 8 17 12 17 8 0
-4 9 2 20 12 11 10 33 25 48 33 14 8 36 22 47 31 11 9 43 34 71 55 121 90 291
251 369 348 22 27 48 59 58 70 52 60 171 233 202 295 10 19 21 37 24 40 21 18
166 345 176 397 2 14 9 31 15 38 6 7 10 17 8 21 -1 5 5 32 15 59 9 28 19 61
21 75 3 14 5 25 6 25 2 0 7 24 15 69 4 21 9 48 11 60 9 39 21 120 31 206 7 60
7 1173 -1 2140 -3 444 -5 459 -56 533 -29 40 -87 90 -106 90 -8 0 -14 4 -14 8
0 4 -17 11 -37 15 -46 11 -864 12 -925 2z m-1138 -1637 c25 -7 56 -14 70 -17
39 -8 150 -54 200 -82 103 -59 230 -172 288 -257 15 -22 30 -42 33 -45 23 -18
125 -265 109 -265 -2 0 1 -9 7 -20 29 -54 33 -250 8 -386 -14 -80 -95 -279
-116 -287 -5 -2 -9 -8 -9 -13 0 -17 -105 -143 -157 -189 -26 -23 -66 -54 -88
-69 -22 -14 -42 -28 -45 -31 -9 -10 -155 -78 -191 -89 -149 -47 -332 -57 -478
-27 -282 59 -536 268 -650 536 -13 30 -24 59 -26 65 -1 5 -5 17 -8 25 -44 111
-50 347 -11 485 2 6 5 19 8 30 2 11 10 34 17 50 7 17 13 32 14 35 0 3 6 15 13
28 7 12 10 22 7 22 -7 0 77 134 87 138 4 2 8 8 8 13 0 6 10 20 23 33 12 13 39
41 59 62 65 68 164 144 186 144 6 0 12 4 14 8 2 4 32 20 68 35 36 16 74 33 85
38 22 10 102 28 154 35 19 2 36 6 38 8 8 8 241 -3 283 -13z"/>
<path d="M14708 14495 c-2 -1 -39 -5 -83 -8 -148 -11 -414 -65 -555 -113 -8
-3 -16 -5 -18 -4 -1 0 -16 -7 -32 -15 -17 -9 -30 -13 -30 -9 0 3 -11 -1 -25
-10 -13 -9 -29 -16 -34 -16 -5 0 -40 -14 -78 -32 -37 -17 -70 -32 -73 -33 -15
-5 -79 -38 -107 -55 -18 -11 -33 -17 -33 -14 0 2 -10 -4 -22 -16 -12 -11 -25
-20 -30 -20 -23 0 -338 -225 -338 -242 0 -4 -5 -8 -10 -8 -10 0 -206 -192
-265 -260 -107 -123 -315 -434 -315 -470 0 -6 -5 -10 -12 -10 -6 0 -9 -3 -5
-6 3 -3 -7 -31 -23 -63 -85 -169 -187 -492 -205 -651 -3 -25 -8 -61 -11 -80
-23 -154 -23 -495 0 -620 2 -14 7 -43 10 -65 3 -22 10 -65 16 -95 6 -30 13
-66 16 -78 4 -22 18 -74 44 -167 6 -22 23 -71 38 -110 14 -38 27 -72 28 -75 7
-30 111 -248 150 -313 58 -98 196 -300 225 -330 8 -7 32 -35 54 -62 85 -101
181 -190 384 -357 8 -7 58 -40 110 -75 53 -35 101 -67 106 -71 14 -12 309
-156 326 -160 8 -2 28 -10 44 -17 40 -18 203 -73 235 -79 14 -2 25 -5 25 -6 0
-2 7 -4 125 -29 52 -12 115 -24 140 -27 25 -3 59 -7 75 -9 153 -21 499 -20
609 1 11 2 38 6 61 9 72 11 95 15 183 36 48 11 94 22 103 24 9 2 58 17 110 34
383 128 704 326 986 611 52 52 120 126 151 165 31 38 63 76 71 83 8 6 11 12 5
12 -5 0 -4 4 2 8 6 4 26 30 44 57 19 28 37 52 42 53 4 2 8 7 8 12 0 4 18 37
39 72 41 67 161 301 161 313 0 4 6 21 14 38 29 63 94 269 111 352 3 11 7 31
10 45 9 42 14 72 20 115 4 22 9 56 12 75 20 129 25 462 9 570 -4 25 -9 63 -12
85 -3 22 -7 49 -9 60 -2 11 -6 36 -9 55 -3 19 -8 46 -12 60 -3 14 -9 41 -14
60 -7 32 -35 130 -44 155 -2 6 -7 25 -11 43 -4 18 -12 35 -16 38 -5 3 -9 16
-9 29 0 13 -4 26 -9 29 -5 3 -12 17 -15 31 -16 62 -196 411 -225 435 -3 3 -12
17 -20 32 -8 15 -22 36 -31 45 -9 10 -27 34 -40 54 -65 95 -289 330 -400 419
-30 25 -57 47 -60 51 -3 3 -27 20 -55 39 -27 19 -52 36 -55 40 -22 27 -409
240 -436 240 -3 0 -30 11 -60 25 -30 14 -61 25 -69 25 -9 0 -23 4 -33 9 -32
18 -37 19 -192 59 -110 29 -158 39 -225 48 -16 2 -46 7 -65 10 -19 3 -53 8
-75 10 -47 5 -393 13 -397 9z m367 -1545 c253 -68 456 -224 573 -440 37 -68
68 -141 77 -180 2 -8 4 -16 5 -17 4 -5 12 -46 26 -138 20 -123 -11 -349 -61
-446 -9 -16 -13 -29 -10 -29 4 0 -2 -12 -13 -27 -10 -16 -22 -35 -25 -43 -21
-48 -113 -164 -174 -220 -121 -111 -310 -208 -435 -224 -18 -3 -33 -5 -33 -6
0 -11 -217 -16 -270 -7 -16 3 -50 9 -75 12 -25 4 -49 10 -55 13 -5 4 -19 8
-30 9 -11 2 -40 13 -65 24 -25 12 -46 21 -48 20 -6 -3 -137 78 -176 109 -42
34 -156 151 -156 160 0 6 -4 10 -8 10 -11 0 -83 123 -111 190 -51 120 -64 187
-65 335 -1 172 12 249 61 361 9 21 16 42 15 47 -1 4 3 7 8 7 6 0 10 5 10 12 0
11 58 108 71 118 3 3 10 13 16 23 22 41 143 152 218 201 88 57 106 66 182 95
54 21 64 24 168 45 90 19 283 12 380 -14z"/>
<path d="M4348 14434 c-2 -1 -37 -5 -78 -8 -81 -7 -118 -12 -195 -27 -27 -5
-61 -11 -75 -14 -68 -13 -91 -18 -170 -41 -47 -14 -92 -28 -100 -31 -8 -4 -17
-7 -20 -8 -164 -41 -540 -241 -702 -374 -155 -125 -286 -252 -379 -363 -28
-35 -55 -65 -59 -68 -3 -3 -35 -48 -71 -100 -35 -52 -66 -97 -69 -100 -3 -3
-11 -15 -17 -27 -7 -13 -19 -33 -25 -45 -7 -13 -16 -25 -19 -28 -13 -11 -130
-260 -159 -340 -51 -137 -102 -312 -116 -395 -1 -11 -7 -47 -13 -80 -5 -33
-13 -89 -18 -125 -10 -84 -10 -457 0 -535 4 -33 9 -73 11 -90 11 -84 21 -131
51 -250 18 -71 45 -161 60 -200 14 -38 28 -77 30 -86 8 -36 126 -283 137 -287
4 -2 8 -8 8 -13 0 -10 121 -207 146 -239 7 -8 43 -53 80 -100 248 -313 546
-541 946 -725 74 -34 267 -98 371 -124 79 -20 286 -58 317 -59 8 0 51 -4 95
-7 97 -9 345 -12 345 -5 0 3 32 6 70 8 39 2 80 5 93 8 12 2 38 7 57 10 19 2
46 7 60 10 14 2 36 6 50 9 47 9 125 27 140 32 8 3 20 7 26 8 9 2 97 28 134 40
6 2 25 9 125 47 111 42 291 135 415 214 58 36 107 70 110 73 3 4 21 18 40 31
19 13 40 29 46 35 6 5 33 28 60 50 49 40 263 252 297 294 9 12 47 61 82 109
36 48 69 92 73 97 14 18 98 159 134 225 72 132 176 395 203 511 3 13 14 62 25
109 10 47 22 107 25 134 4 27 9 58 11 70 18 79 24 422 10 556 -13 125 -14 134
-20 165 -4 17 -11 53 -16 80 -15 81 -19 96 -44 185 -26 92 -77 242 -86 250 -3
3 -6 12 -8 20 -4 20 -113 241 -152 310 -29 50 -128 198 -140 210 -3 3 -25 31
-49 63 -72 95 -179 208 -293 313 -100 90 -323 254 -347 254 -5 0 -11 4 -13 10
-3 9 -312 170 -328 170 -4 0 -23 6 -41 14 -19 8 -37 15 -41 15 -4 1 -28 10
-53 21 -25 11 -47 20 -50 20 -3 0 -10 2 -17 5 -21 6 -123 35 -125 35 -2 0 -4
0 -5 1 -3 1 -20 5 -58 14 -37 9 -126 25 -200 36 -36 5 -83 12 -105 15 -39 6
-402 13 -407 8z m342 -1538 c36 -9 73 -18 82 -20 39 -10 146 -62 208 -100 133
-83 254 -215 323 -353 27 -53 79 -193 72 -193 -2 0 0 -11 5 -24 20 -55 28
-196 16 -301 -23 -201 -112 -383 -260 -530 -132 -131 -264 -204 -461 -251 -47
-12 -83 -14 -185 -15 -126 0 -182 8 -285 43 -149 51 -252 114 -361 223 -164
165 -252 364 -265 600 -10 176 56 404 160 550 56 78 74 97 175 190 29 27 133
89 193 116 38 17 76 35 86 40 11 6 21 8 24 5 3 -3 14 -1 25 5 22 12 48 18 96
23 18 2 35 5 37 8 11 11 255 -2 315 -16z"/>
<path d="M19415 14334 c-5 -1 -37 -5 -70 -8 -113 -10 -140 -14 -235 -35 -165
-37 -408 -125 -505 -183 -16 -10 -41 -23 -55 -30 -32 -15 -228 -148 -265 -179
-97 -82 -202 -186 -246 -244 -13 -16 -29 -34 -35 -40 -7 -5 -42 -55 -79 -110
-36 -55 -69 -104 -73 -110 -36 -50 -132 -285 -166 -405 -14 -54 -17 -67 -30
-140 -3 -19 -9 -48 -12 -65 -10 -46 -13 -432 -4 -468 5 -18 13 -59 19 -92 13
-76 18 -97 41 -175 8 -25 14 -47 14 -50 9 -58 118 -280 193 -395 79 -120 130
-182 243 -296 110 -110 362 -299 399 -299 5 0 11 -3 13 -8 5 -11 213 -106 308
-140 209 -75 369 -102 690 -116 52 -3 95 -5 95 -6 0 -1 9 -3 19 -5 64 -12 160
-53 199 -84 93 -75 158 -182 162 -266 6 -132 -81 -267 -220 -340 -85 -46 -153
-60 -280 -59 -122 0 -160 8 -259 53 -48 22 -176 136 -176 157 0 8 -4 14 -9 14
-5 0 -29 20 -53 45 -46 49 -123 92 -179 101 -36 5 -80 8 -89 4 -16 -6 -110 -4
-110 3 0 5 -5 5 -11 2 -6 -4 -198 -8 -427 -10 -340 -2 -422 -5 -443 -17 -43
-23 -89 -62 -89 -75 0 -7 -4 -13 -9 -13 -11 0 -24 -55 -24 -100 0 -34 7 -81
19 -130 3 -14 7 -35 9 -46 5 -33 56 -194 78 -244 40 -94 91 -195 101 -202 6
-4 8 -8 3 -8 -10 0 115 -183 168 -245 95 -112 246 -253 322 -302 15 -9 30 -20
33 -24 23 -30 343 -205 391 -214 9 -2 25 -8 35 -14 20 -11 165 -60 197 -66 10
-3 27 -7 37 -10 10 -3 29 -8 42 -10 13 -3 47 -10 77 -16 150 -31 413 -43 561
-26 30 4 75 9 100 12 25 2 56 7 70 10 14 3 36 8 50 11 212 43 440 133 623 246
43 26 83 48 88 48 5 0 9 4 9 8 0 5 21 23 48 40 102 68 254 212 354 337 100
125 213 321 258 445 6 19 16 44 20 55 21 51 55 186 76 299 15 85 21 324 10
421 -10 92 -18 147 -31 203 -3 12 -7 30 -9 40 -2 9 -10 37 -17 62 -7 25 -13
47 -13 50 -1 6 -33 95 -46 125 -94 236 -282 492 -500 680 -55 48 -202 150
-211 147 -5 -1 -9 2 -9 7 0 26 -393 206 -491 225 -13 2 -51 12 -84 21 -33 9
-73 18 -90 20 -16 3 -41 7 -55 11 -58 13 -153 21 -330 29 -101 4 -127 7 -175
19 -44 11 -98 34 -140 61 -56 35 -125 97 -125 112 0 5 -8 18 -18 29 -30 32
-59 132 -56 192 6 116 107 258 227 319 97 48 147 58 287 57 85 -1 119 -7 180
-28 41 -14 76 -30 78 -36 2 -5 10 -10 18 -10 8 0 47 -34 87 -76 156 -164 178
-185 223 -210 39 -22 91 -27 284 -26 688 3 841 5 846 13 3 5 13 9 23 9 9 0 36
16 58 35 83 71 88 146 27 375 -14 52 -27 100 -28 105 -3 10 -11 31 -25 70
-179 467 -562 842 -1066 1045 -51 21 -106 40 -127 45 -13 2 -48 12 -78 20 -63
18 -76 22 -145 36 -52 11 -65 13 -155 24 -58 7 -318 14 -335 9z"/>
<path d="M628 14224 c-4 -3 -66 -7 -140 -8 -136 -2 -191 -13 -240 -47 -14 -11
-30 -19 -35 -19 -13 0 -97 -91 -120 -130 -43 -74 -53 -128 -53 -285 0 -11 0
-40 0 -65 0 -25 2 -55 4 -67 3 -13 1 -25 -4 -28 -5 -3 -7 -11 -4 -19 9 -25 11
-96 2 -96 -5 0 -6 -5 -2 -12 4 -6 8 -259 10 -562 8 -1607 15 -2806 18 -2926 4
-147 14 -189 67 -271 48 -75 143 -144 229 -166 30 -7 781 -11 795 -4 5 3 21 5
35 6 32 0 130 36 130 47 0 4 6 8 13 8 12 0 81 62 115 105 17 20 52 98 60 133
13 57 -7 4009 -21 4099 -2 13 -6 26 -10 29 -4 4 -7 16 -7 26 0 10 -4 18 -10
18 -5 0 -9 4 -7 8 3 11 -65 112 -75 112 -4 0 -20 12 -35 26 -34 32 -124 74
-172 80 -33 4 -286 7 -303 4 -22 -4 -77 -3 -91 3 -10 4 -17 2 -17 -4 0 -6 -6
-7 -16 -1 -9 5 -33 6 -54 2 -22 -4 -43 -3 -48 2 -4 4 -11 6 -14 2z"/>
<path d="M11187 9504 c-2 -2 -76 -13 -89 -14 -5 0 -26 -17 -49 -37 -42 -38
-68 -80 -74 -117 -8 -47 -16 -113 -20 -146 -2 -19 -5 -45 -8 -56 -3 -12 -8
-37 -11 -55 -5 -35 -46 -174 -64 -219 -5 -14 -10 -28 -11 -32 -1 -4 -22 -47
-47 -95 -82 -158 -209 -307 -334 -391 -30 -20 -57 -40 -60 -43 -17 -22 -256
-122 -290 -121 -3 0 -12 -4 -21 -9 -17 -9 -37 -13 -136 -29 -174 -29 -429 -30
-554 -4 -13 2 -42 7 -64 10 -96 14 -324 104 -372 147 -13 11 -23 16 -23 11 0
-5 -4 -4 -8 1 -4 6 -27 26 -52 45 -60 47 -126 116 -163 170 -17 25 -34 47 -38
50 -15 10 -109 200 -109 219 0 11 -4 22 -9 25 -4 3 -14 27 -21 53 -6 27 -14
55 -17 63 -7 18 -13 40 -17 60 -1 8 -5 26 -9 40 -12 44 -20 107 -32 229 -7 73
-34 138 -73 173 -53 47 -83 52 -294 53 -109 0 -198 -4 -198 -8 0 -5 -5 -5 -12
-1 -16 10 -219 11 -225 1 -2 -4 -9 -4 -16 0 -15 9 -98 10 -104 0 -2 -4 -9 -4
-15 0 -14 8 -109 9 -130 1 -8 -4 -21 -2 -29 2 -8 5 -19 4 -26 -2 -7 -6 -13 -8
-13 -4 0 11 -74 -24 -98 -47 -34 -32 -52 -76 -56 -135 -1 -29 0 -54 2 -57 2
-2 6 -28 7 -57 3 -64 16 -181 20 -189 2 -3 6 -27 10 -53 3 -26 10 -68 16 -94
6 -26 12 -60 14 -75 4 -25 12 -53 33 -117 3 -8 6 -22 7 -30 5 -35 74 -234 110
-317 98 -224 253 -484 352 -589 17 -19 29 -34 26 -34 -16 0 207 -217 288 -280
18 -14 38 -31 45 -37 7 -7 17 -13 22 -13 6 0 12 -4 14 -8 4 -11 124 -92 137
-92 5 0 11 -3 13 -7 8 -18 307 -167 357 -178 14 -3 50 -15 191 -63 8 -3 24 -7
34 -9 10 -2 53 -12 95 -22 42 -11 96 -22 121 -26 25 -4 52 -9 61 -10 9 -2 40
-6 69 -10 29 -4 61 -8 70 -10 112 -21 623 -22 725 -1 11 2 47 7 80 11 102 11
129 15 145 20 8 2 31 7 50 10 19 3 69 15 110 26 41 11 88 22 105 25 16 3 42
12 57 20 16 8 28 12 28 9 0 -3 17 2 38 11 20 9 42 17 47 18 32 9 82 31 215 96
120 59 122 60 214 120 38 25 77 49 87 55 11 5 19 13 19 17 0 5 7 8 15 8 8 0
15 4 15 9 0 5 24 26 53 48 84 65 238 221 317 323 19 25 37 47 40 50 12 10 143
215 167 259 13 25 28 53 33 61 30 48 150 337 150 362 0 8 4 18 9 24 9 10 51
156 75 264 8 36 18 79 22 95 7 32 7 32 18 114 4 30 10 63 12 75 8 34 17 174
18 256 0 90 -18 129 -83 175 l-43 30 -430 0 c-236 0 -430 -1 -431 -1z"/>
<path d="M15698 9375 c-2 -1 -25 -5 -53 -8 -120 -14 -246 -65 -316 -129 -49
-45 -99 -110 -99 -130 0 -9 -4 -18 -9 -20 -15 -5 -38 -139 -35 -201 5 -91 12
-125 41 -184 31 -62 95 -133 163 -179 47 -32 200 -109 212 -106 3 1 12 -5 18
-13 7 -8 19 -15 26 -15 8 0 60 -23 117 -51 151 -75 187 -115 182 -205 -4 -78
-28 -120 -80 -140 -24 -9 -48 -13 -54 -10 -5 4 -12 2 -16 -3 -3 -6 -11 -8 -18
-6 -7 2 -43 6 -82 9 -38 3 -82 8 -97 11 -50 9 -83 16 -93 19 -5 1 -26 6 -45
10 -19 4 -75 21 -124 37 -50 16 -90 28 -91 26 -14 -23 -85 -259 -85 -281 0 -9
8 -16 18 -16 10 0 23 -5 28 -10 6 -6 19 -12 30 -14 10 -2 44 -14 74 -26 30
-12 64 -24 75 -26 11 -2 48 -11 83 -19 90 -23 115 -26 232 -30 245 -8 440 75
543 233 23 35 41 68 40 73 -2 5 1 9 6 9 24 0 46 218 29 290 -5 19 -10 42 -12
51 -15 63 -98 169 -170 219 -41 27 -159 89 -248 129 -113 50 -145 66 -173 85
-16 12 -32 20 -35 20 -13 -3 -78 47 -94 71 -40 61 -23 154 34 193 36 24 234
22 395 -3 17 -3 46 -7 65 -10 19 -2 55 -7 80 -10 l46 -7 18 93 c40 207 40 201
-4 211 -19 5 -44 10 -55 13 -31 7 -67 14 -105 20 -49 8 -90 15 -125 21 -32 6
-232 13 -237 9z"/>
<path d="M16906 9353 c-1 -1 -127 -3 -279 -4 -276 -1 -277 -1 -278 -22 -1 -24
-1 -265 0 -283 1 -11 132 -12 379 -3 40 1 75 0 78 -4 3 -3 6 -306 7 -673 l2
-668 178 1 c97 0 180 3 183 6 3 3 5 93 4 199 0 106 -2 406 -3 667 l-2 475 145
-2 c240 -3 313 -2 319 4 10 10 6 304 -4 305 -21 2 -727 4 -729 2z"/>
<path d="M14496 9343 c-1 -2 -122 -3 -269 -4 l-267 -1 0 -36 c1 -20 1 -44 0
-52 -1 -16 8 -1459 9 -1525 l1 -41 490 2 c270 1 494 5 498 9 4 3 7 74 8 156 0
129 -2 149 -15 150 -13 1 -184 0 -236 -2 -5 0 -32 0 -60 0 -27 1 -110 0 -183
-2 -111 -2 -132 0 -133 13 -1 18 -5 122 -10 255 -2 82 0 100 11 102 8 2 139 4
290 5 l275 3 0 143 c0 79 -3 148 -6 154 -6 9 -72 13 -105 7 -5 -1 -11 -1 -14
0 -14 5 -250 5 -250 1 0 -3 -29 -5 -65 -5 -36 0 -65 3 -65 7 0 4 -10 4 -22 -1
-43 -16 -54 -2 -52 64 1 33 3 111 5 173 l3 113 310 -2 c227 -1 310 1 309 10
-2 6 0 11 5 11 9 0 7 153 -2 168 -3 6 -2 14 4 17 8 5 8 11 1 19 -6 7 -9 15 -7
17 13 13 14 61 1 65 -14 6 -454 12 -459 7z"/>
<path d="M12722 9332 l-33 -3 3 -819 c2 -451 7 -823 11 -827 8 -7 215 -8 222
-1 3 2 26 1 52 -2 26 -3 58 -2 70 3 21 9 21 11 16 236 -3 124 -6 273 -7 331
l-1 105 270 2 c149 0 275 2 280 2 7 1 11 54 11 154 l0 152 -281 0 -280 0 0
180 0 180 315 0 315 0 1 156 2 156 -467 -1 c-256 -1 -481 -2 -499 -4z"/>
</g>
</svg>
