<svg width="95" height="86" viewBox="0 0 95 86" fill="none" xmlns="http://www.w3.org/2000/svg">
<path d="M58.8121 4.07788L24.3479 14.3058C22.0383 14.9912 20.7205 17.423 21.4045 19.7374L37.3635 73.7343C38.0475 76.0487 40.4743 77.3692 42.7839 76.6838L77.2481 66.4558C79.5577 65.7704 80.8755 63.3386 80.1915 61.0242L64.2326 7.02732C63.5485 4.71297 61.1217 3.39246 58.8121 4.07788Z" fill="#59BCCE"/>
<path d="M11.4195 23.7788C10.2153 21.5569 11.1383 18.7776 13.4312 17.7218L48.7942 1.43813C51.1283 0.363334 53.8792 1.53255 54.7305 3.96116L73.438 57.3416C74.1873 59.4798 73.1812 61.8374 71.1205 62.7716L43.8554 75.133C41.7725 76.077 39.3157 75.2499 38.2249 73.2369L11.4195 23.7788Z" fill="white"/>
<path d="M0 5.30664L92.3197 14.571L80.7638 82.9191L21.9828 82.9027L0 5.30664Z" fill="url(#paint0_linear)"/>
<path d="M5.27228 20.7004C4.04861 18.525 4.88998 15.7659 7.11824 14.6472L32.1899 2.06033C34.3007 1.00054 36.8701 1.81649 37.9865 3.90126L65.9421 56.1058C67.0368 58.15 66.3466 60.6954 64.3698 61.9036L41.4899 75.8863C39.3832 77.1738 36.6309 76.4552 35.4193 74.3011L5.27228 20.7004Z" fill="#66C9DB"/>
<path d="M37.7056 19.8115L20.5263 26.966C17.7266 28.1319 16.4003 31.3514 17.5639 34.1569L20.2559 40.6476C21.4195 43.4531 24.6324 44.7822 27.4321 43.6162L44.6114 36.4617C47.4111 35.2957 48.7374 32.0762 47.5738 29.2708L44.8818 22.78C43.7182 19.9746 40.5053 18.6455 37.7056 19.8115Z" fill="#59BCCE"/>
<path d="M21.502 33.829C22.1216 33.5639 22.4095 32.8456 22.1449 32.2246C21.8803 31.6036 21.1635 31.315 20.5439 31.5801C19.9242 31.8452 19.6363 32.5635 19.9009 33.1845C20.1655 33.8055 20.8823 34.0941 21.502 33.829Z" fill="white"/>
<path d="M22.9404 37.2011C23.5601 36.936 23.848 36.2177 23.5834 35.5966C23.3188 34.9756 22.602 34.6871 21.9824 34.9522C21.3627 35.2172 21.0748 35.9356 21.3394 36.5566C21.604 37.1776 22.3208 37.4661 22.9404 37.2011Z" fill="white"/>
<path d="M25.1475 32.268C25.7671 32.0029 26.055 31.2845 25.7904 30.6635C25.5259 30.0425 24.809 29.754 24.1894 30.0191C23.5697 30.2841 23.2819 31.0025 23.5464 31.6235C23.811 32.2445 24.5278 32.533 25.1475 32.268Z" fill="white"/>
<path d="M28.1426 39.2958C28.7622 39.0307 29.0501 38.3124 28.7855 37.6914C28.521 37.0704 27.8042 36.7818 27.1845 37.0469C26.5648 37.312 26.277 38.0303 26.5415 38.6513C26.8061 39.2723 27.5229 39.5609 28.1426 39.2958Z" fill="white"/>
<path d="M31.2285 37.9755C31.8482 37.7104 32.136 36.9921 31.8715 36.3711C31.6069 35.75 30.8901 35.4615 30.2704 35.7266C29.6508 35.9917 29.3629 36.71 29.6275 37.331C29.892 37.952 30.6089 38.2405 31.2285 37.9755Z" fill="white"/>
<path d="M31.3193 29.6288C31.939 29.3637 32.2269 28.6454 31.9623 28.0244C31.6977 27.4034 30.9809 27.1148 30.3613 27.3799C29.7416 27.645 29.4537 28.3633 29.7183 28.9843C29.9829 29.6053 30.6997 29.8939 31.3193 29.6288Z" fill="white"/>
<path d="M34.3115 36.6556C34.9312 36.3906 35.2191 35.6722 34.9545 35.0512C34.6899 34.4302 33.9731 34.1417 33.3534 34.4068C32.7338 34.6718 32.4459 35.3902 32.7105 36.0112C32.9751 36.6322 33.6919 36.9207 34.3115 36.6556Z" fill="white"/>
<path d="M34.9658 28.0692C35.5855 27.8041 35.8734 27.0858 35.6088 26.4648C35.3442 25.8438 34.6274 25.5552 34.0077 25.8203C33.3881 26.0854 33.1002 26.8037 33.3648 27.4247C33.6294 28.0458 34.3462 28.3343 34.9658 28.0692Z" fill="white"/>
<path d="M37.96 35.0956C38.5796 34.8305 38.8675 34.1122 38.6029 33.4912C38.3384 32.8702 37.6215 32.5816 37.0019 32.8467C36.3822 33.1118 36.0944 33.8301 36.3589 34.4511C36.6235 35.0721 37.3403 35.3607 37.96 35.0956Z" fill="white"/>
<path d="M41.044 33.7763C41.6636 33.5112 41.9515 32.7929 41.6869 32.1718C41.4223 31.5508 40.7055 31.2623 40.0859 31.5274C39.4662 31.7924 39.1783 32.5108 39.4429 33.1318C39.7075 33.7528 40.4243 34.0413 41.044 33.7763Z" fill="white"/>
<path d="M81.4698 9.67216C82.4855 8.44745 84.4448 9.50997 83.9774 11.0318L82.279 16.5595C82.117 17.0863 82.266 17.6595 82.6634 18.0408L86.6285 21.8421C87.7812 22.947 86.5739 24.8365 85.0902 24.2499L80.3143 22.3617C79.7628 22.1438 79.1343 22.2832 78.7261 22.7141L74.5303 27.1448C73.4204 28.3168 71.5152 27.0765 72.1329 25.584L74.3594 20.2033C74.6071 19.6045 74.4302 18.9137 73.9253 18.5084L69.4874 14.947C68.225 13.9338 69.3088 11.9229 70.8464 12.4247L76.4721 14.2608C77.0385 14.4455 77.6599 14.2657 78.0406 13.8067L81.4698 9.67216Z" fill="url(#paint1_linear)"/>
<path d="M4.52058 49.0803C3.52643 47.838 4.95746 46.127 6.35196 46.8906L11.4167 49.6639C11.8994 49.9285 12.4898 49.897 12.9419 49.5829L17.4523 46.4507C18.7633 45.5405 20.3691 47.104 19.4987 48.4432L16.6968 52.7544C16.3732 53.2521 16.3838 53.8969 16.7235 54.3839L20.2159 59.3899C21.1398 60.7142 19.5458 62.3365 18.21 61.4316L13.3948 58.1687C12.8588 57.8056 12.1478 57.841 11.6505 58.2557L7.28017 61.9001C6.03708 62.9366 4.28753 61.4704 5.08595 60.0611L8.00703 54.9052C8.30102 54.3863 8.24947 53.7401 7.87693 53.2744L4.52058 49.0803Z" fill="url(#paint2_linear)"/>
<defs>
<linearGradient id="paint0_linear" x1="55.5299" y1="143.875" x2="44.5686" y2="17.3558" gradientUnits="userSpaceOnUse">
<stop stop-color="#F4EA28"/>
<stop offset="0.597989" stop-color="#F4EA28" stop-opacity="0.431829"/>
<stop offset="1" stop-color="#F4EA28" stop-opacity="0"/>
</linearGradient>
<linearGradient id="paint1_linear" x1="78.0353" y1="6.14808" x2="62.3049" y2="31.36" gradientUnits="userSpaceOnUse">
<stop stop-color="#F4EA28"/>
<stop offset="0.572917" stop-color="#F4EA28" stop-opacity="0"/>
</linearGradient>
<linearGradient id="paint2_linear" x1="0.38762" y1="51.7471" x2="21.9704" y2="72.1521" gradientUnits="userSpaceOnUse">
<stop stop-color="#F4EA28"/>
<stop offset="0.572917" stop-color="#F4EA28" stop-opacity="0"/>
</linearGradient>
</defs>
</svg>
