<svg width="170" height="170" viewBox="0 0 170 170" fill="none" xmlns="http://www.w3.org/2000/svg">
<mask id="mask0" mask-type="alpha" maskUnits="userSpaceOnUse" x="0" y="0" width="170" height="170">
<path d="M0 16C0 7.16344 7.16344 0 16 0H170V170H16C7.16344 170 0 162.837 0 154V16Z" fill="#C4C4C4"/>
</mask>
<g mask="url(#mask0)">
<path d="M0 16C0 7.16344 7.16344 0 16 0H226V169.5H16C7.16345 169.5 0 162.337 0 153.5V16Z" fill="white"/>
<rect x="113" y="56.5" width="56.5" height="56.5" fill="#1A1927"/>
<path d="M162.666 31.1066C156.808 32.8682 151.355 35.7663 146.618 39.6354C141.88 43.5045 137.951 48.2688 135.055 53.6563C132.158 59.0439 130.352 64.9491 129.738 71.0349C129.123 77.1207 129.714 83.2679 131.476 89.1254C133.237 94.9829 136.135 100.436 140.004 105.174C143.874 109.911 148.638 113.84 154.025 116.737C159.413 119.633 165.318 121.44 171.404 122.054C177.49 122.668 183.637 122.077 189.494 120.315L176.08 75.711L162.666 31.1066Z" fill="#EE1A30"/>
<rect width="28.25" height="28.25" fill="#1A1927"/>
<rect x="28.25" width="28.25" height="28.25" fill="#EE1A30"/>
<rect x="56.5" width="56.5" height="56.5" fill="#1A1927"/>
<rect x="113" width="56.5" height="56.5" fill="#FCB912"/>
<rect x="169.5" width="56.5" height="56.5" fill="#00237D"/>
<rect x="113" y="113" width="56.5" height="56.5" fill="#FDB813"/>
<rect x="169.5" y="56.5" width="56.5" height="56.5" fill="#FF6F07"/>
<rect y="56.5" width="56.5" height="56.5" fill="#1A1927"/>
<path d="M78.6731 138.844L-2.97962 116.966L56.7943 57.1918L78.6731 138.844Z" fill="#C4C4C4"/>
<rect x="56.5" y="56.5" width="56.5" height="56.5" fill="#18BBB6"/>
<rect x="56.5" y="113" width="56.5" height="56.5" fill="#EDEDED"/>
<rect y="113" width="56.5" height="56.5" fill="#1E2A5A"/>
<rect x="169.5" y="113" width="56.5" height="56.5" fill="#1E2A5A"/>
<path d="M250.43 192.519L168.777 170.641L228.551 110.867L250.43 192.519Z" fill="#FDB813"/>
<rect x="28.25" y="28.25" width="28.25" height="28.25" fill="#1E2A5A"/>
<rect y="28.25" width="28.25" height="28.25" fill="#18BBB6"/>
<rect x="169.5" y="56.5" width="28.25" height="28.25" fill="#1A1927"/>
<rect x="169.5" y="84.75" width="28.25" height="28.25" fill="#18BBB6"/>
<path d="M84.6763 28.2497C84.6763 39.7952 74.9373 49.1547 62.9238 49.1547C50.9102 49.1547 78.4613 39.7952 78.4613 28.2497C78.4613 16.7042 50.9102 7.34473 62.9238 7.34473C74.9373 7.34473 84.6763 16.7042 84.6763 28.2497Z" fill="#FDB813"/>
<path d="M109.536 28.2497C109.536 39.7952 99.7967 49.1547 87.7831 49.1547C75.7696 49.1547 103.321 39.7952 103.321 28.2497C103.321 16.7042 75.7696 7.34473 87.7831 7.34473C99.7967 7.34473 109.536 16.7042 109.536 28.2497Z" fill="#1E2A5A"/>
<rect x="113" width="56.5" height="4.2375" fill="#EE1A30"/>
<rect x="113" y="8.47461" width="56.5" height="4.2375" fill="#EE1A30"/>
<rect x="113" y="16.9502" width="56.5" height="4.2375" fill="#EE1A30"/>
<rect x="113" y="25.4248" width="56.5" height="4.2375" fill="#EE1A30"/>
<rect x="113" y="33.9004" width="56.5" height="4.2375" fill="#EE1A30"/>
<rect x="113" y="42.375" width="56.5" height="4.2375" fill="#EE1A30"/>
<rect x="113" y="50.8496" width="56.5" height="4.2375" fill="#EE1A30"/>
<rect x="123.453" y="123.453" width="35.3125" height="35.3125" rx="17.6563" fill="#18BBB6"/>
<rect y="121.475" width="56.5" height="7.0625" fill="#FDB813"/>
<rect y="137.577" width="56.5" height="7.0625" fill="#FDB813"/>
<rect y="153.115" width="56.5" height="7.0625" fill="#FDB813"/>
<path d="M56.3613 56.5C63.966 56.5 71.2593 59.4763 76.6367 64.7742C82.014 70.0721 85.035 77.2576 85.035 84.75C85.035 92.2424 82.014 99.4279 76.6367 104.726C71.2593 110.024 63.966 113 56.3613 113L56.3613 84.75V56.5Z" fill="#1A1927"/>
<rect x="56.5" y="113" width="56.5" height="28.25" fill="#1A1927"/>
<rect x="56.5" y="141.25" width="56.5" height="28.25" fill="#18BBB6"/>
</g>
</svg>
