<svg width="96" height="86" viewBox="0 0 96 86" fill="none" xmlns="http://www.w3.org/2000/svg">
<path d="M59.4306 4.07818L24.6038 14.3063C22.2699 14.9917 20.9383 17.4236 21.6295 19.7379L37.7563 73.7357C38.4475 76.0501 40.8998 77.3707 43.2337 76.6852L78.0605 66.4571C80.3944 65.7717 81.7261 63.3399 81.0349 61.0255L64.908 7.02767C64.2168 4.71328 61.7645 3.39275 59.4306 4.07818Z" fill="#59BCCE"/>
<path d="M11.5418 23.7786C10.3249 21.5567 11.2576 18.7773 13.5746 17.7215L49.3095 1.43798C51.6682 0.363182 54.448 1.53244 55.3082 3.9611L74.213 57.3425C74.9703 59.4808 73.9536 61.8384 71.8712 62.7726L44.3194 75.1339C42.2146 76.078 39.7319 75.2508 38.6296 73.2377L11.5418 23.7786Z" fill="white"/>
<path d="M0 5.30518L93.291 14.5703L81.614 82.9194L22.2146 82.9026L0 5.30518Z" fill="url(#paint0_linear)"/>
<path d="M64.3879 50.1068C68.6579 48.3118 70.6521 43.4242 68.842 39.1898C67.032 34.9555 62.1031 32.978 57.8331 34.7729C53.5631 36.5679 51.5689 41.4555 53.379 45.6899C55.189 49.9242 60.1179 51.9017 64.3879 50.1068Z" fill="#FF9900"/>
<g filter="url(#filter0_i)">
<path d="M67.8186 36.7938C72.0886 34.9988 74.0828 30.1112 72.2727 25.8769C70.4626 21.6425 65.5338 19.665 61.2638 21.46C56.9938 23.2549 54.9996 28.1426 56.8096 32.3769C58.6197 36.6112 63.5486 38.5887 67.8186 36.7938Z" fill="#FF9900"/>
</g>
<g filter="url(#filter1_i)">
<path d="M56.7082 32.138C60.9782 30.3431 62.9724 25.4554 61.1623 21.2211C59.3523 16.9868 54.4234 15.0093 50.1534 16.8042C45.8834 18.5991 43.8892 23.4868 45.6993 27.7211C47.5093 31.9554 52.4382 33.9329 56.7082 32.138Z" fill="#FF9900"/>
</g>
<path d="M59.5305 41.409C63.8005 39.6141 65.7947 34.7264 63.9846 30.4921C62.1746 26.2578 57.2457 24.2803 52.9757 26.0752C48.7057 27.8701 46.7115 32.7578 48.5215 36.9921C50.3316 41.2264 55.2605 43.2039 59.5305 41.409Z" fill="#F4EA28"/>
<path d="M5.32676 20.6992C4.09019 18.5238 4.94039 15.7647 7.19209 14.646L32.5274 2.05911C34.6604 0.999322 37.2569 1.81531 38.385 3.90012L66.6352 56.1057C67.7415 58.15 67.044 60.6954 65.0464 61.9036L41.9259 75.8863C39.7971 77.1738 37.0159 76.4552 35.7915 74.301L5.32676 20.6992Z" fill="#66C9DB"/>
<path d="M82.3265 9.67216C83.3529 8.44743 85.3328 9.50996 84.8605 11.0318L83.1442 16.5596C82.9805 17.0864 83.1311 17.6596 83.5327 18.0409L87.5395 21.8423C88.7043 22.9472 87.4843 24.8367 85.985 24.2501L81.1588 22.3619C80.6015 22.144 79.9665 22.2834 79.5539 22.7143L75.314 27.145C74.1924 28.3171 72.2672 27.0768 72.8914 25.5842L75.1413 20.2035C75.3916 19.6046 75.2129 18.9138 74.7027 18.5086L70.2181 14.947C68.9424 13.9339 70.0376 11.9229 71.5913 12.4248L77.2762 14.2608C77.8486 14.4456 78.4766 14.2657 78.8612 13.8068L82.3265 9.67216Z" fill="url(#paint1_linear)"/>
<path d="M4.5678 49.0808C3.56319 47.8386 5.00928 46.1274 6.41845 46.8911L11.5364 49.6644C12.0243 49.9291 12.6208 49.8976 13.0778 49.5835L17.6356 46.4511C18.9604 45.5409 20.5831 47.1045 19.7035 48.4437L16.8721 52.755C16.5451 53.2527 16.5558 53.8975 16.8991 54.3845L20.4283 59.3906C21.3619 60.7149 19.7511 62.3373 18.4013 61.4323L13.5354 58.1694C12.9938 57.8063 12.2753 57.8417 11.7727 58.2564L7.35642 61.9008C6.10026 62.9374 4.3323 61.4711 5.13912 60.0618L8.09093 54.9059C8.38802 54.3869 8.33592 53.7407 7.95947 53.275L4.5678 49.0808Z" fill="url(#paint2_linear)"/>
<defs>
<filter id="filter0_i" x="56.1416" y="20.7974" width="16.7993" height="17.8342" filterUnits="userSpaceOnUse" color-interpolation-filters="sRGB">
<feFlood flood-opacity="0" result="BackgroundImageFix"/>
<feBlend mode="normal" in="SourceGraphic" in2="BackgroundImageFix" result="shape"/>
<feColorMatrix in="SourceAlpha" type="matrix" values="0 0 0 0 0 0 0 0 0 0 0 0 0 0 0 0 0 0 127 0" result="hardAlpha"/>
<feOffset dy="1.17529"/>
<feGaussianBlur stdDeviation="0.587644"/>
<feComposite in2="hardAlpha" operator="arithmetic" k2="-1" k3="1"/>
<feColorMatrix type="matrix" values="0 0 0 0 0.954167 0 0 0 0 0.385642 0 0 0 0 0.63024 0 0 0 0.35 0"/>
<feBlend mode="normal" in2="shape" result="effect1_innerShadow"/>
</filter>
<filter id="filter1_i" x="45.0312" y="16.1416" width="16.7993" height="17.8342" filterUnits="userSpaceOnUse" color-interpolation-filters="sRGB">
<feFlood flood-opacity="0" result="BackgroundImageFix"/>
<feBlend mode="normal" in="SourceGraphic" in2="BackgroundImageFix" result="shape"/>
<feColorMatrix in="SourceAlpha" type="matrix" values="0 0 0 0 0 0 0 0 0 0 0 0 0 0 0 0 0 0 127 0" result="hardAlpha"/>
<feOffset dy="1.17529"/>
<feGaussianBlur stdDeviation="0.587644"/>
<feComposite in2="hardAlpha" operator="arithmetic" k2="-1" k3="1"/>
<feColorMatrix type="matrix" values="0 0 0 0 0 0 0 0 0 0 0 0 0 0 0 0 0 0 0.25 0"/>
<feBlend mode="normal" in2="shape" result="effect1_innerShadow"/>
</filter>
<linearGradient id="paint0_linear" x1="56.1151" y1="143.876" x2="45.2667" y2="17.3352" gradientUnits="userSpaceOnUse">
<stop stop-color="#F4EA28"/>
<stop offset="0.597989" stop-color="#F4EA28" stop-opacity="0.431829"/>
<stop offset="1" stop-color="#F4EA28" stop-opacity="0"/>
</linearGradient>
<linearGradient id="paint1_linear" x1="78.8559" y1="6.14802" x2="63.1979" y2="31.5073" gradientUnits="userSpaceOnUse">
<stop stop-color="#F4EA28"/>
<stop offset="0.572917" stop-color="#F4EA28" stop-opacity="0"/>
</linearGradient>
<linearGradient id="paint2_linear" x1="0.391364" y1="51.7476" x2="21.986" y2="72.3783" gradientUnits="userSpaceOnUse">
<stop stop-color="#F4EA28"/>
<stop offset="0.572917" stop-color="#F4EA28" stop-opacity="0"/>
</linearGradient>
</defs>
</svg>
